<?xml version="1.0" encoding="utf-8"?>
<!-- Generator: Adobe Illustrator 15.0.0, SVG Export Plug-In . SVG Version: 6.00 Build 0)  -->
<!DOCTYPE svg PUBLIC "-//W3C//DTD SVG 1.1//EN" "http://www.w3.org/Graphics/SVG/1.1/DTD/svg11.dtd">
<svg version="1.1"
	 id="svg14855" sodipodi:docbase="/Users/johnolsen/Desktop" sodipodi:docname="chris_sharkot_ball.svg" inkscape:version="0.45.1" sodipodi:version="0.32" inkscape:output_extension="org.inkscape.output.svg.inkscape" xmlns:dc="http://purl.org/dc/elements/1.1/" xmlns:cc="http://web.resource.org/cc/" xmlns:rdf="http://www.w3.org/1999/02/22-rdf-syntax-ns#" xmlns:svg="http://www.w3.org/2000/svg" xmlns:sodipodi="http://sodipodi.sourceforge.net/DTD/sodipodi-0.dtd" xmlns:inkscape="http://www.inkscape.org/namespaces/inkscape"
	 xmlns="http://www.w3.org/2000/svg" xmlns:xlink="http://www.w3.org/1999/xlink" x="0px" y="0px" width="451.364px"
	 height="596.684px" viewBox="0 0 451.364 596.684" enable-background="new 0 0 451.364 596.684" xml:space="preserve">
<sodipodi:namedview  id="base" inkscape:window-y="22" inkscape:window-x="0" inkscape:window-height="1012" inkscape:window-width="1222" inkscape:current-layer="layer1" inkscape:document-units="px" inkscape:pageshadow="2" inkscape:pageopacity="0.0" inkscape:zoom="0.7" inkscape:cy="568.29324" inkscape:cx="384.54731" borderopacity="1.0" bordercolor="#666666" pagecolor="#ffffff">
	</sodipodi:namedview>
<g id="layer1" transform="translate(-154.31796,-309.53726)" inkscape:label="Warstwa 1" inkscape:groupmode="layer">
	
		<radialGradient id="path18799_1_" cx="177.6436" cy="313.6339" r="135.0161" gradientTransform="matrix(1.4557 -0.4763 -0.6458 -1.0737 328.8718 1168.9907)" gradientUnits="userSpaceOnUse">
		<stop  offset="0" style="stop-color:#999999"/>
		<stop  offset="1" style="stop-color:#999999;stop-opacity:0"/>
	</radialGradient>
	
		<path id="path18799" inkscape:transform-center-x="-18.535056" inkscape:transform-center-y="30.816466" sodipodi:type="arc" sodipodi:cx="102.14286" sodipodi:cy="545.93359" sodipodi:rx="135" sodipodi:ry="135" fill="url(#path18799_1_)" d="
		M581.451,683.316c48.176,80.046-0.748,173.741-109.273,209.275c-108.526,35.533-235.558-0.552-283.733-80.598
		c-0.014-0.023-0.028-0.046-0.042-0.069c-48.176-80.046,0.748-173.741,109.273-209.275s235.558,0.551,283.734,80.597
		C581.424,683.27,581.438,683.292,581.451,683.316z"/>
	
		<linearGradient id="path14863_1_" gradientUnits="userSpaceOnUse" x1="15.2125" y1="252.3644" x2="466.6417" y2="252.3644" gradientTransform="matrix(-0.6729 -0.7397 -0.7397 0.6729 728.8022 543.6013)">
		<stop  offset="0" style="stop-color:#770900"/>
		<stop  offset="0.5" style="stop-color:#DA101B"/>
		<stop  offset="0.75" style="stop-color:#D2400F"/>
		<stop  offset="0.9375" style="stop-color:#D44316;stop-opacity:0.6146"/>
		<stop  offset="1" style="stop-color:#C30000;stop-opacity:0.2188"/>
	</linearGradient>
	
		<path id="path14863" sodipodi:type="arc" sodipodi:cx="380" sodipodi:cy="535.2193" sodipodi:rx="225.71428" sodipodi:ry="225.71428" fill="url(#path14863_1_)" d="
		M228.106,368.261c92.208-83.889,234.964-77.145,318.853,15.064c83.89,92.208,77.146,234.963-15.063,318.853
		c-92.209,83.889-234.964,77.145-318.853-15.064C129.153,594.905,135.897,452.15,228.106,368.261z"/>
	
		<radialGradient id="path17820_1_" cx="252.461" cy="355.2882" r="135.0159" gradientTransform="matrix(1 0 0 -1 72.5391 826.9358)" gradientUnits="userSpaceOnUse">
		<stop  offset="0" style="stop-color:#FFFFFF"/>
		<stop  offset="1" style="stop-color:#FFFFFF;stop-opacity:0"/>
	</radialGradient>
	
		<path id="path17820" sodipodi:type="arc" sodipodi:cx="102.14286" sodipodi:cy="545.93359" sodipodi:rx="135" sodipodi:ry="135" opacity="0.8761" fill="url(#path17820_1_)" enable-background="new    " d="
		M460,471.648c0.018,74.558-60.41,135.014-134.968,135.032C250.474,606.698,190.018,546.271,190,471.712c0-0.021,0-0.043,0-0.064
		c-0.018-74.559,60.409-135.015,134.968-135.032S459.983,397.026,460,471.584C460,471.605,460,471.627,460,471.648z"/>
</g>
</svg>
