<?xml version="1.0" encoding="UTF-8" standalone="no"?>
<!-- Created with Inkscape (http://www.inkscape.org/) -->
<svg
   xmlns:dc="http://purl.org/dc/elements/1.1/"
   xmlns:cc="http://creativecommons.org/ns#"
   xmlns:rdf="http://www.w3.org/1999/02/22-rdf-syntax-ns#"
   xmlns:svg="http://www.w3.org/2000/svg"
   xmlns="http://www.w3.org/2000/svg"
   xmlns:xlink="http://www.w3.org/1999/xlink"
   xmlns:sodipodi="http://sodipodi.sourceforge.net/DTD/sodipodi-0.dtd"
   xmlns:inkscape="http://www.inkscape.org/namespaces/inkscape"
   width="540.04547"
   height="354.33072"
   id="svg3138"
   sodipodi:version="0.32"
   inkscape:version="0.46"
   sodipodi:docname="flor_nube.svg"
   inkscape:output_extension="org.inkscape.output.svg.inkscape"
   version="1.0"
   inkscape:export-filename="/home/mred/Imágenes/svg/flor_nube.png"
   inkscape:export-xdpi="90"
   inkscape:export-ydpi="90">
  <defs
     id="defs3140">
    <linearGradient
       id="linearGradient3572">
      <stop
         style="stop-color:#ffffff;stop-opacity:0.91724139;"
         offset="0"
         id="stop3574" />
      <stop
         style="stop-color:#ff0000;stop-opacity:1;"
         offset="1"
         id="stop3576" />
    </linearGradient>
    <linearGradient
       id="linearGradient3177">
      <stop
         style="stop-color:#ffa000;stop-opacity:1;"
         offset="0"
         id="stop3179" />
      <stop
         id="stop3185"
         offset="0.5"
         style="stop-color:#ffff00;stop-opacity:1;" />
      <stop
         style="stop-color:#ffc300;stop-opacity:1;"
         offset="1"
         id="stop3181" />
    </linearGradient>
    <inkscape:perspective
       sodipodi:type="inkscape:persp3d"
       inkscape:vp_x="0 : 526.18109 : 1"
       inkscape:vp_y="0 : 1000 : 0"
       inkscape:vp_z="744.09448 : 526.18109 : 1"
       inkscape:persp3d-origin="372.04724 : 350.78739 : 1"
       id="perspective3146" />
    <radialGradient
       inkscape:collect="always"
       xlink:href="#linearGradient3177"
       id="radialGradient3719"
       gradientUnits="userSpaceOnUse"
       cx="-360.31155"
       cy="-131.51866"
       fx="-360.31155"
       fy="-131.51866"
       r="65.851479" />
    <radialGradient
       inkscape:collect="always"
       xlink:href="#linearGradient3177"
       id="radialGradient3729"
       gradientUnits="userSpaceOnUse"
       cx="-360.31155"
       cy="-131.51866"
       fx="-360.31155"
       fy="-131.51866"
       r="65.851479" />
    <radialGradient
       inkscape:collect="always"
       xlink:href="#linearGradient3177"
       id="radialGradient3739"
       gradientUnits="userSpaceOnUse"
       cx="-360.31155"
       cy="-131.51866"
       fx="-360.31155"
       fy="-131.51866"
       r="65.851479" />
    <radialGradient
       inkscape:collect="always"
       xlink:href="#linearGradient3177"
       id="radialGradient3749"
       gradientUnits="userSpaceOnUse"
       cx="-360.31155"
       cy="-131.51866"
       fx="-360.31155"
       fy="-131.51866"
       r="65.851479" />
    <radialGradient
       inkscape:collect="always"
       xlink:href="#linearGradient3177"
       id="radialGradient3751"
       gradientUnits="userSpaceOnUse"
       cx="-360.31155"
       cy="-131.51866"
       fx="-360.31155"
       fy="-131.51866"
       r="65.851479" />
  </defs>
  <sodipodi:namedview
     id="base"
     pagecolor="#ffffff"
     bordercolor="#666666"
     borderopacity="1.0"
     inkscape:pageopacity="0"
     inkscape:pageshadow="2"
     inkscape:zoom="0.9200444"
     inkscape:cx="270.02272"
     inkscape:cy="177.16536"
     inkscape:document-units="px"
     inkscape:current-layer="layer1"
     showgrid="false"
     inkscape:window-width="760"
     inkscape:window-height="507"
     inkscape:window-x="186"
     inkscape:window-y="73"
     showguides="true"
     inkscape:guide-bbox="true"
     inkscape:showpageshadow="true"
     borderlayer="false" />
  <metadata
     id="metadata3143">
    <rdf:RDF>
      <cc:Work
         rdf:about="">
        <dc:format>image/svg+xml</dc:format>
        <dc:type
           rdf:resource="http://purl.org/dc/dcmitype/StillImage" />
      </cc:Work>
    </rdf:RDF>
  </metadata>
  <g
     inkscape:label="Capa 1"
     inkscape:groupmode="layer"
     id="layer1"
     transform="translate(530.36041,228.54529)">
    <rect
       style="opacity:1;fill:#ffffff;fill-opacity:1;fill-rule:nonzero;stroke:none;stroke-width:12.30000019;stroke-linecap:round;stroke-linejoin:round;stroke-miterlimit:4;stroke-dasharray:none;stroke-opacity:1"
       id="rect3199"
       width="539.71893"
       height="354.33072"
       x="-530.36041"
       y="-228.54529"
       inkscape:export-xdpi="90"
       inkscape:export-ydpi="90"
       inkscape:export-filename="/home/mred/Imágenes/svg/flor_nube.png" />
    <path
       sodipodi:type="spiral"
       style="fill:#ffffff;fill-opacity:1;stroke:#009dff;stroke-width:6.25682926;stroke-linecap:round;stroke-miterlimit:4;stroke-dasharray:none;stroke-opacity:1"
       id="path3982"
       sodipodi:cx="232.36345"
       sodipodi:cy="-583.57043"
       sodipodi:expansion="1"
       sodipodi:revolution="7.6100001"
       sodipodi:radius="234.71056"
       sodipodi:argument="-6.6753592"
       sodipodi:t0="0"
       d="M 232.36345,-583.57043 C 236.65041,-585.34351 236.86856,-578.66647 235.31043,-576.44522 C 231.08797,-570.42578 222.15349,-572.88282 218.11303,-577.67648 C 210.88559,-586.25123 214.93294,-599.05348 223.52252,-604.94607 C 236.12808,-613.59368 253.24831,-607.78018 260.86429,-595.35834 C 271.0152,-578.80199 263.37076,-557.2358 247.09833,-547.94438 C 226.62114,-536.25208 200.55563,-545.75549 189.61219,-565.88858 C 176.35821,-590.27244 187.73493,-620.86473 211.73462,-633.44691 C 240.01741,-648.27457 275.15253,-635.01627 289.36513,-607.14624 C 305.77415,-574.9692 290.6291,-535.28103 258.88623,-519.44354 C 222.81797,-501.44797 178.56983,-518.48323 161.11134,-554.10067 C 141.52556,-594.05806 160.45343,-642.8711 199.94671,-661.94775 C 243.79175,-683.12645 297.17329,-662.30422 317.86598,-618.93415 C 340.63962,-571.20257 317.92171,-513.24978 270.67414,-490.9427 C 219.05685,-466.57253 156.53069,-491.18714 132.6105,-542.31277 C 106.64258,-597.81511 133.15466,-664.91633 188.15881,-690.44859 C 247.54569,-718.01527 319.22333,-689.60507 346.36682,-630.72205 C 375.53306,-567.45104 345.22423,-491.19589 282.46204,-462.44185 C 215.30724,-431.67537 134.47365,-463.88326 104.10966,-530.52486 C 71.742385,-601.56317 105.84968,-686.97597 176.3709,-718.94944 C 251.29249,-752.91797 341.28513,-716.91098 374.86766,-642.50996 C 410.43787,-563.7053 372.53092,-469.13224 294.24995,-433.94101 C 211.56239,-396.76879 112.40845,-436.57591 75.608814,-518.73696 C 36.834289,-605.30727 78.541762,-709.04252 164.583,-747.45028 C 255.03594,-787.82737 363.35285,-744.21938 403.36851,-654.29786 C 445.3484,-559.9624 399.83974,-447.06352 306.03785,-405.44017 C 207.81997,-361.85728 90.338828,-409.26672 47.107971,-506.94905 C 1.9219108,-609.04928 51.232241,-731.11292 152.79509,-775.95112 C 258.77758,-822.74051 385.42394,-771.52919 431.86935,-666.08577 C 480.26221,-556.22109 427.14981,-424.9918 317.82576,-376.93932 C 204.07895,-326.94286 68.26656,-381.95642 18.607129,-495.16115 C -3.0541742,-544.54073 -6.7306665,-600.87195 8.0650703,-652.70279"
       transform="matrix(0.2983169,0,0,0.2983169,-315.13988,96.469072)"
       inkscape:export-filename="/home/mred/Imágenes/svg/flor_nube.png"
       inkscape:export-xdpi="90"
       inkscape:export-ydpi="90" />
    <path
       sodipodi:type="spiral"
       style="fill:#ffffff;fill-opacity:1;stroke:#009dff;stroke-width:11.37046623;stroke-linecap:round;stroke-miterlimit:4;stroke-dasharray:none;stroke-opacity:1"
       id="path3978"
       sodipodi:cx="-274.61136"
       sodipodi:cy="-325.38879"
       sodipodi:expansion="1"
       sodipodi:revolution="3.8"
       sodipodi:radius="183.64508"
       sodipodi:argument="-23.300146"
       sodipodi:t0="0"
       d="M -274.61136,-325.38879 C -276.49277,-318.36727 -285.00445,-324.46072 -286.28159,-328.51582 C -289.74256,-339.50487 -278.17032,-348.2739 -268.35731,-348.72926 C -250.80415,-349.54379 -238.74099,-332.30694 -239.60066,-316.00773 C -240.86226,-292.08798 -264.41157,-276.33843 -287.11945,-278.70786 C -317.38548,-281.86593 -336.91884,-311.93026 -332.96253,-341.02391 C -327.98392,-377.63529 -291.31885,-400.99209 -255.84922,-395.4102 C -212.89076,-388.64977 -185.69004,-345.33994 -192.91972,-303.49964 C -201.43964,-254.19228 -251.41981,-223.13557 -299.62754,-232.02692 C -355.28527,-242.29234 -390.20577,-298.95902 -379.64346,-353.532 C -367.6419,-415.54128 -304.27782,-454.33089 -243.34113,-442.09113 C -174.97938,-428.35997 -132.31685,-358.29081 -146.23878,-290.99155 C -161.69477,-216.27661 -238.47465,-169.73833 -312.13563,-185.34599 C -393.20431,-202.52322 -443.62049,-286.01806 -426.3244,-366.04009 C -407.42867,-453.46298 -317.21558,-507.75875 -230.83304,-488.77207 C -137.05556,-468.16 -78.878878,-371.22608 -99.557849,-278.48346 C -103.72049,-259.81455 -110.85714,-241.83093 -120.59355,-225.36865"
       transform="matrix(0.1641549,0,0,0.1641549,-352.67844,10.33673)"
       inkscape:export-filename="/home/mred/Imágenes/svg/flor_nube.png"
       inkscape:export-xdpi="90"
       inkscape:export-ydpi="90" />
    <path
       sodipodi:type="spiral"
       style="fill:#ffffff;fill-opacity:1;stroke:#009dff;stroke-width:5;stroke-linecap:round;stroke-miterlimit:4;stroke-dasharray:none;stroke-opacity:1"
       id="path3952"
       sodipodi:cx="-58.677639"
       sodipodi:cy="-128.23193"
       sodipodi:expansion="1"
       sodipodi:revolution="5.6100001"
       sodipodi:radius="185.59952"
       sodipodi:argument="-36.259525"
       sodipodi:t0="0"
       d="M -58.677639,-128.23193 C -58.026573,-123.29842 -65.006708,-124.92029 -66.877468,-127.14982 C -71.947113,-133.19171 -66.928034,-141.77096 -60.841869,-144.63159 C -49.955147,-149.74859 -37.807672,-142.01095 -34.078152,-131.47828 C -28.604932,-116.02116 -39.367986,-99.887555 -54.34918,-95.432618 C -74.316755,-89.494887 -94.551204,-103.3859 -99.676784,-122.82136 C -106.1268,-147.2789 -89.063999,-171.66173 -65.170328,-177.43091 C -36.231891,-184.41816 -7.6761907,-164.1611 -1.278836,-135.80674 C 6.2602253,-102.3921 -17.204087,-69.649189 -50.02072,-62.633302 C -87.908822,-54.533181 -124.84812,-81.212941 -132.4761,-118.4929 C -141.1435,-160.85276 -111.2428,-201.99465 -69.498787,-210.23022 C -22.668312,-219.46929 22.68061,-186.34379 31.52048,-140.1352 C 41.334411,-88.834901 4.9812943,-39.27569 -45.692261,-29.833986 C -101.4618,-19.442776 -155.23378,-59.02563 -165.27542,-114.16444 C -176.24576,-174.40279 -133.43154,-232.38945 -73.827246,-243.02954 C -9.1204128,-254.58049 53.082462,-208.53361 64.319796,-144.46366 C 76.452523,-75.288598 27.171949,-8.868281 -41.363802,2.9653305 C -115.00688,15.68079 -185.64564,-36.834313 -198.07473,-109.83598 C -211.37371,-187.94691 -155.62339,-262.80496 -78.155706,-275.82886 C 4.422937,-289.71201 83.500964,-230.72589 97.119112,-148.79212 C 111.587,-61.745871 49.364588,21.552728 -37.035343,35.764647 C -128.54909,50.817737 -216.06877,-14.641377 -230.87405,-105.50752 C -246.51275,-201.4887 -177.81657,-293.22989 -82.484165,-308.62817 C -40.489051,-315.41131 3.2506998,-307.03973 39.901054,-285.48785"
       transform="matrix(0.3733036,0,0,0.3733036,-291.4535,16.620263)"
       inkscape:export-filename="/home/mred/Imágenes/svg/flor_nube.png"
       inkscape:export-xdpi="90"
       inkscape:export-ydpi="90" />
    <path
       style="fill:#ffffff;fill-opacity:1;stroke:none;stroke-width:5;stroke-linecap:round;stroke-miterlimit:4;stroke-opacity:1"
       d="M -317.63272,-128.97294 L -278.23942,-92.308662 L -242.52083,-77.049134 L -281.04554,-20.983204 L -356.15743,-72.907014 L -317.63272,-128.97294 z"
       id="rect3956"
       sodipodi:nodetypes="cccccc"
       inkscape:export-filename="/home/mred/Imágenes/svg/flor_nube.png"
       inkscape:export-xdpi="90"
       inkscape:export-ydpi="90" />
    <path
       sodipodi:type="spiral"
       style="fill:#ffffff;fill-opacity:1;stroke:#009dff;stroke-width:5;stroke-linecap:round;stroke-miterlimit:4;stroke-dasharray:none;stroke-opacity:1"
       id="path3942"
       sodipodi:cx="-25.714285"
       sodipodi:cy="-607.63782"
       sodipodi:expansion="1"
       sodipodi:revolution="3.8"
       sodipodi:radius="103.84447"
       sodipodi:argument="-22.252949"
       sodipodi:t0="0"
       d="M -25.714285,-607.63782 C -29.684694,-606.57395 -29.107222,-612.46497 -27.482509,-614.2369 C -23.079637,-619.03871 -15.51356,-615.851 -12.516123,-611.17427 C -7.1544099,-602.80868 -12.184751,-592.02789 -20.409613,-587.84057 C -32.479928,-581.69552 -46.850697,-588.77484 -52.110609,-600.56492 C -59.121246,-616.27924 -49.921286,-634.34496 -34.555405,-640.63322 C -15.219013,-648.54636 6.5853047,-637.19499 13.880202,-618.24716 C 22.715299,-595.2988 9.1967533,-569.73341 -13.336716,-561.44425 C -39.89163,-551.67576 -69.231231,-567.37059 -78.506934,-593.49202 C -89.2161,-623.65026 -71.339266,-656.77246 -41.628302,-667.02955 C -7.8688153,-678.6843 29.041678,-658.62163 40.276526,-625.32006 C 52.880328,-587.96073 30.629142,-547.2579 -6.2638199,-535.04793 C -47.222,-521.49253 -91.720126,-545.9342 -104.90326,-586.41913 C -119.41215,-630.97542 -92.778543,-679.27111 -48.701198,-693.42587 C -0.54733804,-708.88974 51.547657,-680.06306 66.67285,-632.39295 C 83.092866,-580.64196 52.072212,-524.74627 0.8090765,-508.6516 C -9.5100941,-505.41178 -20.33452,-503.8221 -31.148971,-503.93566"
       transform="matrix(0.3733036,0,0,0.3733036,-306.45701,98.241051)"
       inkscape:export-filename="/home/mred/Imágenes/svg/flor_nube.png"
       inkscape:export-xdpi="90"
       inkscape:export-ydpi="90" />
    <rect
       style="fill:#ffffff;fill-opacity:1;stroke:none;stroke-width:5;stroke-linecap:round;stroke-miterlimit:4;stroke-dasharray:none;stroke-opacity:1"
       id="rect3976"
       width="49.942436"
       height="28.037859"
       x="-354.27954"
       y="-109.35904"
       inkscape:export-filename="/home/mred/Imágenes/svg/flor_nube.png"
       inkscape:export-xdpi="90"
       inkscape:export-ydpi="90" />
    <path
       sodipodi:type="spiral"
       style="fill:#ffffff;fill-opacity:1;stroke:#009dff;stroke-width:7.44433355;stroke-linecap:round;stroke-miterlimit:4;stroke-dasharray:none;stroke-opacity:1"
       id="path3940"
       sodipodi:cx="68.571426"
       sodipodi:cy="-421.92352"
       sodipodi:expansion="1"
       sodipodi:revolution="1.8"
       sodipodi:radius="99.056778"
       sodipodi:argument="-23.296101"
       sodipodi:t0="0.25999999"
       d="M 70.238709,-447.62426 C 88.677556,-452.58913 105.30675,-436.79762 108.00119,-419.3656 C 112.02433,-393.33744 90.050251,-371.2199 65.122859,-368.76473 C 31.581004,-365.4611 3.7983021,-393.85018 1.6836074,-426.26273 C -0.99363098,-467.29756 33.906224,-500.81534 73.801279,-502.54037 C 122.32155,-504.63834 161.60967,-463.17953 162.9173,-415.80303 C 163.37872,-399.08545 159.3206,-382.36947 151.42854,-367.63777"
       transform="matrix(-0.1213364,-0.2194152,-0.2194152,0.1213364,-391.15247,-15.432238)"
       inkscape:export-filename="/home/mred/Imágenes/svg/flor_nube.png"
       inkscape:export-xdpi="90"
       inkscape:export-ydpi="90" />
    <path
       sodipodi:type="spiral"
       style="fill:#ffffff;fill-opacity:1;fill-rule:nonzero;stroke:#009dff;stroke-width:5;stroke-linecap:round;stroke-linejoin:miter;stroke-miterlimit:4;stroke-dasharray:none;stroke-opacity:1"
       id="path3148"
       sodipodi:cx="-117.14286"
       sodipodi:cy="-510.49496"
       sodipodi:expansion="1"
       sodipodi:revolution="3.8"
       sodipodi:radius="144.13712"
       sodipodi:argument="-18.064157"
       sodipodi:t0="0"
       d="M -117.14286,-510.49496 C -113.10855,-506.46066 -120.59064,-503.06641 -123.84815,-503.78968 C -132.67578,-505.74969 -134.09488,-517.05679 -130.55343,-523.90554 C -124.21861,-536.15634 -107.76846,-537.59152 -97.027,-530.61081 C -81.263482,-520.36635 -79.799836,-498.17886 -90.321727,-483.67382 C -104.34575,-464.34087 -132.44649,-462.86204 -150.66929,-476.96855 C -173.60083,-494.72016 -175.08816,-528.80798 -157.37456,-550.72669 C -135.92101,-577.27318 -95.808167,-578.76565 -70.205852,-557.43195 C -40.03441,-532.29092 -38.538628,-486.13092 -63.500594,-456.85267 C -92.320172,-423.04977 -144.54138,-421.55173 -177.49044,-450.14742 C -214.92926,-482.63965 -216.4289,-540.93155 -184.19569,-577.54783 C -148.03491,-618.62577 -83.665583,-620.12658 -43.384705,-584.25308 C 1.3347052,-544.4267 2.8364034,-473.97502 -36.679461,-430.03152 C -80.169237,-381.66885 -156.70699,-380.16646 -204.31159,-423.32628 C -256.31892,-470.47776 -257.82185,-553.10449 -211.01683,-604.36898 C -160.20497,-660.02207 -71.486983,-661.52543 -16.563557,-611.07421 C -5.507577,-600.91848 3.9154866,-589.01019 11.284248,-575.93185"
       transform="matrix(0.3733036,0,0,-0.3733036,-332.37495,-309.35397)"
       inkscape:export-filename="/home/mred/Imágenes/svg/flor_nube.png"
       inkscape:export-xdpi="90"
       inkscape:export-ydpi="90" />
    <path
       sodipodi:type="spiral"
       style="fill:#ffffff;fill-opacity:1;stroke:#009dff;stroke-width:5;stroke-linecap:round;stroke-miterlimit:4;stroke-dasharray:none;stroke-opacity:1"
       id="path3944"
       sodipodi:cx="-25.714285"
       sodipodi:cy="-361.92352"
       sodipodi:expansion="1"
       sodipodi:revolution="1.21"
       sodipodi:radius="67.430992"
       sodipodi:argument="-23.241077"
       sodipodi:t0="0"
       d="M -25.714285,-361.92352 C -28.357994,-353.96899 -37.741154,-361.5627 -38.935248,-366.31754 C -42.171167,-379.20286 -28.253188,-388.50929 -16.926247,-388.36545 C 3.3349935,-388.10815 16.047742,-367.44528 13.948603,-348.74147 C 10.868033,-321.29287 -17.312177,-304.76636 -43.290361,-309.03967 C -71.267014,-313.64173 -91.282551,-338.88898 -92.982299,-366.60892"
       transform="matrix(-0.3528843,-0.1217713,-0.1217713,0.3528843,-376.34094,64.558877)"
       inkscape:export-filename="/home/mred/Imágenes/svg/flor_nube.png"
       inkscape:export-xdpi="90"
       inkscape:export-ydpi="90" />
    <path
       sodipodi:type="spiral"
       style="fill:#ffffff;fill-opacity:1;stroke:#009dff;stroke-width:5;stroke-linecap:round;stroke-miterlimit:4;stroke-dasharray:none;stroke-opacity:1"
       id="path3171"
       sodipodi:cx="631.3714"
       sodipodi:cy="-602.34729"
       sodipodi:expansion="1"
       sodipodi:revolution="5.3099999"
       sodipodi:radius="167.04073"
       sodipodi:argument="-21.710011"
       sodipodi:t0="0"
       d="M 631.3714,-602.34729 C 626.82544,-603.6601 630.89823,-609.12285 633.55338,-609.90298 C 640.74868,-612.01707 646.30994,-604.37541 646.48277,-597.98332 C 646.79192,-586.54938 635.42224,-578.91559 624.82545,-579.68023 C 609.27424,-580.80238 599.32078,-596.32664 601.14866,-611.07522 C 603.58493,-630.73276 623.39682,-643.06672 642.28131,-640.12572 C 666.04552,-636.42476 680.78472,-612.26894 676.70551,-589.25539 C 671.76505,-561.38291 643.2364,-544.22571 616.09752,-549.45749 C 584.11529,-555.62296 564.53255,-588.54124 570.92591,-619.80315 C 578.3073,-655.89627 615.62583,-677.90941 651.00924,-670.34846 C 691.21413,-661.75723 715.661,-620.0313 706.92825,-580.52746 C 697.13143,-536.21013 650.99304,-509.32714 607.36959,-519.23475 C 558.93928,-530.23407 529.61842,-580.78861 540.70317,-628.53108 C 552.90267,-681.07478 607.87616,-712.83488 659.73718,-700.5712 C 716.39459,-687.17331 750.59497,-627.77873 737.151,-571.79953 C 722.55612,-511.02813 658.73873,-474.38662 598.64166,-489.01201 C 533.75604,-504.80275 494.67273,-573.04431 510.48043,-637.25902 C 527.46613,-706.25903 600.13298,-747.7847 668.46511,-730.79394 C 741.57968,-712.61403 785.54817,-635.52098 767.37374,-563.0716 C 748.00024,-485.84234 666.48022,-439.43064 589.91373,-458.78927 C 508.56967,-479.35582 459.71444,-565.30347 480.25769,-645.98695 C 502.01685,-731.4459 592.39268,-782.74495 677.19304,-761.01669 C 697.43259,-755.83074 716.63627,-746.77673 733.53978,-734.49957"
       transform="matrix(0.3733036,0,0,0.3733036,-293.82289,91.972008)"
       inkscape:export-filename="/home/mred/Imágenes/svg/flor_nube.png"
       inkscape:export-xdpi="90"
       inkscape:export-ydpi="90" />
    <path
       sodipodi:type="spiral"
       style="fill:#ffffff;fill-opacity:1;stroke:#009dff;stroke-width:5;stroke-linecap:round;stroke-miterlimit:4;stroke-dasharray:none;stroke-opacity:1"
       id="path3167"
       sodipodi:cx="577.388"
       sodipodi:cy="-536.6283"
       sodipodi:expansion="1"
       sodipodi:revolution="3.51"
       sodipodi:radius="110.21404"
       sodipodi:argument="-17.506262"
       sodipodi:t0="0"
       d="M 577.388,-536.6283 C 578.45326,-532.02696 571.71105,-532.92221 569.74027,-534.85777 C 564.39959,-540.10301 568.35831,-548.66592 573.84695,-551.92376 C 583.66483,-557.75127 595.84676,-551.54989 600.33119,-541.93988 C 606.91228,-527.8368 598.2165,-511.61305 584.47011,-506.03737 C 566.14833,-498.60587 545.76504,-509.88247 539.14935,-527.77566 C 530.82417,-550.29241 544.71865,-574.88415 566.76484,-582.51468 C 593.46572,-591.75627 622.2911,-575.22492 630.92211,-549.02199 C 641.09346,-518.14274 621.91427,-485.06899 591.55222,-475.44645 C 556.49803,-464.33685 519.1665,-486.17079 508.55843,-520.69355 C 496.50486,-559.92049 520.99817,-601.51619 559.68273,-613.1056 C 603.08095,-626.10717 648.94534,-598.95125 661.51303,-556.1041 C 675.46556,-508.53564 645.64467,-458.39922 598.63433,-444.85553 C 546.8964,-429.94982 492.48542,-462.43747 477.96751,-513.61144 C 462.10689,-569.51826 497.26266,-628.20577 552.60061,-643.69652 C 554.8226,-644.31852 557.0642,-644.87045 559.32092,-645.35141"
       transform="matrix(0.3733036,0,0,0.3733036,-320.98457,56.048502)"
       inkscape:export-filename="/home/mred/Imágenes/svg/flor_nube.png"
       inkscape:export-xdpi="90"
       inkscape:export-ydpi="90" />
    <path
       sodipodi:type="spiral"
       style="fill:#ffffff;fill-opacity:1;stroke:#009dff;stroke-width:5;stroke-linecap:round;stroke-miterlimit:4;stroke-dasharray:none;stroke-opacity:1"
       id="path3161"
       sodipodi:cx="337.98322"
       sodipodi:cy="-510.81015"
       sodipodi:expansion="1"
       sodipodi:revolution="7.6100001"
       sodipodi:radius="145.17944"
       sodipodi:argument="-48.416496"
       sodipodi:t0="0"
       d="M 337.98322,-510.81015 C 337.1952,-508.05093 333.87506,-510.51108 333.39721,-512.11989 C 332.10227,-516.47966 336.72656,-519.86591 340.6027,-519.98215 C 347.53619,-520.19008 352.18599,-513.30865 351.74122,-506.88093 C 351.0885,-497.44798 341.6917,-491.38401 332.74425,-492.46614 C 320.8187,-493.90846 313.30342,-505.90121 315.05321,-517.35886 C 317.25514,-531.77714 331.87794,-540.75882 345.84166,-538.32616 C 362.7536,-535.37988 373.20949,-518.10952 370.08523,-501.64196 C 366.40339,-482.2355 346.47532,-470.30082 327.50528,-474.12214 C 305.60363,-478.53401 292.18717,-501.12624 296.7092,-522.59782 C 301.84742,-546.9952 327.10815,-561.89546 351.08063,-556.67017 C 377.97413,-550.80818 394.35965,-522.87589 388.42923,-496.40299 C 381.84535,-467.01306 351.23927,-449.14121 322.26632,-455.77813 C 290.3797,-463.0825 271.02069,-496.36406 278.36519,-527.83679 C 286.38896,-562.22029 322.34731,-583.06711 356.3196,-575.01417 C 393.20015,-566.27185 415.53527,-527.63569 406.77324,-491.16403 C 397.31305,-451.7863 355.99824,-427.96245 317.02735,-437.43413 C 275.15233,-447.61164 249.83942,-491.60577 260.02119,-533.07576 C 270.91556,-577.44816 317.58957,-604.25042 361.55856,-593.35818 C 408.42842,-581.74732 436.72027,-532.39296 425.11725,-485.92506 C 412.79022,-436.55767 360.75513,-406.77604 311.78839,-419.09012 C 259.92341,-432.13304 228.65182,-486.8492 241.67718,-538.31472 C 255.43577,-592.67733 312.83329,-625.43903 366.79753,-611.70218 C 423.65782,-597.22814 457.90975,-537.149 443.46125,-480.6861 C 428.27192,-421.32809 365.51096,-385.58581 306.54942,-400.74611 C 244.69366,-416.65058 207.46094,-482.09356 223.33318,-543.55369 C 239.95264,-607.90723 308.07781,-646.63048 372.03649,-630.04619 C 438.88784,-612.71184 479.1017,-541.90434 461.80526,-475.44713 C 443.75613,-406.09795 370.26617,-364.39341 301.31045,-382.40211 C 229.46342,-401.16591 186.26814,-477.33846 204.98917,-548.79265 C 224.46757,-623.13756 303.32282,-667.82364 377.27546,-648.3902 C 409.53339,-639.91338 438.24942,-620.04809 457.68556,-592.95891"
       transform="matrix(-0.1751762,-0.3296497,0.3296497,-0.1751762,65.033431,-107.24935)"
       inkscape:export-filename="/home/mred/Imágenes/svg/flor_nube.png"
       inkscape:export-xdpi="90"
       inkscape:export-ydpi="90" />
    <path
       sodipodi:type="spiral"
       style="fill:#ffffff;fill-opacity:1;stroke:#009dff;stroke-width:5;stroke-linecap:round;stroke-miterlimit:4;stroke-dasharray:none;stroke-opacity:1"
       id="path3165"
       sodipodi:cx="610.24744"
       sodipodi:cy="-447.43829"
       sodipodi:expansion="1"
       sodipodi:revolution="2.6099999"
       sodipodi:radius="114.72041"
       sodipodi:argument="-17.432999"
       sodipodi:t0="0"
       d="M 610.24744,-447.43829 C 611.26313,-440.9054 601.94234,-442.84606 599.38934,-445.75014 C 592.47088,-453.62003 598.87487,-465.16874 606.87113,-469.15449 C 621.17459,-476.28407 637.54586,-466.37838 642.82173,-452.50275 C 650.56427,-432.13969 636.76212,-410.38138 617.00004,-404.0059 C 590.6603,-395.50839 563.35946,-413.33973 555.95695,-438.99754 C 546.64164,-471.28528 568.5589,-504.19313 600.11853,-512.58688 C 638.34147,-522.75283 676.88955,-496.72055 686.25412,-459.25535 C 697.28994,-415.1039 667.12582,-370.89615 623.75264,-360.57351 C 573.6766,-348.65562 523.79675,-382.96219 512.52456,-432.24493 C 499.71638,-488.24312 538.17251,-543.8035 593.36593,-556.01927 C 618.79303,-561.64696 645.80396,-557.93674 668.92507,-546.01673"
       transform="matrix(0,0.3733036,0.3733036,0,62.466073,-316.01176)"
       inkscape:export-filename="/home/mred/Imágenes/svg/flor_nube.png"
       inkscape:export-xdpi="90"
       inkscape:export-ydpi="90" />
    <path
       sodipodi:type="spiral"
       style="fill:#ffffff;fill-opacity:1;stroke:#009dff;stroke-width:8.91833305;stroke-linecap:round;stroke-miterlimit:4;stroke-dasharray:none;stroke-opacity:1"
       id="path2389"
       sodipodi:cx="316.85925"
       sodipodi:cy="-294.87643"
       sodipodi:expansion="1"
       sodipodi:revolution="6.21"
       sodipodi:radius="215.37172"
       sodipodi:argument="-48.171261"
       sodipodi:t0="0"
       d="M 316.85925,-294.87643 C 314.25173,-290.35826 309.48238,-296.16222 309.34975,-299.21031 C 308.99032,-307.47046 318.64,-311.40124 325.52701,-309.89544 C 337.84624,-307.20192 343.0091,-293.01402 339.38776,-281.8748 C 334.0733,-265.52755 314.82529,-258.98095 299.52375,-264.83842 C 279.1292,-272.64552 271.16891,-297.11215 279.31174,-316.54582 C 289.55865,-341.00111 319.31069,-350.38664 342.86251,-339.93345 C 371.38693,-327.27324 382.20373,-292.20149 369.42577,-264.5393 C 354.3674,-231.94035 313.95597,-219.68866 282.18824,-234.80041 C 245.51114,-252.24752 231.82216,-298.0113 249.27372,-333.88133 C 269.10331,-374.63913 320.22796,-389.76707 360.19802,-369.97147 C 405.03838,-347.76379 421.60649,-291.27221 399.46379,-247.20379 C 374.88119,-198.27949 313.01826,-180.27029 264.85273,-204.7624 C 211.84343,-231.71755 192.39244,-298.95516 219.23571,-351.21683 C 248.56159,-408.31196 321.17648,-429.2053 377.53353,-400.00948 C 438.71514,-368.3143 461.05127,-290.3201 429.5018,-229.86828 C 395.43846,-164.59965 312.0633,-140.82036 247.51722,-174.72438 C 178.16113,-211.15496 152.93838,-299.91242 189.1977,-368.55234 C 227.99475,-441.99625 322.13561,-468.66272 394.86904,-430.04749 C 472.40108,-388.8846 500.51147,-289.35941 459.53981,-212.53277 C 416.01162,-130.91234 311.10131,-101.35785 230.18172,-144.68637 C 144.47267,-190.57942 113.47392,-300.87551 159.15969,-385.88785 C 207.4172,-475.68569 323.09965,-508.12884 412.20454,-460.0855 C 506.09135,-409.46386 539.97902,-288.39456 489.57782,-195.19727 C 436.59235,-97.221347 310.13575,-61.889069 212.84621,-114.64836 C 128.6977,-160.28138 86.137191,-260.25049 109.41124,-352.75822"
       transform="matrix(0.20929,0,0,0.20929,-217.74278,3.1095565)"
       inkscape:export-filename="/home/mred/Imágenes/svg/flor_nube.png"
       inkscape:export-xdpi="90"
       inkscape:export-ydpi="90" />
    <path
       sodipodi:type="spiral"
       style="fill:#ffffff;fill-opacity:1;stroke:#009dff;stroke-width:5;stroke-linecap:round;stroke-miterlimit:4;stroke-dasharray:none;stroke-opacity:1"
       id="path3946"
       sodipodi:cx="128.57143"
       sodipodi:cy="-364.78067"
       sodipodi:expansion="1"
       sodipodi:revolution="5.6100001"
       sodipodi:radius="189.90868"
       sodipodi:argument="-6.2831855"
       sodipodi:t0="0"
       d="M 128.57143,-364.78067 C 133.66325,-364.78067 131.08356,-357.91699 128.57143,-356.31772 C 121.76372,-351.98379 113.73265,-358.22377 111.64552,-364.78067 C 107.91214,-376.50942 117.38757,-387.79624 128.57142,-390.16953 C 144.98417,-393.65243 159.9096,-380.57432 162.42324,-364.78068 C 165.77353,-343.73023 148.97336,-325.06356 128.57143,-322.4659 C 102.89769,-319.19702 80.447418,-339.77006 77.793707,-364.78066 C 74.579707,-395.07185 98.951699,-421.32755 128.57142,-424.02134 C 163.47723,-427.19588 193.55118,-399.00983 196.27505,-364.78068 C 199.41987,-325.26177 167.41023,-291.36138 128.57144,-288.61409 C 84.44034,-285.49245 46.707923,-321.33209 43.941894,-364.78066 C 40.838827,-413.52338 80.512981,-455.09179 128.57141,-457.87316 C 181.92538,-460.961 227.33271,-417.44904 230.12687,-364.78069 C 233.20201,-306.81574 185.84977,-257.56725 128.57145,-254.76228 C 65.995706,-251.69789 12.904329,-302.89233 10.09008,-364.78065 C 7.0349125,-431.96704 62.073064,-488.90268 128.5714,-491.72497 C 200.36835,-494.77214 261.14935,-435.88907 263.97868,-364.78069 C 267.01885,-288.37328 204.28987,-223.746 128.57145,-220.91046 C 47.553636,-217.87648 -20.92068,-284.45218 -23.761733,-364.78064 C -26.790225,-450.40881 43.632876,-522.73079 128.5714,-525.57678 C 218.80988,-528.60036 294.98006,-454.32928 297.83049,-364.7807 C 300.84964,-269.93194 222.7301,-189.91311 128.57146,-187.05865 C 29.112443,-184.04351 -54.755433,-266.01193 -57.613546,-364.78064 C -58.87258,-408.28948 -44.524779,-451.53935 -17.755643,-485.83311"
       transform="matrix(0.1780248,0.3281201,0.3281201,-0.1780248,-136.86083,-133.14113)"
       inkscape:export-filename="/home/mred/Imágenes/svg/flor_nube.png"
       inkscape:export-xdpi="90"
       inkscape:export-ydpi="90" />
    <path
       sodipodi:type="spiral"
       style="fill:#ffffff;fill-opacity:1;stroke:#009dff;stroke-width:5;stroke-linecap:round;stroke-miterlimit:4;stroke-dasharray:none;stroke-opacity:1"
       id="path3163"
       sodipodi:cx="248.7932"
       sodipodi:cy="-700.92572"
       sodipodi:expansion="1"
       sodipodi:revolution="2.6099999"
       sodipodi:radius="83.247833"
       sodipodi:argument="-47.109474"
       sodipodi:t0="0"
       d="M 248.7932,-700.92572 C 243.99609,-700.99488 246.5197,-707.42624 248.90814,-708.89882 C 255.38068,-712.88943 262.86214,-706.90155 264.7394,-700.69583 C 268.09738,-689.59525 259.0171,-679.09043 248.44836,-677.00641 C 232.93831,-673.94804 219.05442,-686.47188 216.90079,-701.3855 C 214.03034,-721.26301 230.11162,-738.62104 249.36792,-740.79123 C 273.60002,-743.5222 294.4714,-723.83503 296.63181,-700.23605 C 299.24835,-671.65452 275.93044,-647.24957 247.98858,-645.114 C 215.06006,-642.59732 187.10968,-669.56038 185.00838,-701.84528 C 182.58235,-739.11948 213.19966,-770.62289 249.8277,-772.68364 C 291.44682,-775.0252 326.50843,-740.74752 328.52422,-699.77627 C 329.45288,-680.90119 323.50862,-662.03051 312.1652,-646.94247"
       transform="matrix(0.3733036,0,0,0.3733036,-327.11785,87.591092)"
       inkscape:export-filename="/home/mred/Imágenes/svg/flor_nube.png"
       inkscape:export-xdpi="90"
       inkscape:export-ydpi="90" />
    <path
       sodipodi:type="spiral"
       style="fill:#ffffff;fill-opacity:1;stroke:#009dff;stroke-width:5;stroke-linecap:round;stroke-miterlimit:4;stroke-dasharray:none;stroke-opacity:1"
       id="path3169"
       sodipodi:cx="633.71851"
       sodipodi:cy="-754.90912"
       sodipodi:expansion="1"
       sodipodi:revolution="3.51"
       sodipodi:radius="61.429634"
       sodipodi:argument="-22.8664"
       sodipodi:t0="0"
       d="M 633.71851,-754.90912 C 632.03161,-752.88816 630.16204,-756.18595 630.35955,-757.71285 C 630.89476,-761.85065 636.03207,-762.97092 639.32596,-761.62704 C 645.21797,-759.22315 646.55857,-751.72308 643.79539,-746.49793 C 639.7403,-738.82982 629.60487,-737.2386 622.50359,-741.47328 C 613.0387,-747.11744 611.19567,-759.96962 616.9237,-768.92776 C 624.13185,-780.20068 639.73497,-782.29549 650.54088,-775.06288 C 663.62828,-766.30322 665.97491,-747.93157 657.23123,-735.28301 C 646.92711,-720.37713 625.77668,-717.77862 611.28867,-728.03743 C 594.56169,-739.88165 591.71119,-763.81734 603.48786,-780.14268 C 616.86927,-798.69257 643.59462,-801.79515 661.7558,-788.49872 C 682.12989,-773.58214 685.48464,-744.06402 670.66707,-724.0681 C 654.21677,-701.86884 621.9036,-698.26186 600.07376,-714.60159 C 576.04859,-732.58453 572.18932,-767.69447 590.05202,-791.3576 C 609.56675,-817.20923 647.47479,-821.32085 672.97071,-801.93457 C 673.99445,-801.15615 674.99364,-800.34545 675.96637,-799.50416"
       transform="matrix(-0.2173847,0.303479,-0.303479,-0.2173847,-207.68313,-564.16226)"
       inkscape:transform-center-x="-5.2570698"
       inkscape:export-filename="/home/mred/Imágenes/svg/flor_nube.png"
       inkscape:export-xdpi="90"
       inkscape:export-ydpi="90" />
    <path
       sodipodi:type="spiral"
       style="fill:#ffffff;fill-opacity:1;stroke:#009dff;stroke-width:5;stroke-linecap:round;stroke-miterlimit:4;stroke-dasharray:none;stroke-opacity:1"
       id="path3173"
       sodipodi:cx="844.95801"
       sodipodi:cy="-792.46283"
       sodipodi:expansion="1"
       sodipodi:revolution="2.4100001"
       sodipodi:radius="52.114201"
       sodipodi:argument="-32.738228"
       sodipodi:t0="0"
       d="M 844.95801,-792.46283 C 845.75797,-795.61552 849.60245,-792.93992 850.19799,-791.13324 C 851.81188,-786.23724 846.68655,-782.24501 842.29883,-781.98286 C 834.45023,-781.51395 828.95046,-789.15407 829.23806,-796.4516 C 829.66012,-807.16102 840.10255,-814.3477 850.27637,-813.42276 C 863.83647,-812.18997 872.75483,-798.85519 871.15793,-785.81488 C 869.14838,-769.40497 852.88313,-758.73667 836.98047,-761.02293 C 817.72021,-763.79189 805.29256,-783.00719 808.27812,-801.76996 C 811.79651,-823.88124 833.97322,-838.07381 855.59473,-834.3827 C 880.55762,-830.12116 896.51868,-804.97584 892.11786,-780.49652 C 889.08051,-763.60142 877.06244,-749.33379 861.20247,-742.94508"
       transform="matrix(0.1818455,0.3260181,-0.3260181,0.1818455,-419.77449,-328.42086)"
       inkscape:transform-center-x="15.786748"
       inkscape:transform-center-y="-12.266527"
       inkscape:export-filename="/home/mred/Imágenes/svg/flor_nube.png"
       inkscape:export-xdpi="90"
       inkscape:export-ydpi="90" />
    <g
       id="g3706"
       inkscape:export-filename="/home/mred/Imágenes/svg/flor_nube.png"
       inkscape:export-xdpi="90"
       inkscape:export-ydpi="90"
       transform="matrix(0.3733036,0,0,0.3733036,-332.37495,78.829262)">
      <path
         sodipodi:nodetypes="cscsscsscsscsscc"
         id="path3553"
         d="M -379.0362,-383.34901 C -418.2332,-383.34901 -450.06746,-352.9852 -450.06745,-315.56776 C -450.06745,-304.26632 -447.13608,-293.62797 -442.00495,-284.25526 C -479.44841,-282.37924 -509.25498,-252.74457 -509.25495,-216.53651 C -509.25495,-179.11907 -477.42071,-148.75525 -438.2237,-148.75525 C -429.63502,-148.75525 -421.40878,-150.24079 -413.7862,-152.9115 C -416.60441,-145.61162 -418.12995,-137.70415 -418.12995,-129.474 C -418.12995,-92.056575 -386.32694,-61.692755 -347.12995,-61.692755 C -310.88163,-61.692755 -280.95957,-87.661775 -276.6612,-121.1615 C -265.17398,-113.53322 -251.23633,-109.0365 -236.19245,-109.0365 C -196.99545,-109.0365 -165.1612,-139.40031 -165.1612,-176.81775 C -165.1612,-208.70863 -188.28585,-235.48063 -219.37995,-242.69276 C -204.38629,-255.12398 -194.87995,-273.41726 -194.87995,-293.84901 C -194.87995,-331.26645 -226.7142,-361.63025 -265.9112,-361.63026 C -284.62551,-361.63026 -301.62845,-354.71847 -314.31745,-343.41151 C -325.45555,-366.94834 -350.23798,-383.34901 -379.0362,-383.34901 z"
         style="opacity:1;fill:#ffffff;fill-opacity:1;stroke:#fd0100;stroke-width:12.30000019;stroke-linecap:round;stroke-linejoin:round;stroke-miterlimit:4;stroke-dasharray:none;stroke-opacity:1" />
      <path
         transform="translate(391.98731,419.70358)"
         d="M -643.53226,-588.55999 C -575.31581,-686.43578 -862.06642,-587.00117 -747.90098,-552.36875 C -633.73553,-517.73633 -816.91427,-759.72538 -814.5726,-640.44559 C -812.23093,-521.16579 -638.69101,-770.15785 -751.40922,-731.07131 C -864.12743,-691.98476 -573.69512,-603.88127 -645.70048,-699.00425 C -717.70583,-794.12723 -711.74872,-490.68421 -643.53226,-588.55999 z"
         inkscape:randomized="0"
         inkscape:rounded="-1.08"
         inkscape:flatsided="true"
         sodipodi:arg2="1.2370078"
         sodipodi:arg1="0.60868931"
         sodipodi:r2="159.26711"
         sodipodi:r1="93.967598"
         sodipodi:cy="-642.28998"
         sodipodi:cx="-720.62311"
         sodipodi:sides="5"
         id="path3704"
         style="opacity:1;fill:none;fill-opacity:1;stroke:#fd0100;stroke-width:12.30000019;stroke-linecap:round;stroke-linejoin:round;stroke-miterlimit:4;stroke-dasharray:none;stroke-opacity:1"
         sodipodi:type="star" />
      <path
         transform="translate(31.554145,-93.067758)"
         d="M -296.96007,-131.51866 A 63.351482,63.351482 0 1 1 -423.66304,-131.51866 A 63.351482,63.351482 0 1 1 -296.96007,-131.51866 z"
         sodipodi:ry="63.351482"
         sodipodi:rx="63.351482"
         sodipodi:cy="-131.51866"
         sodipodi:cx="-360.31155"
         id="path3562"
         style="fill:url(#radialGradient3751);fill-opacity:1;stroke:#f0e31e;stroke-width:5;stroke-linecap:round;stroke-miterlimit:4;stroke-dasharray:none;stroke-opacity:1"
         sodipodi:type="arc" />
    </g>
    <g
       id="g3711"
       transform="matrix(0.2147693,-0.1070169,0.1070169,0.2147693,-272.00186,21.716761)"
       inkscape:export-filename="/home/mred/Imágenes/svg/flor_nube.png"
       inkscape:export-xdpi="90"
       inkscape:export-ydpi="90">
      <path
         style="opacity:1;fill:#ffffff;fill-opacity:1;stroke:#fd0100;stroke-width:12.30000019;stroke-linecap:round;stroke-linejoin:round;stroke-miterlimit:4;stroke-dasharray:none;stroke-opacity:1"
         d="M -379.0362,-383.34901 C -418.2332,-383.34901 -450.06746,-352.9852 -450.06745,-315.56776 C -450.06745,-304.26632 -447.13608,-293.62797 -442.00495,-284.25526 C -479.44841,-282.37924 -509.25498,-252.74457 -509.25495,-216.53651 C -509.25495,-179.11907 -477.42071,-148.75525 -438.2237,-148.75525 C -429.63502,-148.75525 -421.40878,-150.24079 -413.7862,-152.9115 C -416.60441,-145.61162 -418.12995,-137.70415 -418.12995,-129.474 C -418.12995,-92.056575 -386.32694,-61.692755 -347.12995,-61.692755 C -310.88163,-61.692755 -280.95957,-87.661775 -276.6612,-121.1615 C -265.17398,-113.53322 -251.23633,-109.0365 -236.19245,-109.0365 C -196.99545,-109.0365 -165.1612,-139.40031 -165.1612,-176.81775 C -165.1612,-208.70863 -188.28585,-235.48063 -219.37995,-242.69276 C -204.38629,-255.12398 -194.87995,-273.41726 -194.87995,-293.84901 C -194.87995,-331.26645 -226.7142,-361.63025 -265.9112,-361.63026 C -284.62551,-361.63026 -301.62845,-354.71847 -314.31745,-343.41151 C -325.45555,-366.94834 -350.23798,-383.34901 -379.0362,-383.34901 z"
         id="path3713"
         sodipodi:nodetypes="cscsscsscsscsscc" />
      <path
         sodipodi:type="star"
         style="opacity:1;fill:none;fill-opacity:1;stroke:#fd0100;stroke-width:12.30000019;stroke-linecap:round;stroke-linejoin:round;stroke-miterlimit:4;stroke-dasharray:none;stroke-opacity:1"
         id="path3715"
         sodipodi:sides="5"
         sodipodi:cx="-720.62311"
         sodipodi:cy="-642.28998"
         sodipodi:r1="93.967598"
         sodipodi:r2="159.26711"
         sodipodi:arg1="0.60868931"
         sodipodi:arg2="1.2370078"
         inkscape:flatsided="true"
         inkscape:rounded="-1.08"
         inkscape:randomized="0"
         d="M -643.53226,-588.55999 C -575.31581,-686.43578 -862.06642,-587.00117 -747.90098,-552.36875 C -633.73553,-517.73633 -816.91427,-759.72538 -814.5726,-640.44559 C -812.23093,-521.16579 -638.69101,-770.15785 -751.40922,-731.07131 C -864.12743,-691.98476 -573.69512,-603.88127 -645.70048,-699.00425 C -717.70583,-794.12723 -711.74872,-490.68421 -643.53226,-588.55999 z"
         transform="translate(391.98731,419.70358)" />
      <path
         sodipodi:type="arc"
         style="fill:url(#radialGradient3719);fill-opacity:1;stroke:#f0e31e;stroke-width:5;stroke-linecap:round;stroke-miterlimit:4;stroke-dasharray:none;stroke-opacity:1"
         id="path3717"
         sodipodi:cx="-360.31155"
         sodipodi:cy="-131.51866"
         sodipodi:rx="63.351482"
         sodipodi:ry="63.351482"
         d="M -296.96007,-131.51866 A 63.351482,63.351482 0 1 1 -423.66304,-131.51866 A 63.351482,63.351482 0 1 1 -296.96007,-131.51866 z"
         transform="translate(31.554145,-93.067758)" />
    </g>
    <g
       transform="matrix(0.2862485,-0.1426342,0.1426342,0.2862485,-284.49672,87.98385)"
       id="g3721"
       inkscape:export-filename="/home/mred/Imágenes/svg/flor_nube.png"
       inkscape:export-xdpi="90"
       inkscape:export-ydpi="90">
      <path
         sodipodi:nodetypes="cscsscsscsscsscc"
         id="path3723"
         d="M -379.0362,-383.34901 C -418.2332,-383.34901 -450.06746,-352.9852 -450.06745,-315.56776 C -450.06745,-304.26632 -447.13608,-293.62797 -442.00495,-284.25526 C -479.44841,-282.37924 -509.25498,-252.74457 -509.25495,-216.53651 C -509.25495,-179.11907 -477.42071,-148.75525 -438.2237,-148.75525 C -429.63502,-148.75525 -421.40878,-150.24079 -413.7862,-152.9115 C -416.60441,-145.61162 -418.12995,-137.70415 -418.12995,-129.474 C -418.12995,-92.056575 -386.32694,-61.692755 -347.12995,-61.692755 C -310.88163,-61.692755 -280.95957,-87.661775 -276.6612,-121.1615 C -265.17398,-113.53322 -251.23633,-109.0365 -236.19245,-109.0365 C -196.99545,-109.0365 -165.1612,-139.40031 -165.1612,-176.81775 C -165.1612,-208.70863 -188.28585,-235.48063 -219.37995,-242.69276 C -204.38629,-255.12398 -194.87995,-273.41726 -194.87995,-293.84901 C -194.87995,-331.26645 -226.7142,-361.63025 -265.9112,-361.63026 C -284.62551,-361.63026 -301.62845,-354.71847 -314.31745,-343.41151 C -325.45555,-366.94834 -350.23798,-383.34901 -379.0362,-383.34901 z"
         style="opacity:1;fill:#ffffff;fill-opacity:1;stroke:#fd0100;stroke-width:12.30000019;stroke-linecap:round;stroke-linejoin:round;stroke-miterlimit:4;stroke-dasharray:none;stroke-opacity:1" />
      <path
         transform="translate(391.98731,419.70358)"
         d="M -643.53226,-588.55999 C -575.31581,-686.43578 -862.06642,-587.00117 -747.90098,-552.36875 C -633.73553,-517.73633 -816.91427,-759.72538 -814.5726,-640.44559 C -812.23093,-521.16579 -638.69101,-770.15785 -751.40922,-731.07131 C -864.12743,-691.98476 -573.69512,-603.88127 -645.70048,-699.00425 C -717.70583,-794.12723 -711.74872,-490.68421 -643.53226,-588.55999 z"
         inkscape:randomized="0"
         inkscape:rounded="-1.08"
         inkscape:flatsided="true"
         sodipodi:arg2="1.2370078"
         sodipodi:arg1="0.60868931"
         sodipodi:r2="159.26711"
         sodipodi:r1="93.967598"
         sodipodi:cy="-642.28998"
         sodipodi:cx="-720.62311"
         sodipodi:sides="5"
         id="path3725"
         style="opacity:1;fill:none;fill-opacity:1;stroke:#fd0100;stroke-width:12.30000019;stroke-linecap:round;stroke-linejoin:round;stroke-miterlimit:4;stroke-dasharray:none;stroke-opacity:1"
         sodipodi:type="star" />
      <path
         transform="translate(31.554145,-93.067758)"
         d="M -296.96007,-131.51866 A 63.351482,63.351482 0 1 1 -423.66304,-131.51866 A 63.351482,63.351482 0 1 1 -296.96007,-131.51866 z"
         sodipodi:ry="63.351482"
         sodipodi:rx="63.351482"
         sodipodi:cy="-131.51866"
         sodipodi:cx="-360.31155"
         id="path3727"
         style="fill:url(#radialGradient3729);fill-opacity:1;stroke:#f0e31e;stroke-width:5;stroke-linecap:round;stroke-miterlimit:4;stroke-dasharray:none;stroke-opacity:1"
         sodipodi:type="arc" />
    </g>
    <g
       id="g3731"
       transform="matrix(0.14329,-7.1399697e-2,7.1399697e-2,0.14329,-438.35512,89.955293)"
       inkscape:export-filename="/home/mred/Imágenes/svg/flor_nube.png"
       inkscape:export-xdpi="90"
       inkscape:export-ydpi="90">
      <path
         style="opacity:1;fill:#ffffff;fill-opacity:1;stroke:#fd0100;stroke-width:12.30000019;stroke-linecap:round;stroke-linejoin:round;stroke-miterlimit:4;stroke-dasharray:none;stroke-opacity:1"
         d="M -379.0362,-383.34901 C -418.2332,-383.34901 -450.06746,-352.9852 -450.06745,-315.56776 C -450.06745,-304.26632 -447.13608,-293.62797 -442.00495,-284.25526 C -479.44841,-282.37924 -509.25498,-252.74457 -509.25495,-216.53651 C -509.25495,-179.11907 -477.42071,-148.75525 -438.2237,-148.75525 C -429.63502,-148.75525 -421.40878,-150.24079 -413.7862,-152.9115 C -416.60441,-145.61162 -418.12995,-137.70415 -418.12995,-129.474 C -418.12995,-92.056575 -386.32694,-61.692755 -347.12995,-61.692755 C -310.88163,-61.692755 -280.95957,-87.661775 -276.6612,-121.1615 C -265.17398,-113.53322 -251.23633,-109.0365 -236.19245,-109.0365 C -196.99545,-109.0365 -165.1612,-139.40031 -165.1612,-176.81775 C -165.1612,-208.70863 -188.28585,-235.48063 -219.37995,-242.69276 C -204.38629,-255.12398 -194.87995,-273.41726 -194.87995,-293.84901 C -194.87995,-331.26645 -226.7142,-361.63025 -265.9112,-361.63026 C -284.62551,-361.63026 -301.62845,-354.71847 -314.31745,-343.41151 C -325.45555,-366.94834 -350.23798,-383.34901 -379.0362,-383.34901 z"
         id="path3733"
         sodipodi:nodetypes="cscsscsscsscsscc" />
      <path
         sodipodi:type="star"
         style="opacity:1;fill:none;fill-opacity:1;stroke:#fd0100;stroke-width:12.30000019;stroke-linecap:round;stroke-linejoin:round;stroke-miterlimit:4;stroke-dasharray:none;stroke-opacity:1"
         id="path3735"
         sodipodi:sides="5"
         sodipodi:cx="-720.62311"
         sodipodi:cy="-642.28998"
         sodipodi:r1="93.967598"
         sodipodi:r2="159.26711"
         sodipodi:arg1="0.60868931"
         sodipodi:arg2="1.2370078"
         inkscape:flatsided="true"
         inkscape:rounded="-1.08"
         inkscape:randomized="0"
         d="M -643.53226,-588.55999 C -575.31581,-686.43578 -862.06642,-587.00117 -747.90098,-552.36875 C -633.73553,-517.73633 -816.91427,-759.72538 -814.5726,-640.44559 C -812.23093,-521.16579 -638.69101,-770.15785 -751.40922,-731.07131 C -864.12743,-691.98476 -573.69512,-603.88127 -645.70048,-699.00425 C -717.70583,-794.12723 -711.74872,-490.68421 -643.53226,-588.55999 z"
         transform="translate(391.98731,419.70358)" />
      <path
         sodipodi:type="arc"
         style="fill:url(#radialGradient3739);fill-opacity:1;stroke:#f0e31e;stroke-width:5;stroke-linecap:round;stroke-miterlimit:4;stroke-dasharray:none;stroke-opacity:1"
         id="path3737"
         sodipodi:cx="-360.31155"
         sodipodi:cy="-131.51866"
         sodipodi:rx="63.351482"
         sodipodi:ry="63.351482"
         d="M -296.96007,-131.51866 A 63.351482,63.351482 0 1 1 -423.66304,-131.51866 A 63.351482,63.351482 0 1 1 -296.96007,-131.51866 z"
         transform="translate(31.554145,-93.067758)" />
    </g>
    <g
       transform="matrix(4.6271808e-2,-9.6204828e-2,9.6204828e-2,4.6271808e-2,-296.42622,66.368374)"
       id="g3741"
       inkscape:export-filename="/home/mred/Imágenes/svg/flor_nube.png"
       inkscape:export-xdpi="90"
       inkscape:export-ydpi="90">
      <path
         sodipodi:nodetypes="cscsscsscsscsscc"
         id="path3743"
         d="M -379.0362,-383.34901 C -418.2332,-383.34901 -450.06746,-352.9852 -450.06745,-315.56776 C -450.06745,-304.26632 -447.13608,-293.62797 -442.00495,-284.25526 C -479.44841,-282.37924 -509.25498,-252.74457 -509.25495,-216.53651 C -509.25495,-179.11907 -477.42071,-148.75525 -438.2237,-148.75525 C -429.63502,-148.75525 -421.40878,-150.24079 -413.7862,-152.9115 C -416.60441,-145.61162 -418.12995,-137.70415 -418.12995,-129.474 C -418.12995,-92.056575 -386.32694,-61.692755 -347.12995,-61.692755 C -310.88163,-61.692755 -280.95957,-87.661775 -276.6612,-121.1615 C -265.17398,-113.53322 -251.23633,-109.0365 -236.19245,-109.0365 C -196.99545,-109.0365 -165.1612,-139.40031 -165.1612,-176.81775 C -165.1612,-208.70863 -188.28585,-235.48063 -219.37995,-242.69276 C -204.38629,-255.12398 -194.87995,-273.41726 -194.87995,-293.84901 C -194.87995,-331.26645 -226.7142,-361.63025 -265.9112,-361.63026 C -284.62551,-361.63026 -301.62845,-354.71847 -314.31745,-343.41151 C -325.45555,-366.94834 -350.23798,-383.34901 -379.0362,-383.34901 z"
         style="opacity:1;fill:#ffffff;fill-opacity:1;stroke:#fd0100;stroke-width:12.30000019;stroke-linecap:round;stroke-linejoin:round;stroke-miterlimit:4;stroke-dasharray:none;stroke-opacity:1" />
      <path
         transform="translate(391.98731,419.70358)"
         d="M -643.53226,-588.55999 C -575.31581,-686.43578 -862.06642,-587.00117 -747.90098,-552.36875 C -633.73553,-517.73633 -816.91427,-759.72538 -814.5726,-640.44559 C -812.23093,-521.16579 -638.69101,-770.15785 -751.40922,-731.07131 C -864.12743,-691.98476 -573.69512,-603.88127 -645.70048,-699.00425 C -717.70583,-794.12723 -711.74872,-490.68421 -643.53226,-588.55999 z"
         inkscape:randomized="0"
         inkscape:rounded="-1.08"
         inkscape:flatsided="true"
         sodipodi:arg2="1.2370078"
         sodipodi:arg1="0.60868931"
         sodipodi:r2="159.26711"
         sodipodi:r1="93.967598"
         sodipodi:cy="-642.28998"
         sodipodi:cx="-720.62311"
         sodipodi:sides="5"
         id="path3745"
         style="opacity:1;fill:none;fill-opacity:1;stroke:#fd0100;stroke-width:12.30000019;stroke-linecap:round;stroke-linejoin:round;stroke-miterlimit:4;stroke-dasharray:none;stroke-opacity:1"
         sodipodi:type="star" />
      <path
         transform="translate(31.554145,-93.067758)"
         d="M -296.96007,-131.51866 A 63.351482,63.351482 0 1 1 -423.66304,-131.51866 A 63.351482,63.351482 0 1 1 -296.96007,-131.51866 z"
         sodipodi:ry="63.351482"
         sodipodi:rx="63.351482"
         sodipodi:cy="-131.51866"
         sodipodi:cx="-360.31155"
         id="path3747"
         style="fill:url(#radialGradient3749);fill-opacity:1;stroke:#f0e31e;stroke-width:5;stroke-linecap:round;stroke-miterlimit:4;stroke-dasharray:none;stroke-opacity:1"
         sodipodi:type="arc" />
    </g>
  </g>
</svg>
