<?xml version="1.0" encoding="UTF-8" standalone="no"?>
<!-- Created with Inkscape (http://www.inkscape.org/) -->

<svg
   xmlns:dc="http://purl.org/dc/elements/1.1/"
   xmlns:cc="http://creativecommons.org/ns#"
   xmlns:rdf="http://www.w3.org/1999/02/22-rdf-syntax-ns#"
   xmlns:svg="http://www.w3.org/2000/svg"
   xmlns="http://www.w3.org/2000/svg"
   xmlns:sodipodi="http://sodipodi.sourceforge.net/DTD/sodipodi-0.dtd"
   xmlns:inkscape="http://www.inkscape.org/namespaces/inkscape"
   id="svg29947"
   version="1.1"
   inkscape:version="0.48.1 "
   width="282.5"
   height="271.25"
   xml:space="preserve"
   sodipodi:docname="Duck_69.pdf"><metadata
     id="metadata29953"><rdf:RDF><cc:Work
         rdf:about=""><dc:format>image/svg+xml</dc:format><dc:type
           rdf:resource="http://purl.org/dc/dcmitype/StillImage" /><dc:title></dc:title></cc:Work></rdf:RDF></metadata><defs
     id="defs29951" /><sodipodi:namedview
     pagecolor="#ffffff"
     bordercolor="#666666"
     borderopacity="1"
     objecttolerance="10"
     gridtolerance="10"
     guidetolerance="10"
     inkscape:pageopacity="0"
     inkscape:pageshadow="2"
     inkscape:window-width="640"
     inkscape:window-height="480"
     id="namedview29949"
     showgrid="false"
     inkscape:zoom="1.0728111"
     inkscape:cx="141.25"
     inkscape:cy="135.625"
     inkscape:window-x="393"
     inkscape:window-y="113"
     inkscape:window-maximized="0"
     inkscape:current-layer="g29955" /><g
     id="g29955"
     inkscape:groupmode="layer"
     inkscape:label="Duck_69"
     transform="matrix(1.25,0,0,-1.25,0,271.25)"><g
       id="g29957"
       transform="scale(0.24,0.24)"><path
         d="m 519.66,888.941 2.281,-24.363 0,-13.398 -3.043,-11.723 1.524,-14.164 0.758,-0.758 1.523,7.918 1.524,17.965 3.957,9.441 3.961,22.84 7.765,13.399 1.52,0.761 4.875,-1.675 3.043,-0.762 3.199,-3.957 0,-11.727 -2.438,-4.718 0,-3.957 -2.285,-3.961 2.285,-8.528 0.762,0 -2.285,-4.109 0,-11.727 -2.281,-7.765 0.758,-9.438 0.761,-0.762 3.961,4.567 15.68,26.801 14.16,16.593 20.402,12.489 6.395,1.523 3.043,-3.047 -6.395,-18.883 0,-1.671 0.762,-0.762 -2.281,-1.524 -0.762,-3.199 -9.441,-13.246 -6.243,-14.312 -9.437,-16.446 -1.523,-11.722 -5.481,-19.493 -0.762,-23.601 2.286,-4.871 -3.047,-25.887 0,-12.484 1.523,-21.164 0,-10.204 -4.113,-9.593 -23.446,-26.645 -8.679,-14.16 -1.52,-7.766 -0.761,0 -0.762,-5.484 1.523,-25.121 6.242,-14.16 2.282,-4.723 19.793,0.914 7.004,-5.633 10.964,-0.761 3.196,-2.438 6.242,0 6.394,-3.805 4.567,0 6.242,-4.875 6.395,-3.804 27.406,-32.129 7.156,-8.68 2.285,-4.719 5.481,-4.722 2.285,0 12.637,-12.637 15.07,-10.961 13.246,-6.246 12.637,-3.195 17.968,-2.438 18.879,4.871 26.645,4.723 20.398,-3.961 11.118,-5.633 3.042,-3.804 3.2,-0.762 10.961,-8.68 10.199,-18.73 3.808,-8.828 -0.761,-3.047 1.676,-1.524 0.761,-6.394 3.957,-17.969 0.762,-14.922 7.004,-10.199 18.117,-28.324 36.996,-29.692 32.887,-22.687 1.523,-5.633 -0.761,-5.332 -6.243,-4.871 -4.718,-0.762 -4.719,-3.043 -24.363,-3.961 -25.121,0.762 -3.043,1.523 -3.961,0 -2.282,2.438 -0.914,0 -0.761,-13.403 -3.961,-6.242 -6.243,-4.718 -9.437,0 -14.922,5.48 -15.68,12.637 -11.726,17.207 -5.633,10.203 -9.437,14.16 -0.762,3.805 -8.528,7.16 -7.156,7.613 -7.765,5.633 -6.395,3.043 -3.043,4.723 0.762,5.632 -13.246,4.567 -11.114,7.918 -24.363,23.601 -11.722,11.727 -11.114,5.48 -3.808,0.762 -28.317,18.121 0,0.758 -16.445,6.246 -9.438,0 -6.242,-3.808 -1.676,-5.633 1.676,-7.766 -4.722,-6.394 0,-4.571 -4.719,-11.875 -16.594,-17.207 -3.047,-4.719 -2.281,-1.523 -6.395,-1.676 -5.484,-4.566 -6.242,-0.914 -3.957,-3.961 -2.285,0 -1.52,1.523 -2.437,-3.043 -6.395,0.758 -0.762,0.762 -2.285,-3.043 0,-1.524 -0.761,0.762 -0.758,-0.762 0,-1.675 -18.883,3.961 -21.922,-7.918 -17.207,-21.012 -20.398,-35.328 -23.602,-29.844 16.445,-18.121 4.719,-7.766 18.117,-17.355 21.926,-5.485 10.961,-7.003 10.203,-13.399 10.961,-25.887 6.395,-24.359 0,-3.199 3.043,-8.528 7.765,-10.96 0.914,-5.637 2.285,-5.328 2.434,-11.1136 3.809,-8.6797 1.523,-15.6836 -1.523,-3.8086 -3.047,1.5234 -3.196,6.2422 -0.761,3.961 -2.438,0.7617 -6.242,-2.2852 -2.281,-8.6797 0.758,-27.4062 0,-3.3516 -3.043,-1.5234 0,-12.4844 -1.676,-2.4375 -3.196,0.7617 -3.046,5.6328 -1.676,7.004 -3.043,9.4414 -13.399,12.6406 -6.242,3.043 -3.961,0 -1.519,-3.043 -0.762,-28.3242 -1.676,-2.2813 -0.761,-0.914 -1.676,0 -3.043,4.7187 -3.047,14.1602 -2.434,16.4453 0,0.7617 -1.371,1.5234 -2.437,-0.7617 -2.282,3.3477 -7.003,20.2539 -4.872,7.9179 -5.332,1.5235 -5.632,-2.2852 -3.196,-4.8711 0,-14.7734 3.196,-11.1133 -1.524,-9.2891 0,-11.7226 3.047,-10.3555 -2.285,-1.5234 -2.434,0.7617 -4.57,7.0039 -8.676,7.918 -14.16,0 -3.805,-5.4805 -1.675,-9.4414 0,-13.2461 6.242,-10.35546 0,-3.042971 -7.918,0.757812 -8.528,6.246099 -3.957,7.15622 -5.48,21.1641 -10.203,20.4023 -9.438,17.2071 -20.402,51.9214 -6.395,19.645 -6.089,21.164 -6.395,7.004 -10.961,4.871 -1.676,2.285 -2.285,0 -27.406,14.16 -24.359,14.922 -5.481,1.524 -3.199,-2.285 -6.242,0 -8.676,-7.157 -3.199,0.762 -1.524,1.676 -2.281,-1.676 -0.762,-0.762 -2.285,0 -3.348,3.961 -1.523,0 -3.043,3.196 -8.68,-4.719 -6.242,3.804 -3.199,-2.281 -3.957,0 -0.762,2.281 0,2.438 -0.761,0.762 -9.438,-6.243 -0.914,-0.761 -2.285,0 -2.285,8.527 0,0.762 -0.762,0.762 -5.481,-4.571 -1.671,0 -4.723,8.68 -3.043,0 -8.68,-7.918 -3.957,3.809 0,4.109 -3.961,0 -2.281,-0.762 -2.437,0 0,6.852 0.761,0.914 0,2.285 -5.328,0.762 -0.762,0 0,5.633 3.805,6.089 0,1.676 -5.48,-1.676 -1.676,-1.523 -5.328,0 0,4.875 3.047,9.289 0,0.758 -0.762,0.914 -3.957,-2.434 -4.723,-0.761 -2.281,0 0.758,6.242 3.199,7.004 0,2.437 -6.395,1.672 1.524,4.57 7.156,10.352 0,0.762 -8.68,1.523 0,4.723 3.957,7.765 -3.957,3.957 0.762,4.871 0,6.094 1.676,1.52 0,4.113 -6.242,6.242 -12.641,-0.762 -3.043,2.895 1.524,7.156 10.961,11.723 -2.438,2.437 -13.246,-1.675 -7.762,0.914 0,1.523 -3.199,2.285 -15.0742,0 -19.4883,-5.484 -12.6367,1.676 -5.4805,3.047 -12.6367,-2.286 -7.7656,0.762 -12.4844,3.043 -3.1953,1.524 0,2.437 20.4023,7.004 10.961,2.437 5.4804,5.481 0.9141,3.199 -4.8711,2.281 -7.7656,0.762 -10.2031,6.395 -13.2422,0 -16.59769,8.527 0,6.395 2.4375,2.285 17.96489,3.047 21.3164,-5.332 2.2812,-0.758 2.2852,0 1.5234,1.519 -12.4844,12.489 -4.7226,2.433 -3.043,7.918 -5.6328,1.524 -2.2852,3.046 -0.7617,5.481 1.5235,2.437 11.7226,1.52 8.6797,-0.758 7.0039,-4.723 6.3945,-5.48 10.961,-2.285 22.6875,1.523 3.1953,3.047 5.4805,0.762 1.5232,3.195 -2.285,12.485 1.523,11.117 -4.5659,5.48 1.5234,10.965 2.2813,3.195 7.1562,-0.757 11.723,-20.559 7.918,-7.004 6.242,-3.195 9.289,-1.524 0.914,0 -0.914,7.157 -6.09,14.16 -1.523,19.488 4.566,-0.758 7.156,-7.765 3.047,-10.204 1.672,-3.199 7.766,-3.957 7.765,-10.965 13.399,-9.441 4.871,0 0,3.961 -1.676,10.965 3.961,17.203 5.48,-3.043 4.719,-7.156 4.719,-12.489 9.441,-7.765 2.285,0 5.481,-4.871 10.199,-4.719 8.68,0 3.199,3.195 2.281,2.438 2.285,0 7.918,6.242 2.282,1.523 2.437,4.719 10.961,7.918 14.922,2.285 0.762,0 0.761,3.195 0,2.438 -9.289,6.09 -3.199,3.961 -0.91,5.48 -6.09,7.156 -7.156,3.961 -0.762,14.161 -3.199,3.043 -2.281,0 -3.047,3.96 2.285,4.719 -7.156,2.285 -5.481,4.719 -11.722,1.676 -4.723,7.766 -0.762,13.398 -12.636,5.484 -2.434,3.957 -2.285,0.762 -2.285,4.566 2.285,1.676 5.633,0 11.722,2.438 11.727,1.523 8.676,2.281 4.718,4.723 -1.672,1.524 -10.05,-0.762 -23.598,3.195 -19.641,0 -7.003,3.199 -4.11,7.004 -13.246,2.434 -4.723,2.285 -5.48,7.766 -1.676,5.636 0,1.52 1.676,1.523 -8.676,3.961 -6.242,8.676 -1.676,7.918 -12.484,6.246 -7.004,7.004 -0.762,5.48 0,2.286 -4.871,3.347 -7.766,0.762 -6.242,7.004 -1.676,5.484 0.762,1.672 0,1.524 7.156,1.523 14.922,-0.762 36.996,-5.632 19.489,-1.524 1.523,0 0.762,0.762 -1.524,1.676 -3.808,0 -16.442,6.242 -22.078,14.16 -7.156,11.723 -3.805,2.437 -7.918,1.524 -3.957,3.195 -7.765,11.726 -1.676,7.004 1.676,7.918 5.48,5.481 8.68,-0.762 12.637,-10.199 12.484,-6.246 8.527,-8.676 14.918,-1.524 2.438,-2.437 10.961,-1.523 9.441,-2.434 0.762,0 0.762,0.914 -5.485,3.805 -6.242,1.675 -4.719,4.567 -10.199,3.351 -10.203,8.528 -24.359,23.601 -2.438,7.004 1.676,4.719 1.676,1.523 10.808,-0.761 -3.957,12.636 -3.047,7.918 0,1.524 3.809,0 9.59,-8.68 14.769,-7.918 0.914,0.914 2.282,-2.437 22.839,-7.004 36.082,-16.594 32.278,-12.488 6.246,-3.195 12.484,-2.438 50.242,-17.207 11.875,-3.043 21.165,-12.641 10.199,-8.679 12.484,-22.688 2.438,-12.637 0.761,-43.851 7.918,-29.996 7,-21.168 6.246,-9.438 3.957,-3.047 3.196,-3.199 3.047,1.676 -8.68,12.488 -3.043,16.442 0.762,3.199 6.394,-1.676 0,7.918 -4.875,13.399 0,7.765 1.676,1.524 3.961,0 1.519,1.675 -3.957,20.403 -1.523,7.918 -0.914,14.164 3.199,3.043 -5.48,18.883 0,11.722 0.761,0 2.434,10.965 3.961,1.52 7.004,-3.043 3.957,-3.961 -0.914,6.246 -7.766,10.199 2.438,17.359 -3.2,7.766 -0.761,10.352 0,10.203 2.285,4.722 5.48,3.805 4.875,-1.523 8.524,-9.438 0.762,-3.199 2.437,-11.723 6.242,-7.008 1.524,-5.632 5.632,-3.043 3.043,-3.961 0,7.004 -3.043,10.355 -7.918,17.207 0,8.676 1.524,2.285 -2.285,9.441 0,0.762 -5.481,17.356 0,10.203 2.282,5.48 4.722,5.485 8.676,-1.524 6.242,-10.203 1.524,-7.004 3.199,-8.68 3.957,-2.433 3.808,-11.727 0.758,-0.761 0,6.242 -2.281,5.484 -1.523,11.113 -0.762,8.528 -3.957,10.965 0,25.121 4.719,5.636 1.523,24.207 3.043,4.723 4.113,2.438 3.805,-2.438 3.199,-5.48 5.328,-21.168 3.196,-14.922 0,-3.196 1.523,-4.722 1.523,-1.52 0,9.438 -2.285,5.484 0,14.922 4.567,23.602 -2.282,9.437 7.157,20.254 6.242,7.918 3.043,-1.523 4.113,-10.204 0,0 z m -95.008,-668.902 0,0 -14.16,13.399 -3.804,0.761 -11.875,-4.719 -20.403,-4.722 -10.051,-7.004 -5.632,-0.762 -3.043,3.809 -0.762,-0.762 -6.395,-3.047 0,-2.433 -0.761,-1.676 -0.762,0 -1.676,2.433 -2.281,0 -5.481,-2.433 1.672,0 18.727,-11.727 22.84,-10.199 12.484,-2.437 3.957,-2.286 0.762,0.762 2.285,-1.523 12.637,-5.481 17.355,-13.398 7.004,-3.961 9.441,-9.285 8.68,-13.403 16.442,-22.84 15.683,-24.3628 -2.437,15.6838 2.437,34.719 -7.765,33.648 -2.59,2.437 -12.485,5.481 -8.527,7.156 0,2.285 -2.281,0.762 -19.032,17.969 -5.328,3.195 0,0.914 -4.875,3.047"
         style="fill:#231f20;fill-opacity:1;fill-rule:nonzero;stroke:none"
         id="path29959" /><path
         d="m 517.984,880.262 0.914,-26.797 -2.437,-10.051 0.762,-20.402 1.675,-3.961 0,-7.918 2.282,-4.567 2.285,0 2.285,2.286 0.914,38.523 3.957,10.961 1.524,9.289 0,7.156 3.957,10.203 7.003,7.004 5.481,-2.285 0,-10.203 -3.805,-12.637 1.524,-7.765 -2.285,-19.641 -1.676,-1.523 0,-14.922 5.48,-3.961 3.047,0.762 17.356,30.605 6.242,6.242 0,2.438 5.48,3.961 4.114,4.566 13.246,10.203 4.718,2.434 4.719,0.761 -6.242,-17.964 -0.914,-4.723 -10.199,-13.398 -12.485,-24.364 -3.961,-10.203 -1.519,-10.961 -4.875,-19.644 0,-36.848 -2.281,-11.875 0.761,-21.926 0.762,-22.84 -3.047,-10.203 -25.121,-28.32 -7.004,-13.25 -4.871,-14.922 1.672,-11.875 0.762,-15.684 7.918,-14.769 1.523,-1.676 -4.719,0 -1.523,1.676 -18.117,-1.676 -31.215,-14.16 -23.598,-13.398 -7.918,-3.809 -21.008,-7.918 -5.636,2.437 -10.2,13.399 -2.437,9.289 0.914,0.914 0,1.523 5.48,-2.437 2.286,3.961 -0.762,8.676 -3.805,11.726 -0.914,5.481 0,2.437 4.719,0.762 2.437,3.043 -0.761,12.641 -4.719,17.355 0.758,9.289 0,2.438 3.047,3.199 -2.286,11.722 -3.195,4.719 -2.285,12.488 3.199,11.114 1.52,0.761 4.722,-1.675 7.918,-9.438 5.328,-10.965 11.114,-9.289 0.761,-0.914 1.524,0 1.519,3.199 -10.199,8.528 -7.765,20.554 -4.719,8.68 -5.481,7.004 1.524,10.203 -0.762,9.438 -2.437,7.769 0,14.16 2.437,4.719 2.281,2.285 4.114,-0.761 6.089,-10.204 3.196,-11.722 5.48,-5.485 2.438,-7.156 7.004,-3.805 5.48,-10.355 3.199,-3.047 3.043,0.762 0,7.16 -3.043,6.242 -4.722,15.684 -5.633,10.199 -1.524,9.441 0.762,4.719 1.676,1.524 -8.68,36.089 1.676,3.957 2.285,3.2 2.281,2.281 5.637,-1.523 0,-3.196 1.52,-1.523 7.765,-20.403 1.676,-1.523 0.762,0.762 6.242,-12.485 3.043,-1.675 3.352,0 1.523,1.675 -7.156,27.407 -0.762,10.203 -2.285,4.718 -1.524,16.446 0,7.156 1.524,0.762 3.047,4.566 3.043,25.125 2.59,4.871 0.761,0.762 1.52,0 8.527,-25.883 0,-7.918 3.961,-15.683 4.566,-7.918 3.958,0 2.437,4.718 -2.437,12.637 -2.434,4.723 0.758,25.121 1.676,11.726 0,11.114 1.675,1.523 0,4.57 5.481,14.922 2.285,3.196 3.043,-3.957 2.437,-10.965 0,0"
         style="fill:#dcdace;fill-opacity:1;fill-rule:nonzero;stroke:none"
         id="path29961" /><path
         d="m 202.516,749.16 23.601,-11.875 3.043,0 2.285,-2.285 7.918,-2.281 2.434,-0.762 25.125,-10.355 14.004,-3.047 48.722,-16.594 11.114,-2.285 26.644,-18.121 12.637,-20.403 2.285,-7.004 1.524,-30.757 0,-15.684 2.281,-13.246 2.437,-4.723 6.243,-26.644 5.48,-14.16 14.16,-18.121 9.438,-7.004 2.285,0 0,-0.762 20.554,-5.633 10.2,0.762 1.523,1.676 0,2.281 -22.078,1.676 -11.723,4.718 -2.281,2.286 7.914,0 23.602,9.441 18.726,10.199 5.481,2.438 5.48,3.808 14.008,7.156 10.961,4.719 13.398,3.047 9.442,0 2.281,-1.523 7.004,0 0.762,-0.762 2.59,2.285 5.328,0 6.394,1.524 3.047,0 4.719,-4.571 12.637,-1.676 4.718,-2.281 7.004,-0.762 3.809,-3.199 6.394,-0.761 7,-4.719 7.918,-6.242 3.961,-6.395 14.918,-17.969 4.723,-3.961 12.484,-16.441 3.196,-1.523 0,-4.723 1.523,-4.109 0,-12.485 2.285,-3.961 5.633,-0.762 -1.523,4.723 -4.11,3.195 0,4.723 0.762,0.758 4.109,-2.281 0.762,0 0.762,0.761 -7.918,11.723 0,1.523 11.113,-10.964 10.203,-7.918 -0.762,0 0,-5.481 3.805,-5.48 0.762,0 1.523,-1.524 0,3.957 -3.047,6.246 18.879,-9.441 8.528,-2.437 -1.524,-5.329 0,-3.199 1.524,-1.519 4.109,6.242 2.285,-0.762 0.762,-0.762 0.762,3.805 5.48,-0.758 0.762,0 -4.567,-6.246 0,-1.519 0.758,-0.914 2.285,0 1.524,2.433 0.761,0.762 0,0.914 1.672,-3.195 12.489,7.765 24.359,5.481 16.594,2.433 14.16,-3.195 0.762,0.762 7.004,-2.438 13.246,-10.051 9.437,-7.156 5.637,-7.918 3.957,-10.047 3.043,-5.632 4.723,-32.891 1.671,-12.488 0.762,-0.758 -1.672,0 -3.199,6.242 -1.523,1.52 -0.762,0 -1.52,-1.52 -0.761,9.438 -0.762,0.761 -1.676,0 -2.281,-3.195 -1.676,7.004 0,0.762 -0.762,0.914 -2.285,0 -1.672,-3.961 1.672,-10.961 -2.433,0.758 -1.524,-1.52 0,-2.437 -3.047,4.718 -2.433,0.762 -0.914,0.762 -1.524,-2.285 0,-2.282 -2.285,1.524 -7,0 -9.441,3.804 -1.524,0 -0.914,-0.761 0,-2.285 -4.719,2.285 2.286,2.437 -0.762,3.957 -5.481,0.762 -1.523,0 -3.957,4.723 -1.524,7.004 -6.242,5.48 -0.761,2.285 -7.918,5.633 -5.481,0.762 -7.156,-3.047 -3.043,-4.11 3.043,-9.289 1.523,-4.718 4.11,-4.723 8.527,-4.719 9.438,0.762 2.285,-1.524 3.199,1.524 3.957,-1.524 -0.762,-0.914 0,-2.285 3.957,-3.043 0.762,0.762 4.723,-12.641 1.519,-7.004 2.438,-4.718 -7.157,0.761 -15.679,-4.722 -3.809,-3.043 2.285,-6.395 -0.761,0 -13.399,0.758 -1.523,1.524 -7.157,1.523 -4.718,4.113 -8.68,5.481 -22.684,21.926 -9.441,11.117 -9.438,5.328 -21.164,10.355 -14.16,10.961 2.285,1.524 -3.808,3.957 -1.52,0 -1.675,-2.434 0.761,-0.762 -7.765,3.196 3.957,1.523 2.285,-0.762 1.523,0 0.914,0.762 -3.199,2.438 -7.156,0.761 0,0.762 -0.762,0.758 -3.805,-2.281 1.524,-3.2 -15.684,4.723 -10.199,1.52 -2.285,0 -1.676,-2.282 4.719,-3.961 8.68,-0.761 -4.872,-2.434 -3.046,-3.808 -2.282,-8.68 0.762,-7.004 -5.637,-12.637 -1.519,-5.48 -3.047,-4.723 -5.481,-3.195 -4.871,-5.485 -3.808,-7.004 -3.957,-2.433 -3.196,1.519 -0.761,0 -3.2,-5.48 -3.804,-2.285 -3.961,1.523 -3.195,-1.523 -1.524,-3.043 -5.48,2.285 -3.2,-4.875 -3.957,2.59 -3.046,-0.914 -3.043,-4.723 -7.157,0.762 -8.679,2.285 -7.762,-1.523 -19.793,-9.286 -15.531,-20.254 -18.727,-31.519 -11.723,-17.203 -14.16,-15.684 -2.437,0 -2.434,-2.437 0.758,-2.285 -6.848,-3.196 -7.918,-6.242 -15.683,-5.637 -14.16,-6.089 -19.641,-5.633 -11.113,-6.242 -3.047,3.195 -10.199,-2.438 -10.2,-3.804 -8.679,-0.762 -9.442,4.566 -5.328,3.2 -6.394,7.918 -17.203,17.968 2.285,5.481 8.675,7.765 0.762,12.637 0,2.438 -3.957,3.195 -3.199,-3.195 2.285,-7.918 -2.285,-6.243 -7.766,-7.003 -3.957,-8.68 4.719,-3.961 -4.719,-2.281 -2.437,-4.875 0.914,-2.282 0.762,-0.761 2.285,0 2.433,4.718 7.004,-0.914 2.285,-2.281 -3.804,-2.285 0,-2.285 3.804,-1.676 4.871,0.762 0.762,-4.719 0,-0.762 4.719,-0.761 8.68,-7.004 8.527,-3.2 3.957,-3.195 5.48,-1.523 20.403,-12.637 20.402,-10.965 19.641,-4.719 26.797,-14.769 0,-0.914 7.004,-3.961 15.679,-14.16 14.16,-21.012 20.403,-28.4727 8.679,-17.207 1.52,-7.7657 0,-2.4375 -3.957,10.2032 -1.523,6.3945 -14.161,16.4452 -2.281,1.524 -26.797,28.32 -7.765,4.719 -5.633,1.523 -16.442,11.879 -8.679,4.566 -1.524,0 -2.285,-2.285 3.809,-14.16 7.918,-14.922 6.394,-9.441 3.805,-9.438 14.16,-17.2068 7.156,-11.7265 10.047,-11.1133 4.113,-10.2031 3.805,-16.4454 0,-1.5195 -9.437,17.2031 -15.684,18.8828 -9.441,8.5274 -10.2,14.9219 -5.48,6.3944 -14.16,19.488 -4.567,12.641 -4.113,3.195 -1.519,0 -1.524,-1.519 -0.762,-12.641 3.043,-15.683 16.446,-37.7622 11.113,-19.4882 7.766,-23.6016 1.675,-7.1562 -2.437,-6.2422 5.48,-3.8086 4.875,-7.918 -7.918,4.57031 -3.961,7.91409 -0.761,6.3984 -6.395,18.7266 -16.441,30.6054 -8.68,21.3165 -1.519,1.5234 -21.164,62.7343 -0.915,5.481 -6.089,9.441 -2.438,2.285 0.762,0.914 0,2.434 -22.684,20.254 -12.636,5.632 -16.446,9.29 -3.957,4.109 -3.199,-3.195 7.156,-6.246 27.406,-14.161 15.68,-14.16 0.762,-0.762 -3.043,0 -44.762,25.125 -13.398,8.528 -10.051,3.195 -4.109,3.961 -2.286,0 -0.761,0.762 -0.758,-0.762 -7.156,0.762 -7.766,1.519 -9.441,3.961 -12.637,15.836 -5.328,11.723 3.804,12.488 5.485,7.918 4.719,3.043 2.437,0 0,3.961 -5.484,0 -10.2,-10.203 -4.871,-10.961 -0.761,-6.246 0,-3.195 7.156,-14.161 16.441,-17.207 9.442,-3.199 13.398,-1.519 2.281,-2.438 -2.281,0 -7.156,-6.242 -3.961,2.434 -0.762,0.761 -4.566,-3.957 -6.395,6.242 -3.957,0.762 -7.004,-4.723 -1.675,2.438 0.761,2.285 -2.285,2.438 -3.805,-2.438 -2.437,-2.285 0,6.242 -6.242,0 -7.156,-5.48 -0.762,-0.762 -2.434,3.047 -0.761,4.109 -3.809,2.285 -1.52,0 -3.199,-4.718 -1.676,1.519 0,3.199 -5.48,3.805 -8.676,-3.805 0,0.762 -3.808,3.805 -7.157,-1.524 2.438,7.918 -2.438,2.438 -6.242,-0.914 4.723,11.117 0,1.523 -3.199,3.043 -9.442,-3.804 4.113,11.722 -0.761,5.481 -4.871,-0.758 -6.243,-5.484 0,3.961 3.196,7.765 0,3.957 -3.196,2.285 -0.761,-0.761 0,2.437 7.004,9.438 -0.762,3.046 -3.047,1.524 -4.719,0.762 4.719,11.875 -3.195,3.047 -1.524,0 0.762,4.109 0,11.726 -5.633,6.852 -5.328,1.523 -10.355,0 -0.762,0.762 13.398,15.832 0.762,3.199 -4.566,3.805 -12.637,0 -1.524,-0.758 -22.0777,5.481 -18.8789,-4.723 -5.4805,-2.281 -14.9218,2.281 -3.9571,2.285 -9.2851,-1.523 -11.1172,0 -3.8047,1.523 -3.3516,0 25.2735,8.68 10.9648,11.117 7.918,1.52 21.0078,0 15.0745,3.047 3.199,3.199 -2.438,1.672 -24.3589,-4.11 -17.3594,0.914 -7.7656,-2.437 -6.2422,2.437 -5.4805,0 -6.3945,3.196 -5.4805,3.047 -13.2461,0 -7.1562,3.199 -2.2813,2.281 -1.6758,0 1.6758,1.523 -3.96092,3.352 12.63672,2.281 12.4844,-1.519 4.7226,-1.676 10.1992,-2.438 33.8008,0.914 0.7617,0.762 15.6797,1.676 10.203,0 3.195,3.043 -2.281,1.523 -9.594,0 -2.2847,1.524 -11.7226,-3.047 -27.5586,0 -14.918,10.965 -7.7656,7.765 -0.9141,4.11 -3.043,3.047 -3.9609,0.761 -3.1953,3.957 5.6328,2.286 10.8086,-0.762 14.3125,-10.051 11.7227,-2.586 23.4492,0.914 10.199,3.957 8.832,-0.761 8.524,-2.438 9.441,1.676 0.762,0.762 0,0.761 -12.637,2.285 -4.57,2.286 -6.395,0 1.676,3.957 -1.676,2.437 -1.519,9.285 0,12.641 -3.2,3.195 0.762,7.766 1.676,2.437 3.043,-1.675 5.633,-11.723 10.965,-12.641 7.004,-3.804 16.593,-4.723 7.766,-5.481 3.043,-3.957 0.914,0.762 14.16,-8.68 15.684,0 12.636,-0.761 3.043,-2.285 13.399,0.761 5.48,2.285 8.528,0 7.156,2.434 9.437,9.441 11.727,7.157 3.195,6.09 12.637,7.917 14.922,1.524 4.566,2.437 7.156,-6.242 11.723,-2.285 10.203,0 13.246,0.762 1.676,1.523 0,2.281 -3.199,2.438 -6.242,-1.676 -18.117,-0.762 -10.813,3.961 -4.109,5.481 -2.285,0.914 0,1.523 -2.282,1.524 -11.117,4.566 -3.043,4.114 -1.523,5.48 -2.438,2.285 21.164,1.52 1.524,-1.52 2.437,3.195 0,0.762 -1.676,1.676 -27.406,0 -6.242,3.043 -1.523,2.285 0,13.399 -2.434,1.523 -1.524,1.523 2.286,0.914 -0.762,1.676 -1.524,1.52 10.961,0 6.395,1.523 1.523,1.524 0,1.523 -21.316,0 -9.438,3.195 0,0.762 -2.285,2.438 -0.761,0 -0.762,-0.762 0,0.762 -11.875,2.285 -3.043,3.195 -1.524,7.004 10.2,0 13.398,3.199 12.485,3.957 -0.762,2.285 0,0.762 -1.672,0.762 -24.363,-7.004 -3.957,-0.762 -3.043,6.242 -15.684,6.395 -3.199,3.809 -0.758,0.761 7,0.762 4.723,1.519 10.199,2.438 7.918,0.914 9.437,3.805 3.2,3.961 0,5.48 -3.2,2.438 -6.238,-2.438 -11.117,0 -7.004,2.438 -14.918,1.523 -15.684,0 -3.199,1.524 -1.519,0 -0.762,2.281 3.043,0.914 1.676,1.523 -9.59,3.957 -14.008,2.285 -5.48,5.481 -2.286,8.68 9.286,-3.805 0.761,0.762 0,1.519 -6.242,3.809 -11.723,4.871 -5.48,7.765 0,3.047 -0.762,0.914 7.766,-0.914 22.836,-6.089 21.926,0.757 9.441,1.524 1.52,2.285 0,0.762 -3.957,0 -14.008,-1.524 -21.317,2.285 -32.886,7.918 -9.438,7.157 -3.961,7.003 -0.758,4.719 -3.961,3.199 -7.004,0.762 -3.195,2.281 -3.961,4.723 0,3.199 8.68,2.434 6.394,-1.676 6.243,-0.758 17.203,-3.199 5.484,0 24.36,-3.809 11.113,0.762 5.328,3.047 0.762,0.762 0,2.437 -2.282,2.434 -3.046,-1.676 -19.032,6.246 -10.961,5.633 -15.683,11.723 -5.328,9.441 -4.871,3.047 -7.004,0.914 -10.965,12.484 -1.52,7.004 1.52,7.157 3.047,3.199 7.918,-1.676 8.523,-8.68 10.965,-4.566 5.633,-4.113 7.004,-6.09 6.394,0 9.285,-4.719 10.203,-1.676 24.36,-6.246 3.199,0.762 1.52,1.523 0,2.438 -21.161,10.965 -19.64,9.437 -31.367,31.367 -1.52,3.2 0,2.433 9.285,0 3.199,-3.195 3.957,0 18.879,-13.399 9.289,-2.437 3.196,0 1.676,1.676 0,0.761 -7.157,1.672 -14.16,7.766 -12.484,10.203 -6.395,12.637 0,2.285 19.641,-11.113 37.758,-14.774 0,0"
         style="fill:#ebeadf;fill-opacity:1;fill-rule:nonzero;stroke:none"
         id="path29963" /><path
         d="m 306.199,199.938 c -0.758,0.914 -1.062,1.98 -1.062,2.894 -4.875,2.438 -14.465,4.871 -16.75,9.594 2.285,2.433 4.718,4.871 4.718,7.156 2.743,0 11.27,2.438 17.969,2.59 l 4.567,-3.656 8.527,-3.2 3.957,-3.195 5.48,-1.523 20.403,-12.637 20.402,-10.965 19.641,-4.719 26.797,-14.769 0,-0.914 7.004,-3.961 15.679,-14.16 14.16,-21.012 20.403,-28.4727 8.679,-17.207 1.52,-7.7657 0,-2.4375 -3.957,10.2032 -1.523,6.3945 -14.161,16.4452 -2.281,1.524 -26.797,28.32 -7.765,4.719 -5.633,1.523 -16.442,11.879 -8.679,4.566 -1.524,0 -2.285,-2.285 3.809,-14.16 7.918,-14.922 6.394,-9.441 3.805,-9.438 14.16,-17.2068 7.156,-11.7265 10.047,-11.1133 4.113,-10.2031 3.805,-16.4454 0,-1.5195 -9.437,17.2031 -15.684,18.8828 -9.441,8.5274 -10.2,14.9219 -5.48,6.3944 -14.16,19.488 -4.567,12.641 -4.113,3.195 -1.519,0 -1.524,-1.519 -0.762,-12.641 3.043,-15.683 16.446,-37.7622 11.113,-19.4882 7.766,-23.6016 1.675,-7.1562 -2.437,-6.2422 5.48,-3.8086 4.875,-7.918 -7.918,4.57031 -3.961,7.91409 -0.761,6.3984 -6.395,18.7266 -16.441,30.6054 -8.68,21.3165 -1.519,1.5234 -21.164,62.7343 -0.915,5.481 -6.089,9.441 -2.438,2.285 0.762,0.914 0,2.434 -22.684,20.254 -12.636,5.632 -16.446,9.29 -3.957,4.109 -3.199,-3.195 7.156,-6.246 27.406,-14.161 15.68,-14.16 0.762,-0.762 -3.043,0 -36.848,20.708"
         style="fill:#c7b6a7;fill-opacity:1;fill-rule:nonzero;stroke:none"
         id="path29965" /><path
         d="m 457.844,522.285 c 1.066,0.457 2.133,1.067 3.199,1.828 l 0,2.438 c 9.59,7.156 26.34,19.183 35.777,28.777 14.465,0 28.778,7.156 43.239,7.156 9.593,9.594 45.527,-7.156 55.117,-14.464 0,-2.286 14.312,-19.188 16.746,-19.188 l 2.437,-2.281 c 0,-4.875 2.438,-12.031 2.438,-16.903 4.719,-2.285 9.59,-9.593 16.746,-9.593 l 2.437,-2.285 c 0,-2.434 -2.437,-7.309 -2.437,-9.59 4.871,-1.676 13.246,-2.285 20.25,-2.438 l 0,8.071 -1.523,4.109 0,4.723 -3.196,1.523 -12.484,16.441 -4.723,3.961 -14.918,17.969 -3.961,6.395 -7.918,6.242 -7,4.719 -6.394,0.761 -3.809,3.199 -7.004,0.762 -4.718,2.281 -12.637,1.676 -4.719,4.571 -3.047,0 -6.394,-1.524 -5.328,0 -2.59,-2.285 -0.762,0.762 -7.004,0 -2.281,1.523 -9.442,0 -13.398,-3.047 -10.961,-4.719 -14.008,-7.156 -5.48,-3.808 -5.481,-2.438 -18.726,-10.199 -23.602,-9.441 -7.914,0 2.281,-2.286 11.723,-4.718 21.469,-1.524 0,0 z m 198.234,-36.543 c 2.434,0 4.567,0 6.242,0 0,-4.871 2.434,-12.027 2.434,-16.75 4.723,0 14.312,-2.433 21.469,-2.433 0,-4.875 0,-12.032 2.437,-16.75 4.871,0 14.461,2.281 19.184,2.281 l 4.871,4.875 c 2.285,0 7.156,-2.438 9.594,-2.438 18.269,5.786 39.582,14.313 59.375,18.426 l -6.09,1.367 -16.594,-2.433 -24.359,-5.481 -12.489,-7.765 -1.672,3.195 0,-0.914 -0.761,-0.762 -1.524,-2.433 -2.285,0 -0.758,0.914 0,1.519 4.567,6.246 -0.762,0 -5.48,0.758 -0.762,-3.805 -0.762,0.762 -2.285,0.762 -4.109,-6.242 -1.524,1.519 0,3.199 1.524,5.329 -8.528,2.437 -18.879,9.441 3.047,-6.246 0,-3.957 -1.523,1.524 -0.762,0 -3.805,5.48 0,5.481 0.762,0 -10.203,7.918 -11.113,10.964 0,-1.523 7.918,-11.723 -0.762,-0.761 -0.762,0 -4.109,2.281 -0.762,-0.758 0,-3.504 z m 180.418,-82.527 c -1.523,0.609 -2.894,0.914 -3.961,0.914 l -9.59,4.871 0,-4.566 0.457,0 0.762,-0.914 0,-0.762 1.676,-7.004 2.281,3.195 1.676,0 0.762,-0.761 0.761,-9.438 1.52,1.52 0.762,0 1.523,-1.52 3.199,-6.242 1.672,0 -0.762,0.758 -1.671,12.488 -1.067,7.461 0,0 z m -16.898,-3.656 c -2.133,0.457 -4.114,2.285 -6.246,2.285 0,2.285 -7.153,7.156 -7.153,9.594 -4.722,0 -14.465,-14.465 -16.75,-16.903 -1.066,0 -2.281,0.305 -3.804,0.61 l 0,-0.153 -2.286,-2.437 4.719,-2.285 0,2.285 0.914,0.761 1.524,0 9.441,-3.804 7,0 2.285,-1.524 0,2.282 1.524,2.285 0.914,-0.762 2.433,-0.762 3.047,-4.718 0,2.437 1.524,1.52 2.433,-0.758 -1.519,10.047 0,0 z m -76.586,20.558 -1.215,-1.676 3.043,-9.289 1.523,-4.718 4.11,-4.723 8.527,-4.719 9.438,0.762 2.285,-1.524 3.199,1.524 3.957,-1.524 -0.762,-0.914 0,-2.285 3.957,-3.043 0.762,0.762 4.723,-12.641 1.519,-7.004 2.438,-4.718 -7.157,0.761 -15.679,-4.722 -0.157,-0.153 c 0.157,7.004 -2.128,14.161 -2.128,24.668 l -2.438,2.438 -2.281,0 0,2.437 -2.438,2.434 c -2.437,0 -4.871,2.285 -7.156,2.285 0,4.871 -4.871,4.871 -4.871,4.871 l 0,2.438 c -7.156,4.719 -16.75,9.594 -16.75,21.469 -2.434,0 -4.871,2.437 -7.152,2.437 0,2.438 -2.438,9.594 -2.438,14.465 2.438,0 14.313,-9.594 16.746,-9.594 l 2.438,-2.433 c 0,-1.829 1.675,-4.875 3.957,-8.071 l 0,0 z m 22.84,-68.371 c -0.153,-0.305 -0.153,-0.453 -0.305,-0.758 l 0.609,0 -0.304,0.758 0,0 z m -77.192,50.859 0,11.114 c -9.594,0 -26.34,12.031 -26.34,21.625 -16.75,0 -35.933,4.871 -50.398,4.871 0,-0.914 -0.758,-2.133 -1.824,-3.656 l 0.609,0 10.199,-1.52 15.684,-4.723 -1.524,3.2 3.805,2.281 0.762,-0.758 0,-0.762 7.156,-0.761 3.199,-2.438 -0.914,-0.762 -1.523,0 -2.285,0.762 -3.957,-1.523 7.765,-3.196 -0.761,0.762 1.675,2.434 1.52,0 3.808,-3.957 -2.285,-1.524 14.16,-10.961 21.164,-10.355 0.305,-0.153 0,0 z m -80.847,30.758 3.652,-3.047 8.68,-0.761 -4.872,-2.434 -3.046,-3.808 -2.282,-8.68 0.762,-7.004 -5.637,-12.637 -1.519,-5.48 -3.047,-4.723 -5.024,-2.891 c 0,14.313 2.895,29.692 9.29,46.29 0,1.062 1.367,3.042 3.043,5.175"
         style="fill:#d3d1c4;fill-opacity:1;fill-rule:nonzero;stroke:none"
         id="path29967" /><path
         d="m 197.188,222.02 9.593,7.156 c 0,0 -35.933,-7.156 -16.75,2.433 l -4.871,0 c 0,4.875 2.438,9.594 4.871,12.032 l -21.465,-1.371 -4.57,-10.508 6.242,0.914 2.438,-2.438 -2.438,-7.918 7.157,1.524 3.808,-3.805 0,-0.762 8.676,3.805 5.48,-3.805 0,-3.199 1.676,-1.519 3.199,4.718 1.52,0 3.809,-2.285 0.761,-4.109 2.434,-3.047 0.762,0.762 7.156,5.48 6.242,0 0,-6.242 2.437,2.285 3.805,2.438 2.285,-2.438 -0.761,-2.285 1.675,-2.438 7.004,4.723 3.957,-0.762 6.395,-6.242 4.566,3.957 0.762,-0.761 3.961,-2.434 7.156,6.242 2.281,0 -2.281,2.438 -13.398,1.519 -9.442,3.199 -16.441,17.207 -7.156,14.161 0,3.195 0.761,6.246 0.762,1.367 0,6.094 c 4.262,0 0.758,1.976 3.652,2.433 l -0.152,-0.152 c -1.98,-0.609 -3.5,-2.586 -3.5,-4.566 -12.031,0 -24.058,2.285 -36.086,2.285 4.871,0 12.028,-4.723 14.465,-4.723 -2.437,-2.437 -7.156,-7.156 -9.594,-7.156 2.438,0 9.594,-2.438 12.028,-2.438 l 2.285,-2.433 0,-7.156 -7.156,-7.157 c 2.437,0 9.593,-7.308 12.027,-7.308 l -12.027,-7.156 0,0 z m -30.145,24.054 -1.523,1.371 -9.442,-3.804 4.113,11.722 -0.761,5.481 -4.871,-0.758 -6.243,-5.484 0,3.961 3.196,7.765 0,3.957 -3.196,2.285 -0.761,-0.761 0,2.437 4.109,5.481 0,-0.153 c 7.156,0 16.75,-2.437 23.902,-2.437 -4.718,-9.59 -4.718,-21.469 -7.152,-26.34 l 7.152,0 c -3.804,-1.981 -6.238,-3.504 -8.523,-4.723 l 0,0 z m -12.637,38.371 c 1.524,1.828 3.196,3.504 4.414,4.723 -2.437,0 -4.871,2.434 -7.156,4.871 2.285,4.719 9.594,14.313 9.594,16.75 l -4.875,2.438 c 0,2.281 -2.434,4.718 -2.434,7.156 7.309,0 2.434,11.875 2.434,16.597 -2.434,2.434 -7.153,7.309 -9.59,7.309 2.437,0 4.871,2.281 4.871,4.719 2.285,0 7.156,2.433 9.594,2.433 0,4.723 -4.875,12.032 -7.309,16.75 l -16.75,0 c 4.875,0 33.649,7.157 47.961,7.157 0,-2.282 7.309,-11.875 7.309,-19.184 14.312,0 35.929,2.438 47.961,4.871 l -9.594,0 c 0,0 50.242,2.438 31.059,12.031 0,2.282 12.027,9.59 16.902,9.59 -19.184,19.188 9.59,31.063 16.746,45.532 14.312,0 35.934,14.312 50.395,14.312 0,9.59 45.523,4.871 50.246,14.465 l 7.304,2.433 0,2.286 -4.871,2.437 c 0,9.594 -9.59,19.184 -9.59,28.777 l -4.722,2.438 -2.434,2.434 -45.523,47.964 c 0,19.188 -14.465,59.84 -26.493,74.305 l -2.285,0 c -2.433,2.438 -7.308,14.465 -7.308,19.188 -4.719,0 -2.282,9.593 -7.157,9.593 l 0,4.871 c -4.718,4.719 -19.183,28.778 -26.339,28.778 0,11.879 -40.801,26.344 -47.957,28.777 l 0,2.285 c -13.399,6.09 -36.543,12.184 -60.141,16.75 l 10.051,-10.203 19.64,-9.437 21.161,-10.965 0,-2.438 -1.52,-1.523 -3.199,-0.762 -24.36,6.246 -10.203,1.676 -9.285,4.719 -6.394,0 -7.004,6.09 -5.633,4.113 -10.965,4.566 -8.523,8.68 -7.918,1.676 -3.047,-3.199 -1.52,-7.157 1.52,-7.004 10.965,-12.484 7.004,-0.914 4.871,-3.047 5.328,-9.441 15.683,-11.723 10.961,-5.633 19.032,-6.246 3.046,1.676 2.282,-2.434 0,-2.437 -0.762,-0.762 -5.328,-3.047 -11.113,-0.762 -24.36,3.809 -5.484,0 -17.203,3.199 -6.243,0.758 -6.394,1.676 -8.68,-2.434 0,-3.199 3.961,-4.723 3.195,-2.281 7.004,-0.762 3.961,-3.199 0.758,-4.719 3.961,-7.003 9.438,-7.157 32.886,-7.918 21.317,-2.285 14.008,1.524 3.957,0 0,-0.762 -1.52,-2.285 -9.441,-1.524 -21.926,-0.757 -22.836,6.089 -7.766,0.914 0.762,-0.914 0,-3.047 5.48,-7.765 11.723,-4.871 6.242,-3.809 0,-1.519 -0.761,-0.762 -9.286,3.805 2.286,-8.68 5.48,-5.481 14.008,-2.285 9.59,-3.957 -1.676,-1.523 -3.043,-0.914 0.762,-2.281 1.519,0 3.199,-1.524 15.684,0 14.918,-1.523 7.004,-2.438 11.117,0 6.238,2.438 3.2,-2.438 0,-5.48 -3.2,-3.961 -9.437,-3.805 -7.918,-0.914 -10.199,-2.438 -4.723,-1.519 -7,-0.762 0.758,-0.761 3.199,-3.809 15.684,-6.395 3.043,-6.242 3.957,0.762 24.363,7.004 1.672,-0.762 0,-0.762 0.762,-2.285 -12.485,-3.957 -13.398,-3.199 -10.2,0 1.524,-7.004 3.043,-3.195 11.875,-2.285 0,-0.762 0.762,0.762 0.761,0 2.285,-2.438 0,-0.762 9.438,-3.195 21.316,0 0,-1.523 -1.523,-1.524 -6.395,-1.523 -10.961,0 1.524,-1.52 0.762,-1.676 -2.286,-0.914 1.524,-1.523 2.434,-1.523 0,-13.399 1.523,-2.285 6.242,-3.043 27.406,0 1.676,-1.676 0,-0.762 -2.437,-3.195 -1.524,1.52 -21.164,-1.52 2.438,-2.285 1.523,-5.48 3.043,-4.114 11.117,-4.566 2.282,-1.524 0,-1.523 2.285,-0.914 4.109,-5.481 10.813,-3.961 18.117,0.762 6.242,1.676 3.199,-2.438 0,-2.281 -1.676,-1.523 -13.246,-0.762 -10.203,0 -11.723,2.285 -7.156,6.242 -4.566,-2.437 -14.922,-1.524 -12.637,-7.917 -3.195,-6.09 -11.727,-7.157 -9.437,-9.441 -7.156,-2.434 -8.528,0 -5.48,-2.285 -13.399,-0.761 -3.043,2.285 -12.636,0.761 -15.684,0 -14.16,8.68 -0.914,-0.762 -3.043,3.957 -7.766,5.481 -16.593,4.723 -7.004,3.804 -10.965,12.641 -5.633,11.723 -3.043,1.675 -1.676,-2.437 -0.762,-7.766 3.2,-3.195 0,-12.641 1.519,-9.285 1.676,-2.437 -1.676,-3.957 6.395,0 4.57,-2.286 12.637,-2.285 0,-0.761 -0.762,-0.762 -9.441,-1.676 -8.524,2.438 -8.832,0.761 -10.199,-3.957 -23.4492,-0.914 -11.7227,2.586 -14.3125,10.051 -10.8086,0.762 -5.6328,-2.286 3.1953,-3.957 3.9609,-0.761 3.043,-3.047 0.9141,-4.11 7.7656,-7.765 14.918,-10.965 27.5586,0 11.7226,3.047 2.2847,-1.524 9.594,0 2.281,-1.523 -3.195,-3.043 -10.203,0 -15.6797,-1.676 -0.7617,-0.762 -33.8008,-0.914 -10.1992,2.438 -4.7226,1.676 -12.4844,1.519 -12.63672,-2.281 3.96092,-3.352 -1.6758,-1.523 1.6758,0 2.2813,-2.281 7.1562,-3.199 13.2461,0 5.4805,-3.047 6.3945,-3.196 5.4805,0 6.2422,-2.437 7.7656,2.437 17.3594,-0.914 24.3589,4.11 2.438,-1.672 -3.199,-3.199 -15.0745,-3.047 -21.0078,0 -7.918,-1.52 -10.9648,-11.117 -25.2735,-8.68 3.3516,0 3.8047,-1.523 11.1172,0 9.2851,1.523 3.9571,-2.285 14.9218,-2.281 5.4805,2.281 18.8789,4.723 22.0777,-5.481 1.524,0.758 12.637,0 4.566,-3.805 -0.762,-3.199 -13.398,-15.832 0.762,-0.762 10.355,0 5.328,-1.523 5.633,-6.852 0,-11.726 -0.762,-4.109 1.524,0 3.195,-3.047 -4.719,-11.875 4.719,-0.762 3.047,-1.524 0.609,-2.285 0,0 z m 88.61,-58.316 -0.457,0.152 -1.676,2.133 c 0.609,-0.609 1.371,-1.371 2.133,-2.285 l 0,0 z m -7.461,8.984 -5.633,7.004 -1.524,3.047 c 3.961,-2.285 7.157,-8.68 7.157,-8.68 l 0,-1.371"
         style="fill:#dcdace;fill-opacity:1;fill-rule:nonzero;stroke:none"
         id="path29969" /><path
         d="m 242.711,687.191 c 12.027,-4.722 28.777,-9.593 38.367,-19.187 0.457,0 0.762,0 1.219,0 4.414,-6.09 8.68,-12.18 10.808,-14.313 l 0,-4.871 c 4.875,0 2.438,-9.593 7.157,-9.593 0,-4.723 4.875,-16.75 7.308,-19.188 l 2.285,0 c 3.5,-4.109 7.157,-10.504 10.657,-17.965 2.59,-17.207 5.027,-32.738 10.965,-39.59 1.062,-1.218 2.128,-2.285 3.347,-3.504 0.914,-5.023 1.524,-9.589 1.524,-13.246 l 45.523,-47.964 2.434,-2.434 4.722,-2.438 c 0,-7.46 5.786,-14.921 8.371,-22.382 -8.218,-0.914 -21.769,0.761 -29.992,0.761 2.438,2.438 7.309,4.871 9.594,4.871 0,2.438 2.434,4.723 2.434,9.594 l -7.157,7.156 c -22.531,0 -51.308,-6.242 -74.449,-7.156 l -1.219,1.219 -3.046,0 c 5.027,11.266 14.464,17.965 28.32,17.965 0,2.437 2.437,9.594 2.437,12.031 -11.422,5.633 -31.972,0.762 -48.418,-1.523 l 0.457,0.457 0,1.523 -11.265,0 c 1.976,3.805 7.004,7.613 8.828,11.418 7.156,0 33.648,2.438 33.648,12.031 l -62.422,-2.437 c 0,0.152 0,0.152 0,0.152 l 3.805,0.914 12.485,3.957 -0.762,2.285 0,0.762 -1.672,0.762 -11.727,-3.352 c 7.309,8.832 30.606,14.617 38.676,18.578 0,2.438 2.434,7.157 2.434,9.594 -4.262,4.11 -22.989,2.738 -37.91,3.043 l 0,0.457 -3.2,2.438 -5.785,-2.286 c -6.394,0.762 -10.656,2.438 -10.656,5.938 9.594,0 21.469,9.594 31.059,9.594 0,9.593 4.871,21.621 4.871,31.215 l -2.434,2.285 c -15.227,0 -36.086,-3.199 -55.727,-3.504 l 0.915,1.371 0,0.762 -3.957,0 -14.008,-1.524 -4.262,0.457 c -6.09,0.914 -11.727,2.438 -16.445,4.871 9.593,19.188 67.144,12.032 81.457,12.032 -4.723,4.871 -47.961,14.464 -57.551,14.464 0,2.286 7.305,7.157 9.59,9.594 l 31.211,0 2.437,2.281 c -2.437,2.438 -9.594,7.309 -9.594,9.594 -2.433,0 -12.027,2.438 -12.027,4.875 l -4.719,0 c 0,4.262 -5.632,10.352 -7.004,14.918 l 0.153,0 3.199,0.762 1.52,1.523 0,2.438 -9.286,4.871 c 6.395,0.762 13.551,1.828 18.575,1.828 l 14.312,-9.594 9.59,-9.59"
         style="fill:#cac8b9;fill-opacity:1;fill-rule:nonzero;stroke:none"
         id="path29971" /><path
         d="m 238.602,696.477 8.675,-5.329 21.164,-11.113 11.723,-4.722 3.199,-2.438 29.84,-10.199 9.442,-7.766 11.722,-20.406 2.285,-8.676 0,-4.723 3.348,-23.601 0.762,0 0,-1.52 -0.762,0 0,0.758 -0.762,0.762 0,-7.004 5.328,-19.641 14.922,-27.41 21.317,-26.797 19.488,-10.964 10.199,-5.481 7.918,-10.203 2.438,-17.203 -0.914,-9.442 -10.2,-4.718 -3.046,-5.637 -2.286,-1.524 -7.156,0 -1.672,2.438 2.434,4.723 -1.52,11.722 -6.242,11.723 -6.394,7.16 -1.524,0 -1.523,1.52 -5.633,0 -6.242,4.722 -7.157,-0.761 -4.566,-1.676 -3.199,0 -1.524,2.437 2.438,6.242 -0.914,3.958 -10.961,6.394 -4.719,1.523 -4.723,14.922 -2.281,5.332 1.52,7.157 -6.242,3.195 -9.438,1.523 -2.285,3.2 0.762,5.48 7.004,7.918 0,3.047 -5.481,3.195 -8.68,1.524 -3.195,10.203 0.91,6.242 6.246,5.48 0.758,0 1.676,1.676 -7.156,6.242 -5.481,3.2 -3.195,4.566 8.676,7.156 0,2.438 -22.075,23.449 0,2.434 14.309,3.808 0.762,0.762 -8.676,7.918 -24.363,14.922 -6.242,6.242 -0.762,-0.762 -1.672,0 0,1.676 -9.289,5.48 -3.348,5.329 -19.488,11.879 -3.199,3.957 -3.196,3.199 0.762,1.523 3.348,-0.762 14.008,-11.878 0,0"
         style="fill:#231f20;fill-opacity:1;fill-rule:nonzero;stroke:none"
         id="path29973" /><path
         d="m 458.453,705.918 1.524,-3.957 -1.524,3.957 0,0"
         style="fill:#ffffff;fill-opacity:1;fill-rule:nonzero;stroke:none"
         id="path29975" /><path
         d="m 310.008,660.391 9.437,-8.528 9.442,-12.636 3.957,-10.204 0.761,-27.406 4.723,-25.125 9.438,-21.316 3.957,-7.918 22.687,-31.367 13.399,-8.68 12.484,-7.004 8.68,-4.719 5.48,-10.965 1.676,-10.203 -2.438,-5.632 -0.761,-3.805 -3.957,0 -6.243,-9.442 -1.675,14.922 -3.809,9.442 -7.762,10.199 -4.875,3.809 -8.523,0.914 -6.395,4.718 -2.285,-0.761 -10.199,-1.676 1.52,4.722 0,4.719 -7.762,6.395 -10.203,3.808 -2.434,10.203 -3.199,5.481 1.523,8.68 0,2.433 -10.05,3.809 -4.872,0 -2.285,1.676 -0.757,0.761 1.519,4.719 7.156,7.918 -0.761,4.566 -8.676,6.247 -4.723,0.91 -1.519,0 -2.438,6.246 0.762,4.719 7.156,5.48 0.762,3.961 0,2.281 -11.727,7.918 -0.91,0 -1.523,1.524 7.918,8.679 -1.676,5.481 -15.684,18.121 -0.761,0 -1.52,1.523 9.437,3.957 4.719,5.332 -11.113,8.828 -23.598,14.77 -5.328,5.637 16.442,-8.68 27.406,-9.441 0,0"
         style="fill:#c3c2b7;fill-opacity:1;fill-rule:nonzero;stroke:none"
         id="path29977" /><path
         d="m 668.715,477.367 1.519,-2.285 -0.757,-2.281 -3.047,3.804 -1.676,6.243 2.437,0 1.524,-5.481 0,0"
         style="fill:#231f20;fill-opacity:1;fill-rule:nonzero;stroke:none"
         id="path29979" /><path
         d="m 144.355,462.598 8.68,-7.918 3.043,-1.676 6.399,-9.441 13.394,-10.047 12.488,-2.438 0.758,-0.762 1.524,0 1.675,2.286 0.762,0.914 -5.48,7.765 -1.524,7.918 1.524,10.199 1.519,1.524 3.961,-4.719 4.719,-13.398 10.961,-8.528 14.16,-8.679 6.242,-0.762 0.762,-0.762 -8.676,0 -14.16,-4.871 -7.766,4.11 -25.121,-0.762 -11.722,6.094 -3.047,2.433 -7.918,8.68 0,2.285 -7.918,9.437 -7,20.407 0.758,4.718 4.57,-3.042 2.433,-10.965 0,0"
         style="fill:#cac8b9;fill-opacity:1;fill-rule:nonzero;stroke:none"
         id="path29981" /><path
         d="m 689.875,470.363 -0.758,-3.199 -0.762,0 -0.761,0.762 -2.285,-3.043 0,-2.285 -2.434,1.523 1.672,5.328 3.047,2.438 0,-0.762 2.281,-0.762 0,0"
         style="fill:#231f20;fill-opacity:1;fill-rule:nonzero;stroke:none"
         id="path29983" /><path
         d="m 703.273,464.883 0,-1.524 -2.281,0 -1.523,2.286 -4.11,-3.809 0,-1.676 -1.523,2.438 0.762,4.566 1.672,1.524 3.199,0 3.804,-3.805 0,0"
         style="fill:#231f20;fill-opacity:1;fill-rule:nonzero;stroke:none"
         id="path29985" /><path
         d="m 654.555,435.797 0,-1.52 -2.285,-0.761 -3.196,10.047 0,2.437 2.434,0 3.047,-10.203 0,0"
         style="fill:#231f20;fill-opacity:1;fill-rule:nonzero;stroke:none"
         id="path29987" /><path
         d="m 724.59,442.805 0,-2.285 -0.762,0 -0.914,3.043 0.914,0 0.762,-0.758 0,0"
         style="fill:#231f20;fill-opacity:1;fill-rule:nonzero;stroke:none"
         id="path29989" /><path
         d="m 732.355,433.516 0,-2.438 -0.761,-0.762 -3.957,3.2 2.281,3.957 1.676,0 0.761,-3.957 0,0"
         style="fill:#231f20;fill-opacity:1;fill-rule:nonzero;stroke:none"
         id="path29991" /><path
         d="m 661.711,432.602 0,-0.762 -0.762,-0.762 -2.437,0 -2.434,2.438 0.762,2.281 1.672,0 3.199,-3.195 0,0"
         style="fill:#231f20;fill-opacity:1;fill-rule:nonzero;stroke:none"
         id="path29993" /><path
         d="m 669.477,425.598 -2.286,-0.762 -1.523,3.047 0.762,5.633 2.285,-3.2 0.762,-4.718 0,0"
         style="fill:#231f20;fill-opacity:1;fill-rule:nonzero;stroke:none"
         id="path29995" /><path
         d="m 741.797,420.875 -1.524,-2.434 -3.96,0 0,2.434 0.761,0.914 -3.957,2.285 -1.523,4.571 2.285,0 7.918,-7.77 0,0"
         style="fill:#231f20;fill-opacity:1;fill-rule:nonzero;stroke:none"
         id="path29997" /><path
         d="m 672.672,419.203 -0.762,0 -0.762,-0.762 0,6.395 2.286,-2.285 -0.762,-3.348 0,0"
         style="fill:#231f20;fill-opacity:1;fill-rule:nonzero;stroke:none"
         id="path29999" /><path
         d="m 677.391,416.156 -1.52,0 -1.523,1.524 2.285,7.156 0.758,0 0,-8.68"
         style="fill:#231f20;fill-opacity:1;fill-rule:nonzero;stroke:none"
         id="path30001" /><path
         d="m 684.547,410.676 -0.914,0 -1.52,1.523 0.762,7.918 0.758,1.672 1.676,-2.586 -0.762,-8.527 0,0"
         style="fill:#231f20;fill-opacity:1;fill-rule:nonzero;stroke:none"
         id="path30003" /><path
         d="m 693.836,411.438 -2.285,-1.524 -1.676,2.285 0,4.719 1.676,0 2.285,-5.48 0,0"
         style="fill:#231f20;fill-opacity:1;fill-rule:nonzero;stroke:none"
         id="path30005" /><path
         d="m 762.195,407.629 0,-0.914 0.762,-0.762 -5.48,-0.758 -0.762,0.758 4.719,2.438 0.761,0.761 0,1.524 -2.433,2.437 -6.242,0 0,0.758 12.636,-2.433 -3.961,-3.809 0,0"
         style="fill:#c4dbe4;fill-opacity:1;fill-rule:nonzero;stroke:none"
         id="path30007" /><path
         d="m 828.121,383.266 3.199,-3.196 0.762,0 0.758,0.762 8.68,-10.203 2.285,-0.762 0.761,3.961 21.313,-31.519 7.766,-6.243 30.753,-24.211 7.766,-5.332 18.121,-12.636 2.281,-1.676 3.2,-4.719 -1.676,-2.285 -7.004,-4.719 -24.359,-6.242 -24.211,0 -11.875,3.805 -3.957,3.199 -0.762,-0.762 -32.125,28.321 -10.352,7.765 -7.004,8.528 -10.964,7.918 -7.918,1.523 -10.2,6.242 -9.437,5.481 -0.762,4.722 -3.961,0 0.762,4.719 11.113,3.961 8.68,-1.523 5.328,1.523 3.199,3.957 -6.242,10.965 -2.285,9.437 3.047,-1.519 3.957,1.519 0,-0.761 16.594,-3.196 0.761,0.762 7.766,-2.437 3.961,0 1.519,1.675 -1.519,4.719 2.281,0 0,-1.523"
         style="fill:#c7b6a7;fill-opacity:1;fill-rule:nonzero;stroke:none"
         id="path30009" /><path
         d="m 844.414,373.066 c 0.457,-0.304 1.066,-0.761 1.52,-1.218 l 2.894,-4.266 c -8.832,0.305 -17.66,7.918 -25.273,10.813 2.285,0 5.937,-4.262 7.156,-6.547 -3.656,0 -13.856,1.066 -17.359,2.89 0.609,-1.215 1.218,-2.281 1.218,-3.5 -3.043,1.219 -8.523,2.285 -12.027,2.285 23.902,-17.968 28.168,-25.125 39.586,-44.918 2.894,-4.57 10.199,-11.878 13.703,-15.378 -12.484,0 -33.496,24.968 -44.914,30.453 0,-1.219 0,-6.094 0,-7.309 4.719,-2.285 13.246,-11.269 17.355,-14.773 l 0,-0.606 1.829,-0.609 c -6.547,0 -12.028,8.222 -17.356,8.222 -3.047,5.938 -24.668,13.856 -31.215,16.747 0,-0.61 1.219,-1.219 1.219,-1.672 l 1.219,0 0,-0.61 c 0.609,0 2.437,0 2.437,-1.218 l 1.063,0 0,-0.61 c -0.453,-0.609 -1.672,-0.914 -3.348,-0.914 l -0.762,0.457 -9.437,5.481 -0.762,4.722 -3.961,0 0.762,4.719 11.113,3.961 8.68,-1.523 5.328,1.523 3.199,3.957 -6.242,10.965 -2.285,9.437 3.047,-1.519 3.957,1.519 0,-0.761 16.594,-3.196 0.761,0.762 7.766,-2.437 3.961,0 1.519,1.675 -1.519,4.719 2.281,0 0,-1.523 3.199,-3.196 0.762,0 0.758,0.762 8.68,-10.203 2.285,-0.762 0.609,3.199"
         style="fill:#a69587;fill-opacity:1;fill-rule:nonzero;stroke:none"
         id="path30011" /><path
         d="m 831.32,354.793 -2.437,-2.285 -0.762,0.762 -1.523,0 -1.52,4.875 -5.633,3.043 -1.523,-2.282 0,-1.523 -4.57,-1.676 -7.153,4.719 1.52,6.246 3.047,2.433 11.875,-3.195 8.679,-11.117 0,0"
         style="fill:#231f20;fill-opacity:1;fill-rule:nonzero;stroke:none"
         id="path30013" /><path
         d="m 806.199,351.746 0.758,-0.758 -5.48,0 -3.957,2.282 -1.676,4.113 7.918,-4.875 2.437,-0.762 0,0"
         style="fill:#231f20;fill-opacity:1;fill-rule:nonzero;stroke:none"
         id="path30015" /><path
         d="m 820.203,346.266 3.199,0 3.957,-4.719 -3.195,0 -7.004,4.719 -1.523,2.437 2.285,0 2.281,-2.437 0,0"
         style="fill:#231f20;fill-opacity:1;fill-rule:nonzero;stroke:none"
         id="path30017" /><path
         d="m 773.922,340.785 9.437,-6.242 9.442,-4.723 1.519,-1.672 3.961,0 7.918,-4.418 10.961,-11.875 19.488,-14.921 13.399,-13.25 1.676,-1.52 0,-4.113 2.433,-2.281 -1.676,-4.723 -3.957,-3.805 -7.765,2.281 -10.199,6.247 -18.118,23.597 -10.203,13.25 -1.523,0 -8.676,13.246 -3.961,2.285 -2.433,-1.523 0,-2.133 10.199,-11.113 24.359,-30.457 6.395,-8.676 10.965,-8.68 7.765,-3.961 3.957,0 6.395,4.723 3.043,8.68 0,-11.879 -3.805,-4.566 -4.871,-3.2 -2.285,0 -11.114,1.524 -9.289,5.48 -15.679,13.403 -15.836,26.644 -6.09,8.68 -0.762,4.719 -7.156,6.242 -11.113,12.488 -14.008,7.766 1.523,3.195 8.68,-0.762 7.004,-3.957 0,0"
         style="fill:#a69587;fill-opacity:1;fill-rule:nonzero;stroke:none"
         id="path30019" /><path
         d="m 460.738,230.238 10.352,-10.961 12.484,-10.964 22.688,-6.395 12.636,-10.961 10.809,-20.406 5.633,-17.203 5.328,-20.559 3.352,-10.199 6.851,-8.527 3.957,-14.1607 1.676,-8.6796 3.957,-6.3946 0.762,-6.8554 0,-2.4336 -3.957,12.6367 -3.2,3.8086 -1.519,5.4804 -5.484,10.9612 -12.637,21.32 -7.762,22.84 0,2.281 -3.199,3.047 1.523,5.481 -2.285,1.675 -0.762,0.762 -4.718,-5.48 0.761,-3.2 3.196,-3.804 2.285,-13.403 1.523,-9.437 1.676,-26.649 7.762,-27.5582 7.004,-35.3281 -1.52,-8.6797 0.758,-4.7188 -1.52,2.4375 0,4.5664 -3.808,6.3946 -0.914,8.6796 -3.805,14.9219 -12.637,28.168 0.914,0.9141 -7.918,22.6877 -3.957,12.64 -0.761,13.246 0,12.637 0.761,0.762 -1.523,3.047 -0.762,0.914 -1.675,0 -3.196,-7.766 1.52,-32.281 0.914,-24.3633 1.523,-3.957 -2.437,-36.0899 0.914,-24.3594 -1.672,0 -7.004,47.1993 -3.047,38.3713 2.285,25.886 0.762,0.915 -3.047,9.441 0,7.004 -6.242,13.246 0,5.633 -3.805,5.484 -8.679,4.567 -3.957,0 -4.723,4.109 -36.082,33.652 -3.957,0.762 -7.766,8.68 -0.914,0.761 11.723,6.395 6.394,4.566 8.68,4.723 8.523,-7.766 10.965,-14.164 0,0"
         style="fill:#c7b6a7;fill-opacity:1;fill-rule:nonzero;stroke:none"
         id="path30021" /><path
         d="m 423.133,135.988 10.199,-3.199 15.684,-14.922 7.914,-8.679 11.722,-12.4849 -4.718,-1.5234 -7.766,-8.6797 0,-8.5273 3.047,-18.2696 -1.524,0.9141 -6.394,12.4844 -12.484,14.3125 -3.196,7.7656 -10.965,12.4843 -10.199,19.797 -7.765,13.246 -2.286,8.527 8.528,-4.566 10.203,-8.68 0,0"
         style="fill:#b3a396;fill-opacity:1;fill-rule:nonzero;stroke:none"
         id="path30023" /><path
         d="m 547.063,99.9023 3.808,-8.6796 3.957,-10.2032 -8.523,-3.0468 -3.2,-4.8711 -0.761,-8.5274 0,-2.2851 -7.918,32.8906 -3.805,13.2463 -0.914,7.918 -0.762,16.445 12.485,-25.125 5.633,-7.7617 0,0"
         style="fill:#b3a396;fill-opacity:1;fill-rule:nonzero;stroke:none"
         id="path30025" /><path
         d="m 407.449,98.2266 7.918,-9.2891 6.242,-8.6797 21.161,-24.3633 7.765,-11.875 -8.523,2.4336 -8.68,0 -2.285,-0.7578 -6.395,-9.4414 0,-1.6758 -0.761,-0.7617 -10.2,26.8008 -6.242,9.4375 -10.961,23.6016 -7.004,18.7307 -1.675,5.48 1.675,3.961 13.246,-17.969 4.719,-5.6324 0,0"
         style="fill:#b3a396;fill-opacity:1;fill-rule:nonzero;stroke:none"
         id="path30027" /><path
         d="m 521.18,72.3398 3.047,-9.289 0,-5.6328 4.718,-7.0039 -12.484,8.5273 -7.156,2.4375 -0.762,-0.7617 -1.52,3.1953 0,30.6055 -1.523,21.164 10.047,-29.8437 5.633,-13.3985 0,0"
         style="fill:#b3a396;fill-opacity:1;fill-rule:nonzero;stroke:none"
         id="path30029" /><path
         d="m 405.773,418.594 c -14.312,-7.156 -52.679,-16.75 -67.144,-16.75 -14.309,-28.778 -50.242,-43.242 -26.336,-81.461 l 2.434,0 c 2.437,-4.875 -4.872,-24.059 -4.872,-24.059 0,-31.062 -11.875,-40.656 26.493,-64.715 21.468,0 40.652,9.594 62.269,9.594 12.028,12.027 31.211,21.621 43.242,38.371 43.086,0 4.719,105.367 4.719,117.399 -14.312,9.59 -33.496,16.746 -40.805,21.621"
         style="fill:#ebeadf;fill-opacity:1;fill-rule:nonzero;stroke:none"
         id="path30031" /><path
         d="m 404.859,398.797 c -12.179,-6.09 -44.761,-14.313 -57.093,-14.313 -12.18,-24.515 -42.782,-36.695 -22.383,-69.129 0.609,0 1.371,0 1.98,0 2.133,-4.109 -3.957,-20.402 -3.957,-20.402 0,-26.496 -10.203,-34.715 22.379,-54.969 18.274,0 34.563,8.071 52.985,8.071 10.203,10.203 26.492,18.425 36.695,32.586 36.691,0 4.109,89.531 4.109,99.734 -12.332,8.223 -28.625,14.313 -34.715,18.422"
         style="fill:#f0efe6;fill-opacity:1;fill-rule:nonzero;stroke:none"
         id="path30033" /><path
         d="m 403.945,379.004 c -10.047,-5.024 -36.996,-11.727 -47.043,-11.727 -10.05,-20.25 -35.172,-30.297 -18.425,-56.945 0.457,0 1.066,0 1.675,0 1.676,-3.352 -3.347,-16.75 -3.347,-16.75 0,-21.926 -8.375,-28.625 18.422,-45.375 15.074,0 28.625,6.699 43.695,6.699 8.375,8.375 21.773,15.074 30.148,26.801 30.297,0 3.348,73.848 3.348,82.223 -10.047,6.699 -23.445,11.722 -28.473,15.074"
         style="fill:#f4f3ed;fill-opacity:1;fill-rule:nonzero;stroke:none"
         id="path30035" /><path
         d="m 403.035,359.211 c -7.918,-3.961 -29.082,-9.289 -37,-9.289 -7.914,-15.836 -27.707,-23.754 -14.465,-44.613 0.457,0 0.762,0 1.219,0 1.371,-2.743 -2.586,-13.25 -2.586,-13.25 0,-17.204 -6.547,-22.383 14.461,-35.629 11.879,0 22.535,5.328 34.41,5.328 6.547,6.547 17.055,11.879 23.602,21.015 23.75,0 2.738,58.012 2.738,64.559 -7.918,5.328 -18.422,9.289 -22.379,11.879"
         style="fill:#f6f6f1;fill-opacity:1;fill-rule:nonzero;stroke:none"
         id="path30037" /><path
         d="m 401.969,339.414 c -5.785,-2.894 -21.012,-6.699 -26.797,-6.699 -5.785,-11.418 -20.25,-17.207 -10.656,-32.434 0.453,0 0.757,0 1.062,0 0.914,-1.98 -1.976,-9.59 -1.976,-9.59 0,-12.488 -4.723,-16.293 10.656,-25.886 8.527,0 16.289,3.804 24.816,3.804 4.871,4.723 12.485,8.528 17.36,15.379 17.203,0 1.824,42.028 1.824,46.746 -5.633,3.961 -13.399,6.7 -16.289,8.68"
         style="fill:#fbfaf8;fill-opacity:1;fill-rule:nonzero;stroke:none"
         id="path30039" /><path
         d="m 401.055,319.773 c -3.657,-1.828 -13.246,-4.265 -16.75,-4.265 -3.653,-7.156 -12.637,-10.656 -6.696,-20.25 l 0.606,0 c 0.609,-1.219 -1.215,-6.09 -1.215,-6.09 0,-7.766 -2.895,-10.203 6.699,-16.141 5.328,0 10.199,2.438 15.528,2.438 3.046,2.89 7.765,5.328 10.812,9.59 10.809,0 1.215,26.343 1.215,29.386 -3.652,2.286 -8.371,4.114 -10.199,5.332"
         style="fill:#ffffff;fill-opacity:1;fill-rule:nonzero;stroke:none"
         id="path30041" /><path
         d="m 559.246,492.898 c -26.492,0 -57.555,-12.027 -76.738,-12.027 0,-2.285 -7.156,-11.879 -9.59,-14.312 0,-21.625 9.59,-45.532 9.59,-62.43 14.312,0 40.652,-28.781 67.144,-28.781 7.157,7.308 28.778,14.468 38.368,26.496 l 2.285,0 c 14.465,19.183 2.433,45.527 2.433,64.715 l -33.492,26.339"
         style="fill:#ebeadf;fill-opacity:1;fill-rule:nonzero;stroke:none"
         id="path30043" /><path
         d="m 558.941,480.719 c -22.382,0 -48.875,-10.203 -65.164,-10.203 0,-1.981 -5.937,-10.203 -8.07,-12.18 0,-18.426 8.07,-38.676 8.07,-52.988 12.18,0 34.711,-24.516 57.094,-24.516 6.09,6.09 24.359,12.18 32.582,22.383 0.762,0 1.371,0 1.981,0 12.332,16.445 2.129,38.828 2.129,55.121 -9.59,7.461 -19.032,14.922 -28.622,22.383"
         style="fill:#f0efe6;fill-opacity:1;fill-rule:nonzero;stroke:none"
         id="path30045" /><path
         d="m 558.789,468.535 c -18.426,0 -40.195,-8.375 -53.746,-8.375 0,-1.676 -5.023,-8.375 -6.699,-10.047 0,-15.074 6.699,-31.976 6.699,-43.703 10.199,0 28.621,-20.097 47.047,-20.097 5.023,5.023 20.098,10.05 26.949,18.425 0.453,0 1.063,0 1.672,0 10.051,13.399 1.676,31.973 1.676,45.375 -7.918,6.09 -15.684,12.332 -23.598,18.422"
         style="fill:#f4f3ed;fill-opacity:1;fill-rule:nonzero;stroke:none"
         id="path30047" /><path
         d="m 558.637,456.355 c -14.465,0 -31.672,-6.546 -42.176,-6.546 0,-1.371 -3.957,-6.547 -5.328,-7.918 0,-11.879 5.328,-25.125 5.328,-34.262 7.918,0 22.383,-15.836 36.848,-15.836 3.957,3.961 15.832,7.918 21.16,14.465 0.457,0 0.914,0 1.371,0 7.918,10.508 1.219,25.125 1.219,35.633 -6.09,4.871 -12.332,9.742 -18.422,14.464"
         style="fill:#f6f6f1;fill-opacity:1;fill-rule:nonzero;stroke:none"
         id="path30049" /><path
         d="m 558.484,444.172 c -10.507,0 -22.992,-4.719 -30.757,-4.719 0,-0.914 -2.891,-4.871 -3.805,-5.785 0,-8.68 3.805,-18.273 3.805,-24.973 5.789,0 16.293,-11.418 26.949,-11.418 2.894,2.891 11.422,5.633 15.226,10.504 0.457,0 0.762,0 1.067,0 5.785,7.614 0.914,18.274 0.914,25.887 -4.418,3.5 -8.985,7.004 -13.399,10.504"
         style="fill:#fbfaf8;fill-opacity:1;fill-rule:nonzero;stroke:none"
         id="path30051" /><path
         d="m 558.332,431.992 c -6.699,0 -14.465,-2.894 -19.184,-2.894 0,-0.61 -1.828,-3.043 -2.437,-3.653 0,-5.328 2.437,-11.422 2.437,-15.531 3.5,0 10.2,-7.309 16.747,-7.309 1.828,1.829 7.156,3.653 9.593,6.7 l 0.61,0 c 3.5,4.718 0.605,11.418 0.605,16.14 l -8.371,6.547"
         style="fill:#ffffff;fill-opacity:1;fill-rule:nonzero;stroke:none"
         id="path30053" /><path
         d="m 528.031,804.738 c -2.433,-12.027 -9.59,-28.777 -14.461,-40.804 l -4.722,0 c -2.434,2.433 -7.157,7.156 -7.157,9.589 0,-4.718 2.286,-50.398 9.594,-50.398 0,-9.594 -4.871,-16.75 0,-28.777 l -2.437,-2.285 c -4.871,0 -9.59,-4.872 -12.028,-7.309 0,-7.156 -2.433,-14.313 0,-21.469 -23.902,0 -19.031,-43.246 -19.031,-59.992 l 4.719,-2.438 0,-2.437 c 2.437,-2.434 16.75,-7.156 21.469,-7.156 12.027,12.031 7.308,33.5 12.027,47.965 l 2.437,0 c 2.434,7.156 12.028,40.808 23.903,40.808 0,40.348 12.941,84.504 30.148,126.988 l 0.453,3.348 3.961,10.203 8.68,16.903 c 6.848,14.921 14.004,29.539 21.008,43.546 l 0.152,0 -4.719,-0.761 -4.718,-2.434 -13.246,-10.203 -4.114,-4.566 -5.48,-3.961 0,-2.438 -6.242,-6.242 -17.356,-30.605 -3.047,-0.762 -5.48,3.961 0,14.922 1.676,1.523 1.828,16.293 c -0.305,2.738 -0.457,5.785 -0.61,8.828 l -0.457,2.285 0.305,1.067 c -0.305,6.394 -0.305,13.093 -0.305,18.273 -3.504,-1.676 -8.375,-7.008 -12.636,-13.555 l 0,-5.023 -1.524,-9.289 -3.957,-10.961 -0.152,-10.355 c 0.758,-8.071 -0.457,-24.364 1.519,-32.282"
         style="fill:#ebeadf;fill-opacity:1;fill-rule:nonzero;stroke:none"
         id="path30055" /><path
         d="m 121.215,445.695 c 0.914,-3.195 1.676,-6.09 1.676,-7.918 4.718,0 11.875,-2.433 16.746,-2.433 0,-2.438 2.437,-4.723 2.437,-7.156 -7.461,-12.946 -27.711,-10.204 -43.0896,-5.028 l 2.1326,0.914 8.832,-0.761 8.524,-2.438 9.441,1.676 0.762,0.762 0,0.761 -12.637,2.285 -4.57,2.286 -6.395,0 1.676,3.957 -1.676,2.437 -1.519,9.285 0,12.641 -3.2,3.195 0.762,7.766 1.676,2.437 3.043,-1.675 5.633,-11.723 9.746,-11.27 0,0 z m -28.3205,-24.82 -1.9765,-0.758 -23.4492,-0.914 -11.7227,2.586 -14.3125,10.051 -10.8086,0.762 -5.6328,-2.286 3.1953,-3.957 3.9609,-0.761 3.043,-3.047 0.9141,-4.11 7.7656,-7.765 2.4336,-1.828 c 15.0742,-0.61 31.2148,-4.11 47.6562,-7.157 l 4.1094,1.067 2.2847,-1.524 9.594,0 2.281,-1.523 -0.914,-0.914 c 7.918,-1.067 15.836,-1.824 23.45,-1.824 -4.719,0 -9.594,4.871 -14.313,4.871 4.719,0 19.184,4.719 23.902,4.719 -13.246,0 -35.625,7.613 -51.4605,14.312 l 0,0 z M 42.957,394.688 c 0.4571,-2.895 0.7618,-5.481 0.7618,-7.309 7.1562,0 14.3125,-2.438 21.621,0 -3.3515,-3.352 -10.0507,-5.481 -16.2929,-7.309 l -1.9805,0 -6.3945,3.196 -5.4805,3.047 -13.2461,0 -7.1562,3.199 -2.2813,2.281 -1.6758,0 1.6758,1.523 -3.96092,3.352 12.63672,2.281 12.4844,-1.519 4.7226,-1.676 4.5664,-1.066 0,0 z m 29.0821,-19.34 c 13.8515,-1.825 28.1639,-4.567 38.8199,-7.157 -10.9606,0 -38.0621,-8.07 -49.9371,-16.75 l -2.1328,0.305 -3.9571,2.285 -9.2851,-1.523 -11.1172,0 -3.8047,1.523 -3.3516,0 25.2735,8.68 10.9648,11.117 7.918,1.52 0.6094,0"
         style="fill:#cac8b9;fill-opacity:1;fill-rule:nonzero;stroke:none"
         id="path30057" /><path
         d="m 830.102,319.773 c 0.609,-0.609 1.828,-3.046 3.043,-3.046 19.793,-29.844 53.289,-28.778 84.5,-28.778 0,0.61 1.828,1.219 2.437,1.219 0,1.219 1.676,2.434 1.676,4.262 l 1.828,1.828 c 1.215,0 3.043,-1.219 4.262,-1.219 0.609,-1.219 2.285,-2.437 2.285,-3.652 l 0,-1.219 c 0,-0.609 -1.067,-3.504 -2.285,-3.504 0,-7.918 -17.965,-6.699 -21.621,-7.918 -10.2,-3.5 -24.055,1.828 -33.497,1.828 -1.824,1.828 -15.07,7.309 -15.07,10.813 -1.828,0 -2.437,1.215 -3.047,2.433 -2.89,0 -5.937,7.157 -8.984,7.157 0,1.828 -6.543,6.093 -7.152,7.156 -0.61,0 -1.219,0.609 -1.829,0.609 0,1.828 -5.937,4.875 -7.156,6.699 -0.609,0 -1.828,1.219 -2.437,1.219 0,1.676 -3.5,5.938 -5.328,5.938 3.046,0 5.937,-2.434 8.375,-1.825"
         style="fill:#dbcbbf;fill-opacity:1;fill-rule:nonzero;stroke:none"
         id="path30059" /><path
         d="m 779.098,336.98 c 0.609,-1.218 5.48,-5.332 5.48,-7.16 0.914,-0.457 1.981,-1.062 3.043,-1.976 l 0.457,0.304 3.961,-2.285 8.676,-13.246 1.523,0 10.203,-13.25 3.957,-5.328 c 1.676,-0.762 3.2,-1.219 4.719,-1.219 -1.219,0.61 -1.219,2.438 -1.219,3.657 11.422,0 16.141,-16.293 27.559,-16.293 0,8.375 -8.676,13.246 -14.312,19.488 l -15.985,12.183 -3.504,3.805 c -5.176,4.113 -10.047,8.528 -15.222,12.488 l -4.114,0 -1.519,1.672 -9.442,4.723 -4.566,3.043 c 0,-0.152 0.152,-0.305 0.305,-0.606 l 0,0 z m 21.922,-30 4.265,-5.328 c -1.219,0.762 -2.285,1.524 -3.351,1.981 -0.153,0.914 -0.457,2.133 -0.914,3.347"
         style="fill:#9c7d66;fill-opacity:1;fill-rule:nonzero;stroke:none"
         id="path30061" /><path
         d="m 831.32,363.93 c 8.371,-7.157 11.418,-17.969 16.746,-26.95 7.766,-12.945 21.012,-16.597 32.43,-25.582 l 0,-0.609 c 0.609,0 1.676,-0.609 2.285,-0.609 l 0,1.828 4.871,0 c 0,13.551 -21.621,23.754 -29.382,31.672 -5.332,5.328 -8.985,13.703 -14.313,19.183 0.457,-1.218 3.5,-8.527 3.5,-10.203 -2.434,0 -7.156,3.504 -7.156,6.551 -0.61,0 -9.59,4.719 -8.981,4.719"
         style="fill:#dbcbbf;fill-opacity:1;fill-rule:nonzero;stroke:none"
         id="path30063" /><path
         d="m 300.871,215.012 c 10.203,-3.957 16.141,-10.961 28.32,-10.961 0,-1.067 -0.304,-2.59 -0.609,-4.113 l -9.894,4.417 -16.446,9.29 -1.371,1.367 0,0 z m 37.606,-22.688 c 6.699,-1.062 14.769,-1.367 18.273,-1.367 l 0,-3.656 c -2.133,-2.133 -3.352,-5.024 -3.504,-8.223 l -14.769,13.246 0,0 z m 15.531,-15.531 c 1.219,-1.215 2.894,-3.195 3.957,-5.023 2.285,0 7.156,-2.438 8.375,-2.438 -1.219,-1.215 -2.434,-3.652 -3.652,-3.652 0,-8.375 4.871,-8.375 9.589,-10.813 l 1.219,-1.066 c 1.219,-1.215 -2.437,-6.09 -3.652,-7.309 0.91,-0.91 2.586,-10.504 1.672,-14.769 l -8.828,26.191 -0.915,5.481 -6.089,9.441 -2.438,2.285 0.762,0.914 0,0.758 z M 422.219,8.39063 c 1.062,0.91015 1.976,1.82417 2.89,2.73827 l 4.418,-7.0039 -7.308,4.26563 0,0 z M 389.027,100.203 c -1.675,2.59 -3.199,5.332 -4.722,7.918 -2.129,3.961 -2.129,8.223 -1.825,12.641 l 2.129,-10.66 4.418,-9.899 0,0 z m -6.699,37.613 c -0.762,2.282 -1.98,4.262 -4.113,6.395 0,1.066 1.219,4.719 1.219,5.937 4.871,0 8.375,-2.437 12.027,-5.937 0,-6.547 0.762,-12.945 2.285,-19.188 l -4.262,11.727 -4.113,3.195 -1.519,0 -1.524,-1.519 0,-0.61 z m 19.945,0.61 -1.218,2.281 -3.809,14.16 2.285,2.285 1.524,0 8.679,-4.566 16.442,-11.879 0,17.816 c -2.285,0 -5.938,-3.656 -9.594,-3.656 -3.5,3.656 -8.371,8.528 -10.656,12.031 -6.09,1.219 -13.246,4.872 -19.184,4.872 0,-3.5 9.442,-29.997 15.531,-33.344 l 0,0 z m -113.886,74.152 0,-0.152 c 2.285,-4.723 11.875,-7.156 16.75,-9.594 0,-0.914 0.304,-1.98 1.062,-2.894 l 36.848,-20.708 3.043,0 -0.762,0.762 -15.68,14.16 -27.406,14.161 -7.156,6.246 0.914,0.757 -7.613,-2.738"
         style="fill:#b09e8f;fill-opacity:1;fill-rule:nonzero;stroke:none"
         id="path30065" /><path
         d="m 441.25,252.168 c -7.004,-15.531 7.309,-22.387 17.355,-32.434 -4.718,-19.187 26.34,-22.839 38.215,-34.871 0,-1.215 -1.218,-4.718 -1.218,-7.156 1.218,-1.219 5.937,-3.652 8.375,-4.871 0,-3.352 -0.762,-9.289 -1.829,-15.684 l -2.281,-5.328 0.305,-5.179 c -1.676,-8.219 -3.504,-16.137 -4.57,-20.555 l -1.215,0 c -3.961,-12.332 4.261,-31.8244 -1.067,-44.7658 l -2.742,35.0198 2.285,25.886 0.762,0.915 -3.047,9.441 0,7.004 -6.242,13.246 0,5.633 -3.805,5.484 -8.679,4.567 -3.957,0 -4.723,4.109 -36.082,33.652 -3.957,0.762 -7.766,8.68 -0.914,0.761 11.723,6.395 6.394,4.566 8.68,4.723 0,0"
         style="fill:#b09e8f;fill-opacity:1;fill-rule:nonzero;stroke:none"
         id="path30067" /></g></g></svg>