<?xml version="1.0" encoding="UTF-8" standalone="no"?>
<!-- Created with Inkscape (http://www.inkscape.org/) -->

<svg
   xmlns:dc="http://purl.org/dc/elements/1.1/"
   xmlns:cc="http://creativecommons.org/ns#"
   xmlns:rdf="http://www.w3.org/1999/02/22-rdf-syntax-ns#"
   xmlns:svg="http://www.w3.org/2000/svg"
   xmlns="http://www.w3.org/2000/svg"
   xmlns:sodipodi="http://sodipodi.sourceforge.net/DTD/sodipodi-0.dtd"
   xmlns:inkscape="http://www.inkscape.org/namespaces/inkscape"
   id="svg25009"
   version="1.1"
   inkscape:version="0.48.1 "
   width="148.75"
   height="133.75"
   xml:space="preserve"
   sodipodi:docname="Duck_13.pdf"><metadata
     id="metadata25015"><rdf:RDF><cc:Work
         rdf:about=""><dc:format>image/svg+xml</dc:format><dc:type
           rdf:resource="http://purl.org/dc/dcmitype/StillImage" /><dc:title></dc:title></cc:Work></rdf:RDF></metadata><defs
     id="defs25013" /><sodipodi:namedview
     pagecolor="#ffffff"
     bordercolor="#666666"
     borderopacity="1"
     objecttolerance="10"
     gridtolerance="10"
     guidetolerance="10"
     inkscape:pageopacity="0"
     inkscape:pageshadow="2"
     inkscape:window-width="640"
     inkscape:window-height="480"
     id="namedview25011"
     showgrid="false"
     inkscape:zoom="2.1757009"
     inkscape:cx="74.375"
     inkscape:cy="66.875"
     inkscape:window-x="0"
     inkscape:window-y="0"
     inkscape:window-maximized="0"
     inkscape:current-layer="g25017" /><g
     id="g25017"
     inkscape:groupmode="layer"
     inkscape:label="Duck_13"
     transform="matrix(1.25,0,0,-1.25,0,133.75)"><g
       id="g25019"
       transform="scale(0.24,0.24)"><path
         d="m 345.934,199.184 c 13.781,12.363 26.886,21.234 44.066,29.543 19.191,8.785 34.609,-2.461 51.563,-11.219 4.503,-1.063 8.535,-0.11 13.039,-1.176 13.039,-1.172 30.839,6.75 39.222,5.008 6.41,-1.328 -11.722,-13.399 -40.16,-19.051 -28.711,-5.707 -17.051,-17.851 -44.305,-28.539 -9.593,-4.391 -23.109,-1.203 -32.226,-7.609 -4.031,-0.95 -8.649,-8.422 -9.711,-12.926 C 357.043,89.0898 285,69.9531 233.941,43.0117 217.238,32.6875 208.555,26.793 191.691,19.9648 c -11.027,-5.4531 -14.265,1.1954 -22.433,-9.2421 -2.016,-0.4766 -7.856,-10.257856 -8.278,-8.45707 -0.214,0.89843 -0.425,1.79687 1.305,3.15625 -6.043,-0.47657 -13.394,-4.11329 -12.512,0.84375 1.942,0.46093 3.887,0.91796 3.676,1.82031 -6.258,0.42187 -13.824,-2.31641 -18.347,-0.53516 -2.372,1.33985 3.461,2.71872 3.25,3.61722 -2.582,2.2422 -7.778,-1.83597 -11.664,-2.75394 1.304,3.16014 -1.637,0.37891 -9.219,-3.53906 C 115.457,4.39844 92.8789,5.44922 93.3555,3.43359 70.7188,0.21875 72.7891,4.96094 50.7422,8.26172 46.2383,9.32422 2.03516,7.39453 2.62109,13.9141 3.68359,18.418 38.5156,33.0195 44.5586,34.4492 c 9.1211,6.4063 19.1953,8.7852 27.8398,17.2031 14.211,11.8633 25.9336,25.2657 42.1606,37.6055 7.109,5.9297 8.281,18.9692 0.336,25.5972 0,0 -2.012,-0.476 -4.028,-0.949 1.653,11.024 -6.297,17.653 -4.644,28.676 -0.477,2.016 -2.489,1.539 -4.504,1.063 -2.9651,3.554 1.648,11.023 -1.317,14.578 -8.4215,8.644 -3.6911,24.648 -9.1481,29.738 -11.8633,14.215 -21.2344,26.887 -32.6211,39.086 -10.4375,8.168 -16.8437,17.289 -23.25,26.41 -2.9648,3.555 0.586,6.52 0.1133,8.535 -2.9688,3.551 -7.9492,6.629 -8.8984,10.66 0.5859,6.516 -8.4219,8.645 -5.3438,13.621 2.0156,0.477 6.043,1.43 5.5664,3.442 -3.4414,5.57 -10.4336,8.172 -9.8476,14.691 2.0156,0.473 6.0429,1.426 5.5664,3.442 -12.4493,7.691 -13.76566,22.269 -18.63285,33.879 2.01563,0.476 4.03125,0.953 3.55469,2.964 -2.96485,3.555 -6.40625,9.122 -5.34375,13.625 1.53906,2.493 6.99219,-2.601 9.48441,-4.14 2.6015,6.996 -5.34379,13.625 -4.75785,20.144 C 51.4414,329.559 103.258,299.258 156.496,262.914 c 5.457,-5.09 8.899,-10.66 14.356,-15.75 -6.184,26.188 -16.872,53.438 -16.536,79.035 0.586,6.52 -6.882,11.137 -4.757,20.145 3.078,4.98 -0.364,10.547 0.222,17.066 1.539,2.492 6.52,-0.586 7.582,3.918 -0.949,4.027 -1.902,8.059 -2.851,12.086 l 4.027,0.953 c 0.59,6.516 -3.328,14.098 -3.219,22.633 0,0 6.047,1.426 5.571,3.441 -0.953,4.028 -2.379,10.071 -0.84,12.563 7.582,3.914 0.699,15.051 8.758,16.953 0.949,-4.027 2.375,-10.07 5.929,-7.105 6.043,1.425 -2.855,12.086 6.742,16.476 -0.222,-17.066 5.598,-32.703 15.446,-47.39 5.453,-5.094 8.422,-8.649 11.863,-14.215 14.238,-24.285 22.438,-49.996 38.691,-73.805 6.883,-11.137 13.766,-22.27 18.633,-33.879 4.395,-9.598 8.313,-17.18 6.66,-28.203 -1.652,-11.023 0.727,-21.098 -0.921,-32.117 0.363,-10.551 1.675,-25.125 6.656,-28.203 19.445,-10.297 48.121,-5.653 67.426,11.668"
         style="fill:#404040;fill-opacity:1;fill-rule:nonzero;stroke:none"
         id="path25021" /><path
         d="m 412.59,214.121 c -2.277,1.477 -14.035,0.199 -17.719,-2.293 -3.687,-2.488 -5.785,-6.765 -1.918,-5.043 3.867,1.723 6.512,5.32 8.16,3.278 1.649,-2.043 6.313,-0.399 6.992,1.652 0.684,2.051 2.946,0.695 4.54,0.531 1.593,-0.164 1.777,0.688 -0.055,1.875"
         style="fill:#ffffff;fill-opacity:1;fill-rule:nonzero;stroke:none"
         id="path25023" /><path
         d="m 70.2969,312.742 c 16.6875,-11.914 82.5581,-50.156 90.1521,-64.312 7.598,-14.157 66.891,-96.391 78.414,-97.922 11.528,-1.531 -26.058,-15.723 -34.914,-21.004 -8.855,-5.281 -2.883,9.953 3.723,15.766 6.601,5.812 9.98,5.015 -17.875,44.16 -27.852,39.148 -40.195,64.414 -61.625,76.367 -21.434,11.953 -51.465,37.824 -62.1681,44.867 -10.7031,7.043 -4.6601,8.473 4.293,2.078"
         style="fill:#bfbfbf;fill-opacity:1;fill-rule:nonzero;stroke:none"
         id="path25025" /><path
         d="m 251.016,186.871 c 8.023,-0.371 16.918,-1.851 20.175,-2.148 3.262,-0.293 -0.593,2.519 -1.433,15.082 -0.836,12.562 -2.195,43.078 -1.313,52.855 0.879,9.781 -8.82,26.098 -18.285,41.406 -9.465,15.313 -33.824,62.196 -37.265,67.766 -3.442,5.566 -8.477,4.375 -4.68,-2.703 3.797,-7.078 39.433,-74.691 45.015,-89.324 5.583,-14.633 5.149,-28.559 0.45,-42.43 -4.7,-13.867 -14.34,-40.602 -27.196,-44.699 -12.855,-4.098 9.157,-0.496 15.082,1.433 5.922,1.93 5.684,2.938 9.45,2.762"
         style="fill:#bfbfbf;fill-opacity:1;fill-rule:nonzero;stroke:none"
         id="path25027" /></g></g></svg>