<?xml version="1.0" encoding="UTF-8" standalone="no"?>
<!-- Created with Inkscape (http://www.inkscape.org/) -->

<svg
   xmlns:dc="http://purl.org/dc/elements/1.1/"
   xmlns:cc="http://creativecommons.org/ns#"
   xmlns:rdf="http://www.w3.org/1999/02/22-rdf-syntax-ns#"
   xmlns:svg="http://www.w3.org/2000/svg"
   xmlns="http://www.w3.org/2000/svg"
   xmlns:sodipodi="http://sodipodi.sourceforge.net/DTD/sodipodi-0.dtd"
   xmlns:inkscape="http://www.inkscape.org/namespaces/inkscape"
   id="svg25123"
   version="1.1"
   inkscape:version="0.48.1 "
   width="155"
   height="168.75"
   xml:space="preserve"
   sodipodi:docname="Duck_08.pdf"><metadata
     id="metadata25129"><rdf:RDF><cc:Work
         rdf:about=""><dc:format>image/svg+xml</dc:format><dc:type
           rdf:resource="http://purl.org/dc/dcmitype/StillImage" /><dc:title></dc:title></cc:Work></rdf:RDF></metadata><defs
     id="defs25127" /><sodipodi:namedview
     pagecolor="#ffffff"
     bordercolor="#666666"
     borderopacity="1"
     objecttolerance="10"
     gridtolerance="10"
     guidetolerance="10"
     inkscape:pageopacity="0"
     inkscape:pageshadow="2"
     inkscape:window-width="640"
     inkscape:window-height="480"
     id="namedview25125"
     showgrid="false"
     inkscape:zoom="1.7244444"
     inkscape:cx="77.5"
     inkscape:cy="84.375"
     inkscape:window-x="0"
     inkscape:window-y="0"
     inkscape:window-maximized="0"
     inkscape:current-layer="g25131" /><g
     id="g25131"
     inkscape:groupmode="layer"
     inkscape:label="Duck_08"
     transform="matrix(1.25,0,0,-1.25,0,168.75)"><g
       id="g25133"
       transform="scale(0.24,0.24)"><path
         d="m 403.262,123.828 3.902,-15.898 3,-9.6019 4.5,-9.8984 1.797,-6.3008 0.605,-3 0,-3 -1.203,-8.6992 -3.3,-13.8008 -0.899,-3 -1.199,-2.1016 -1.504,-1.1992 -1.5,-0.5976 -1.797,0 -2.101,0.5976 -4.5,2.1016 -7.196,4.8008 -10.504,6.8984 -5.402,3.6055 -4.5,4.1953 -3.598,3.5976 -2.101,3.6016 37.199,47.1011 0.301,0.598"
         style="fill:#ffffff;fill-opacity:1;fill-rule:nonzero;stroke:none"
         id="path25135" /><path
         d="m 403.262,123.828 c 2.101,-8.398 4.199,-22.199 11.402,-35.3983 3.297,-9.6016 4.199,-11.6992 -2.101,-34.8008 -2.098,-9 -7.2,-8.1016 -13.5,-4.1992 -6,4.1992 -30.301,17.6992 -33.301,26.6992 l 37.199,47.1011 0.301,0.598 z"
         style="fill:none;stroke:#231f20;stroke-opacity:1;stroke-width:2.39583;stroke-linecap:butt;stroke-linejoin:miter;stroke-miterlimit:4;stroke-dasharray:none"
         id="path25137" /><path
         d="m 371.762,76.7305 -0.598,-0.6016 0.297,-0.8984 2.102,-2.4024 3.898,-3 4.801,-3.3008 5.402,-3.2968 5.399,-3 4.8,-2.1016 3.301,-0.6016 2.098,0 1.5,0.6016 0.902,0.8984 0.297,0.9024 0,2.6992 -0.598,3.3008 -1.195,15.8984 -1.207,11.1016 -1.797,9.5973 -1.801,-2.6989 -5.402,-6.3008 -4.199,-4.1992 -5.098,-4.1992 -6,-4.5 -6.902,-3.8984"
         style="fill:#231f20;fill-opacity:1;fill-rule:nonzero;stroke:none"
         id="path25139" /><path
         d="m 371.762,76.7305 c -3.899,-1.8008 22.5,-19.2032 29.402,-19.2032 6.899,0 4.797,3.6016 4.199,8.4024 -0.3,4.5 -1.5,25.8008 -4.199,36.5973 0,0 -9.601,-15.5973 -29.402,-25.7965 z"
         style="fill:none;stroke:#231f20;stroke-opacity:1;stroke-width:1.19583;stroke-linecap:butt;stroke-linejoin:miter;stroke-miterlimit:4;stroke-dasharray:none"
         id="path25141" /><path
         d="m 128.762,193.43 2.402,1.199 2.098,1.801 1.801,2.699 4.5,-3.602 3.601,-2.398 3.598,-1.199 -2.699,-5.102 -5.102,-12.898 -7.199,-18.602 -1.5,-0.898 -2.699,-1.5 -1.5,0 -1.5,0.3 -0.899,1.5 -0.301,2.7 2.7,15.3 2.101,11.399 0.598,5.101 0,4.2"
         style="fill:#ffffff;fill-opacity:1;fill-rule:nonzero;stroke:none"
         id="path25143" /><path
         d="m 128.762,193.43 c 0,0 4.199,1.5 6.301,5.699 0.898,-0.899 7.5,-6.602 11.699,-6.899 -0.598,0.598 -15,-36.902 -15,-36.902 0,0 -8.399,-6.898 -8.399,2.102 0,2.097 5.7,26.699 5.399,36 z"
         style="fill:none;stroke:#231f20;stroke-opacity:1;stroke-width:2.39583;stroke-linecap:butt;stroke-linejoin:miter;stroke-miterlimit:4;stroke-dasharray:none"
         id="path25145" /><path
         d="m 200.461,265.43 2.402,-3.602 1.805,-3.598 1.195,-3.601 0.899,-3.602 0.902,-7.199 -0.301,-6.598 -0.902,-5.402 -1.496,-4.5 -1.504,-3.898 -4.5,3.898 -3.898,2.102 -3.899,1.199 -3.301,0 -2.699,-0.602 -2.101,-0.597 -1.801,-1.2 -6.301,-7.5 -6,-6 -3.297,-2.402 -3.301,-1.5 -0.601,-0.301 -1.196,-1.199 -3.304,-4.5 -4.801,-6 -5.699,-6.898 -4.199,1.8 -3.899,2.7 -4.5,3.597 -1.203,-3 -1.797,-2.699 -2.402,-2.699 -0.598,9.601 -0.902,4.2 -1.5,3.597 -2.098,4.5 -1.5,6 -0.301,3.301 0,3.301 0.598,3 1.203,3 3.297,6.601 1.203,3.899 0.598,4.5 0.601,2.398 1.801,2.703 2.699,2.7 3.301,2.699 3.297,2.101 3.602,1.797 3,1.203 3,0.297 13.8,2.703 20.098,0 16.5,-0.3"
         style="fill:#231f20;fill-opacity:1;fill-rule:nonzero;stroke:none"
         id="path25147" /><path
         d="m 200.461,265.43 c 14.102,-18.903 3,-42 3,-42 -11.695,12.898 -22.199,4.8 -22.199,4.8 0,0 -10.5,-14.402 -18.899,-17.402 -1.195,0.301 -7.5,-9.898 -15.601,-18.598 -5.399,1.2 -12.598,7.797 -12.598,7.797 -0.902,-3.898 -5.402,-8.398 -5.402,-8.398 0,6.601 -0.899,12.898 -3,17.398 -3,4.203 -6.301,15.903 -2.098,23.102 2.098,4.199 4.797,8.699 5.098,15 0.301,6.301 14.699,16.199 21.301,15.898 0,0 7.8,1.5 13.8,2.703 4.801,0.598 36.598,-0.3 36.598,-0.3 z"
         style="fill:none;stroke:#231f20;stroke-opacity:1;stroke-width:1.19583;stroke-linecap:butt;stroke-linejoin:miter;stroke-miterlimit:4;stroke-dasharray:none"
         id="path25149" /><path
         d="m 133.863,189.527 0.301,1.801 0.899,1.199 0.898,0.903 1.203,0.3 0.297,-0.601 0.301,-1.199 -0.301,-3.301 -1.199,-3 -0.899,-0.602 -0.902,0 -0.598,0.301 -0.3,0.902 -0.301,1.5 0.601,1.797"
         style="fill:#231f20;fill-opacity:1;fill-rule:nonzero;stroke:none"
         id="path25151" /><path
         d="m 133.863,189.527 c 0.301,2.703 3.301,4.203 3.301,4.203 0.899,-0.3 1.199,-2.402 0.297,-5.101 -0.297,-2.399 -1.5,-4.199 -3,-3.602 0,0 -1.5,2.102 -0.598,4.5 z"
         style="fill:none;stroke:#231f20;stroke-opacity:1;stroke-width:1.19583;stroke-linecap:butt;stroke-linejoin:miter;stroke-miterlimit:4;stroke-dasharray:none"
         id="path25153" /><path
         d="m 140.461,227.629 0.301,2.101 0.902,2.098 1.5,1.5 1.5,0.301 1.5,-0.301 1.5,-1.5 0.899,-2.098 0.3,-2.101 -0.3,-2.399 -0.899,-2.101 -1.5,-1.5 -1.5,-0.301 -1.5,0.301 -1.5,1.5 -0.902,2.101 -0.301,2.399"
         style="fill:#ffffff;fill-opacity:1;fill-rule:nonzero;stroke:none"
         id="path25155" /><path
         d="m 140.461,227.629 c 0,3.301 2.102,6 4.203,6 2.399,0 4.199,-2.699 4.199,-6 0,-3.602 -1.8,-6.301 -4.199,-6.301 -2.101,0 -4.203,2.699 -4.203,6.301 z"
         style="fill:none;stroke:#231f20;stroke-opacity:1;stroke-width:1.19583;stroke-linecap:butt;stroke-linejoin:miter;stroke-miterlimit:4;stroke-dasharray:none"
         id="path25157" /><path
         d="m 200.461,265.73 2.102,1.797 2.402,1.203 2.398,0.297 2.7,-3 1.8,-3.898 1.801,-5.399 0.598,-3.3 0.301,-3.602 0,-4.199 -0.602,-4.5 -1.199,-4.801 -1.496,-5.098 -2.703,-5.703 -3.301,-6 -1.199,1.203 -1.2,1.797 1.504,3.602 1.496,4.199 0.899,5.402 0.601,6.598 -0.902,7.199 -2.094,8.102 -1.804,3.898 -2.102,4.203"
         style="fill:#ffffff;fill-opacity:1;fill-rule:nonzero;stroke:none"
         id="path25159" /><path
         d="m 228.063,275.93 -6.899,-1.5 -6.301,-1.801 -7.5,-3 -3.3,-0.602 -2.102,-1.199 -1.199,-1.5 -0.899,-0.598 -12.601,0.598 -10.5,0 -6,0.301 -6,-0.602 -5.699,-1.199 -5.399,-1.199 -8.703,-3 -3.297,-1.5 -11.402,6.601 -8.699,6 -3.301,3 -2.399,2.7 -2.101,0 -3.598,0.597 -4.5,1.203 -4.801,1.797 -4.4997,2.102 -3.9024,2.398 -1.5,1.5 -0.8984,1.5 -0.8984,1.801 0,1.801 -1.8008,-0.602 -4.8008,-0.597 -16.5,-1.2 -20.6992,-0.902 -19.1992,0 -8.4024,3.602 -3.8984,2.097 -3.6016,3 -0.59764,1.203 0,0.899 0.59764,0.601 2.4024,1.5 4.7968,1.2 10.8008,2.699 19.1992,5.101 11.4024,3 12,2.399 12.3008,2.101 12.2968,1.5 8.4021,-0.3 11.399,-0.301 7.199,-0.899 8.102,-1.203 9.3,-2.398 11.098,-3.301 13.5,-5.398 21.605,-9 23.395,-10.801 10.203,-5.399 8.098,-4.8 0.301,0"
         style="fill:#231f20;fill-opacity:1;fill-rule:nonzero;stroke:none"
         id="path25161" /><path
         d="m 228.063,275.93 c 0,0 -11.098,-1.2 -20.7,-6.301 -5.699,0 -7.5,-3.899 -7.5,-3.899 -6,0.598 -19.797,0.598 -23.101,0.598 -15,2.102 -35.098,-7.199 -35.098,-7.199 0,0 -21.601,11.699 -25.801,18.301 -3.3,-0.903 -27.6013,5.097 -26.6989,14.699 0,0 -40.8008,-3.899 -63,-3.301 -5.7032,2.402 -11.7032,4.199 -15.9024,8.699 -1.80076,1.5 -0.59764,4.203 7.1992,5.403 7.5,0.898 46.2032,14.699 78,16.8 9.9021,-0.601 24.6021,1.797 55.5001,-8.402 9.301,-3.898 58.5,-23.098 77.102,-35.398 l 0,0 z"
         style="fill:none;stroke:#231f20;stroke-opacity:1;stroke-width:1.19583;stroke-linecap:butt;stroke-linejoin:miter;stroke-miterlimit:4;stroke-dasharray:none"
         id="path25163" /><path
         d="m 190.863,268.43 -6.3,-1.2 -5.395,-0.601 -5.105,0 -4.5,0.301 -7.5,1.5 -5.7,2.398 -3.902,2.699 -2.699,2.703 -1.801,2.399 -3.598,-2.399 -3.3,-1.203 -3,-0.597 -2.399,0 -2.101,0.597 -1.801,1.203 -1.199,1.797 -1.2,1.801 -1.8,4.199 -0.899,4.203 -0.301,4.2 -4.199,-2.7 -3.902,-1.5 -3.301,-0.902 -3.297,-0.301 -2.703,0.602 -2.699,0.898 -2.098,1.203 -2.101,1.797 -3.3013,3.602 -2.0976,3.898 -1.8008,3.903 -3.6016,-2.7 -3.5976,-2.101 -3.9024,-1.199 -3.8984,-0.903 -3.9024,-0.597 -3.5976,-0.301 -7.1992,0.601 -6.3008,1.2 -5.1016,1.5 -3.3008,0.898 -1.1992,0.301 -3.8984,-2.102 -4.8008,-0.898 -5.3984,-0.602 -5.4024,-0.297 -9.3008,0.598 -3.8984,0.301 -0.8984,1.5 0.2968,0.601 0.6016,0.598 2.3984,1.5 4.8008,0.902 9.6016,2.399 16.1992,4.199 9.8984,2.102 10.8008,2.097 11.4024,1.801 11.6992,1.199 8.3987,0 11.402,-0.597 7.199,-0.903 8.098,-1.199 9.602,-2.398 10.8,-3.301 12.598,-5.102 20.102,-7.797 21.898,-9.902 9.602,-4.801 7.8,-4.797 -30,-6.3"
         style="fill:#ffffff;fill-opacity:1;fill-rule:nonzero;stroke:none"
         id="path25165" /><path
         d="m 190.863,268.43 c -34.5,-7.2 -42.902,10.199 -42.902,10.199 -21,-15.301 -21.598,13.801 -21.598,13.801 -23.101,-16.5 -31.4997,10.5 -31.4997,10.5 -18.6016,-15.903 -45.6016,-3.301 -45.6016,-3.301 -8.3984,-6.301 -32.6992,-3 -32.6992,-3 -2.1016,1.801 -0.6016,4.199 7.1992,5.101 7.5,1.2 37.8008,11.7 69.6016,13.797 9.8987,-0.597 24.5977,2.102 55.4997,-8.398 9.598,-3.899 54,-20.102 72,-32.399 l -30,-6.3 z"
         style="fill:none;stroke:#231f20;stroke-opacity:1;stroke-width:2.39583;stroke-linecap:butt;stroke-linejoin:miter;stroke-miterlimit:4;stroke-dasharray:none"
         id="path25167" /><path
         d="m 216.668,198.23 -5.402,4.5 -4.504,3.899 -7.801,7.801 -3.898,3.3 -4.2,3.297 -4.797,2.703 -5.703,2.399 2.7,3.601 1.8,1.5 2.7,0.899 3.601,-0.602 4.199,-2.097 4.801,-4.5 6,-7.5 2.699,-3.903 3.301,-6.597 4.504,-8.7"
         style="fill:#ffffff;fill-opacity:1;fill-rule:nonzero;stroke:none"
         id="path25169" /><path
         d="m 216.668,198.23 c -15.906,11.7 -19.504,21.899 -36.305,27.899 2.098,3.601 8.7,15 25.801,-8.699 2.098,-2.403 10.504,-19.2 10.504,-19.2 z"
         style="fill:none;stroke:#231f20;stroke-opacity:1;stroke-width:2.39583;stroke-linecap:butt;stroke-linejoin:miter;stroke-miterlimit:4;stroke-dasharray:none"
         id="path25171" /><path
         d="m 205.262,221.629 5.406,-9.899 3.594,-7.8 2.101,-5.102 10.801,-9.598 2.703,0 7.797,0.297 10.504,1.801 6,1.801 5.996,2.101 6,3 5.699,3.899 5.098,4.801 4.203,5.699 3.598,6.601 1.203,3.899 0.898,4.199 0.598,4.5 0.301,4.801 0,5.398 -0.598,5.403 -4.5,8.699 -2.703,3.898 -3.598,3.903 -4.8,3.597 -6.301,3 -8.399,3 -11.101,2.703 -3.594,0.598 -7.504,0 -5.398,-0.598 -6.602,-1.203 -7.5,-2.097 -9,-3 0.598,-0.301 1.801,-2.399 2.105,-4.203 2.094,-5.398 0.601,-3.301 0.301,-3.898 0.297,-3.903 -0.598,-4.5 -0.902,-4.797 -1.793,-4.8 -2.105,-5.403 -3.301,-5.398"
         style="fill:#231f20;fill-opacity:1;fill-rule:nonzero;stroke:none"
         id="path25173" /><path
         d="m 205.262,221.629 c 0,0 10.5,-19.199 11.101,-22.801 l 10.801,-9.598 c 0,0 68.098,-3 60,58.2 -6.301,12 -8.402,22.199 -41.402,28.8 -2.399,0.297 -14.098,3.297 -39.598,-6.3 -0.301,1.199 18,-18.301 -0.902,-48.301 z"
         style="fill:none;stroke:#231f20;stroke-opacity:1;stroke-width:1.19583;stroke-linecap:butt;stroke-linejoin:miter;stroke-miterlimit:4;stroke-dasharray:none"
         id="path25175" /><path
         d="m 394.262,155.93 -20.399,15.898 -17.699,12.902 -15.301,10.797 -8.101,5.403 -6,4.5 -4.199,3.898 -2.7,3.602 -1.8,3.597 -1.5,3.903 -2.7,10.5 -5.402,8.699 -4.797,7.801 -9.301,12.597 -6.601,7.801 -2.399,2.699 1.801,-0.297 4.199,-0.601 6.903,-2.102 3.898,-1.797 4.5,-2.402 4.797,-3.301 4.801,-3.898 5.101,-4.801 5.098,-6 5.102,-6.898 4.8,-8.102 4.801,-9.598 4.797,-10.8 6.301,-9.903 4.5,-6.597 5.402,-7.2 6.598,-7.5 7.199,-7.5 8.703,-7.8 9.598,-7.5"
         style="fill:#231f20;fill-opacity:1;fill-rule:nonzero;stroke:none"
         id="path25177" /><path
         d="m 394.262,155.93 c 0,0 -36.899,29.097 -53.399,39.597 -24.902,15.602 -22.199,18.602 -27,35.403 -13.8,24.898 -28.5,39.597 -28.5,39.597 0,0 36.598,1.203 60.598,-60.597 6,-10.5 21.004,-34.5 48.301,-54 z"
         style="fill:none;stroke:#231f20;stroke-opacity:1;stroke-width:1.19583;stroke-linecap:butt;stroke-linejoin:miter;stroke-miterlimit:4;stroke-dasharray:none"
         id="path25179" /><path
         d="m 303.363,101.629 -1.199,-1.8009 -5.402,-11.0976 -1.5,-2.1016 -2.699,-5.1016 -5.102,-12 0.301,-5.3984 0.902,-10.1992 2.699,-16.5 2.399,-11.1016 3.301,-12.8984 -8.7,10.8008 -4.199,-17.10159 -5.402,17.10159 -5.094,-13.5 -0.602,3.5976 -1.503,8.6992 0,6.3008 0.3,6.6016 0.899,7.1992 2.101,7.8008 0.899,10.5 0.601,6.8984 1.2,2.1016 3,6 3.601,9.5976 1.801,5.7032 1.496,6.5976 -0.598,1.8009 -0.898,3.601 0,2.098 0.598,1.801 1.5,1.199 2.398,0.602 4.5,0.597 3.305,-0.297 2.996,-0.902 3.004,-2.098 0,-1.203 -0.305,-1.797 -0.598,-2.101"
         style="fill:#231f20;fill-opacity:1;fill-rule:nonzero;stroke:none"
         id="path25181" /><path
         d="m 394.863,154.43 2.399,-3.602 2.101,-4.801 1.5,-5.699 1.2,-6 1.199,-10.5 0.906,-4.801 -0.605,-8.097 -1.801,-7.2 -2.699,-6.6011 -3.301,-5.6992 -3.895,-4.8008 -3.605,-3.6016 -3.899,-2.0976 -3,-0.9024 -5.101,-0.8984 -3.598,-1.5 -2.703,-1.8008 -3.293,0.6016 -5.406,0 -7.199,0.3008 -6.899,3.5976 -2.703,-0.3008 -3.297,0 -4.801,1.2032 -5.699,2.6992 -6.902,4.8008 -8.098,7.5 -4.5,4.7965 -4.801,5.703 -3.601,2.399 -3.598,1.5 -3.301,0.601 -3,-0.3 -4.5,-1.2 -1.8,-0.902 0.3,1.199 -0.601,1.203 -7.5,7.2 -6,6.3 -5.098,7.5 -5.101,9 -5.102,10.5 -2.996,5.7 -3.602,5.699 -7.5,10.5 -7.797,9 -3.902,3.301 -3.301,2.699 2.7,0.301 7.199,0.597 10.203,1.801 5.703,1.801 5.996,2.101 5.699,3 5.399,3.598 5.101,4.5 4.2,5.402 3.601,6.598 2.399,7.5 0.898,4.199 0.301,4.5 -0.301,9.903 -1.496,6 -1.801,3.898 -3,4.5 -4.801,4.801 -2.996,2.101 -3.605,2.399 -4.199,2.101 -4.797,2.098 -5.703,2.102 -6.301,1.8 3,0.297 6.601,0.301 4.801,-0.301 6,-0.597 6.899,-1.801 8.398,-2.399 2.703,-3 6.899,-8.101 9.3,-12.899 5.098,-8.101 5.402,-8.699 2.7,-10.5 1.5,-3.903 1.8,-3.597 2.7,-3.903 4.199,-3.898 6,-4.199 8.101,-5.403 15.598,-10.797 17.703,-13.5 20.699,-16.8"
         style="fill:#ffffff;fill-opacity:1;fill-rule:nonzero;stroke:none"
         id="path25183" /><path
         d="m 394.863,154.43 c 7.2,-7.5 8.399,-34.801 9.305,-35.403 0,-22.4997 -15.004,-38.6989 -22.805,-38.9997 -8.097,-0.8984 -11.402,-4.1992 -11.402,-4.1992 -2.098,0.9024 -15.898,0.9024 -15.898,0.9024 l -6.899,3.5976 c 0,0 -14.703,-6.5976 -40.801,26.4019 -9.601,8.7 -19.8,2.098 -19.8,2.098 0.898,2.102 0.601,1.5 -7.801,9.602 -8.399,7.8 -14.098,18.3 -21.301,33.3 -7.5,15.297 -20.398,30.899 -29.098,36.899 0,0 65.098,-1.199 59.098,56.101 -1.199,4.797 -3,22.5 -38.699,31.5 2.101,-0.3 11.703,3.899 35.699,-4.5 0,0 15.602,-15.902 29.402,-40.8 4.801,-16.801 2.098,-19.801 27,-35.403 16.5,-10.5 54,-41.097 54,-41.097 z"
         style="fill:none;stroke:#231f20;stroke-opacity:1;stroke-width:2.39583;stroke-linecap:butt;stroke-linejoin:miter;stroke-miterlimit:4;stroke-dasharray:none"
         id="path25185" /><path
         d="m 305.461,107.93 c 0,0 17.102,1.5 24.602,-5.403 8.398,-7.1989 6.601,-5.9997 12.898,-7.1989"
         style="fill:none;stroke:#231f20;stroke-opacity:1;stroke-width:2.39583;stroke-linecap:butt;stroke-linejoin:miter;stroke-miterlimit:4;stroke-dasharray:none"
         id="path25187" /><path
         d="m 355.863,97.1289 c 0,0 8.399,7.8011 7.5,18.0001 -1.199,9.301 2.098,9.898 5.098,14.398 3.301,4.5 4.805,8.703 3.902,11.703"
         style="fill:none;stroke:#231f20;stroke-opacity:1;stroke-width:2.39583;stroke-linecap:butt;stroke-linejoin:miter;stroke-miterlimit:4;stroke-dasharray:none"
         id="path25189" /><path
         d="m 284.461,271.73 4.5,-0.902 2.707,0 2.996,0.902 2.699,1.2 3,2.398 2.7,3.602 2.398,4.8 3.301,9 3,5.7 2.101,2.699 2.399,2.699 2.402,16.199 3,16.5 4.797,19.5 6.301,20.703 3.902,10.2 4.5,9.898 4.797,9.301 5.102,8.101 6,7.5 3,3 3.3,2.7 -3,1.199 12.301,12.898 29.699,29.703 18,17.098 18.301,16.801 17.399,14.699 7.8,6 6.899,5.102 7.199,3.3 5.402,3 4.5,2.399 1.801,0.898 1.797,0.301 1.5,-0.301 1.5,-0.898 1.5,-1.801 1.5,-2.398 3,-7.5 3.602,-11.7 0.304,-4.8 -0.304,-4.801 -1.5,-10.199 -2.7,-11.102 -4.199,-11.398 -5.703,-12.301 -6.598,-13.199 -7.8,-13.5 -9,-14.403 -5.7,-10.199 -8.101,-14.699 -4.797,-8.699 -4.801,-9.903 -4.801,-10.5 -4.199,-11.699 -3.902,-12 -3.301,-13.199 -2.398,-13.5 -1.497,-14.102 -0.304,-7.199 0,-7.5 1.199,-15.301 1.203,-7.797 1.5,-7.8 2.098,-8.102 2.402,-7.801 0.297,-5.097 -1.199,-3.602 -1.801,-2.098 -2.398,-0.902 -2.997,0 -3.003,0.602 -2.997,1.199 -2.402,1.5 -5.101,3.301 -3,1.5 -3.602,1.199 -3.898,0.601 -5.102,0 -5.699,-1.203 -6.899,-2.398 2.098,-4.5 5.102,-10.199 3.898,-6.903 4.5,-7.199 5.102,-7.5 6.3,-7.5 1.801,-2.699 0.899,-2.399 0.3,-2.101 -0.898,-1.801 -1.203,-1.5 -2.098,-0.898 -2.699,-0.301 -3.301,0.301 -3.601,0.597 -3.899,0.301 -3.601,-0.598 -3.301,-0.902 -2.399,-1.199 -1.199,-2.102 0,-1.5 0.297,-1.5 2.105,-3.597 2.098,-3.301 2.098,-4.199 2.406,-3.598 1.195,-1.504 1.5,-1.5 -9.601,7.801 -8.399,7.801 -7.5,8.097 -6.3,7.801 -5.399,7.199 -4.5,6.602 -6.601,10.199 -4.497,10.801 -5.105,9.301 -5.098,8.398 -5.101,6.902 -5.098,5.7 -5.402,5.097 -4.801,3.903 -4.797,3.3 -4.5,2.399 -4.199,1.801 -7.203,2.398 -4.5,0.602 -1.801,0.3"
         style="fill:#231f20;fill-opacity:1;fill-rule:nonzero;stroke:none"
         id="path25191" /><path
         d="m 284.461,271.73 c 5.102,-1.8 14.703,-2.703 21,12 1.5,4.2 3.602,13.5 10.801,20.098 0,1.5 11.699,96.301 47.101,123.602 l -3,1.199 c 0,0 75,79.199 110.399,102.301 21.004,8.097 23.101,22.8 33.301,-14.7 2.101,-24.902 -12.297,-56.101 -37.5,-95.703 -10.2,-21 -64.5,-93.898 -35.399,-180 2.098,-15.898 -10.203,-12.597 -16.5,-8.398 -6.301,4.199 -13.5,11.101 -33.301,3 1.2,-0.899 9.598,-24 27,-43.801 6.301,-7.199 2.102,-13.5 -7.199,-11.398 -9.601,2.097 -23.703,0 -15.598,-10.2 3.297,-4.203 4.797,-11.398 9.297,-14.402 -27,20.102 -42,45 -48.3,55.5 -24,61.199 -62.102,60.902 -62.102,60.902 z"
         style="fill:none;stroke:#231f20;stroke-opacity:1;stroke-width:1.19583;stroke-linecap:butt;stroke-linejoin:miter;stroke-miterlimit:4;stroke-dasharray:none"
         id="path25193" /><path
         d="m 381.961,174.23 0.902,-1.8 0.598,-1.5 0.602,-3.301 0.601,-3 0.902,-1.5 1.497,-1.199 -9.301,7.5 -7.801,6.898 -6.297,6.602 -5.101,6 -4.5,5.699 -3.301,5.101 -5.399,9 -4.5,10.797 -4.8,9.301 -5.102,8.402 -5.398,6.899 -5.102,6 -5.098,4.801 -5.101,3.898 -4.801,3.301 -4.5,2.398 -4.199,1.801 -7.199,2.402 -4.5,0.598 -1.801,0.301 4.801,-0.899 2.699,0 2.699,0.899 2.703,1.5 3,2.398 2.399,3.301 2.703,4.801 1.195,3.898 2.102,5.102 3.304,5.699 2.094,2.699 2.402,2.703 2.399,16.2 3,16.5 4.801,19.5 6.3,20.699 3.602,10.199 4.496,9.902 4.801,9.297 5.101,8.102 6,7.5 3,3 3.301,2.699 -1.801,5.402 15.899,15.598 2.699,0.902 7.203,1.5 4.5,0.899 4.797,0 4.801,-0.301 4.801,-0.898 1.5,-0.903 1.199,-0.898 0.601,-1.199 0.301,-1.2 -0.301,-1.203 -0.3,-1.199 -1.2,-0.898 -1.5,-0.602 -3,-1.5 -0.601,-0.598 -0.301,-0.601 0.602,-0.899 1.199,-0.902 3.902,-1.801 4.199,-0.898 4.5,-0.301 0.903,-0.598 1.496,-2.101 0.301,-1.199 -0.602,-1.2 -1.5,-1.203 -2.699,-1.199 -15.899,-3.301 -11.699,-3 23.399,-3.597 1.203,-0.301 1.195,-0.301 1.203,-0.898 1.199,-1.801 1.2,-2.399 0.601,-3.3 0,-4.801 -0.301,-5.399 -0.902,-6.3 -2.098,-13.5 -0.601,-6.903 0,-7.199 0.601,-6.598 1.801,-6 0.297,-9 -0.598,-8.101 -2.101,-8.399 -3.899,-8.703 -1.5,-6.297 -1.199,-6.3 -0.601,-6.602 0.3,-6.301 0.598,-5.699 1.203,-5.098 2.098,-3.902 2.402,-2.699 2.098,-2.102 0.601,-2.398 -0.601,-2.399 -1.5,-2.402 -2.098,-2.098 -3,-1.8 -3.301,-1.2 -3.902,-0.3 -9.297,-0.602 -5.098,-0.598 -4.804,-1.203 -4.199,-1.5 -3,-2.398 -0.899,-1.199 -0.902,-1.5 0,-1.801 0.301,-1.801 1.8,-4.199 2.7,-4.801 6.898,-10.199 3.301,-4.801 2.101,-4.5 0.899,-3.598 -0.301,-1.203 -0.598,-1.199 -2.402,-1.801 -2.098,-1.199 -3.3,-1.801 -1.2,-0.898 -0.597,-0.899 0.3,-1.203 0.895,-1.5 1.203,-2.398 0.598,-3.602 0.301,-9.297 -0.602,-12"
         style="fill:#ffffff;fill-opacity:1;fill-rule:nonzero;stroke:none"
         id="path25195" /><path
         d="m 381.961,174.23 c 3,-4.203 0.602,-9.3 5.102,-12.3 -27,20.097 -35.399,36.3 -41.7,46.8 -23.699,61.2 -62.101,60.899 -62.101,60.899 5.402,-1.801 14.703,-2.399 21.004,12 1.496,4.199 3.597,13.5 11.097,20.101 0,1.5 11.399,96.297 46.801,123.598 l -1.801,5.402 15.899,15.598 c 0,0 17.101,6.301 28.801,2.102 4.5,-1.2 4.8,-7.2 0.3,-8.102 -0.3,-0.301 -6.902,-2.098 -2.101,-4.5 4.801,-3 12.601,-3 12.601,-3 0,0 7.203,-4.801 -2.101,-7.5 -5.399,-0.598 -27.598,-6.301 -27.598,-6.301 l 23.399,-3.597 c 0,0 7.503,0.3 6.601,-13.801 -0.301,-13.801 -7.801,-36.301 -1.5,-51.899 1.199,-12.601 0,-21.902 -6.301,-34.203 -5.101,-15.898 -4.195,-37.5 3.301,-42.898 7.199,-5.102 -1.199,-14.699 -11.703,-14.699 -10.5,0 -31.199,-2.102 -27.898,-12.602 3,-10.199 22.199,-29.398 16.8,-34.5 -6,-5.398 -12.3,-4.5 -8.402,-9.301 3.602,-4.5 1.5,-27.297 1.5,-27.297 z"
         style="fill:none;stroke:#231f20;stroke-opacity:1;stroke-width:2.39583;stroke-linecap:butt;stroke-linejoin:miter;stroke-miterlimit:4;stroke-dasharray:none"
         id="path25197" /><path
         d="m 345.363,94.7305 1.801,-0.6016 1.797,0 3.301,0.6016 3,1.2031 1.801,0.2969 0.601,-0.9024 0.297,-1.1992 -1.199,-2.3984 -2.699,-2.7032 -1.5,-11.0976 -1.2,-10.1992 -0.601,-9.9024 0.902,-7.1992 1.797,-12 4.801,-29.10156 -10.5,10.49996 -1.801,-11.39449 -5.398,12.89449 -7.801,-10.1992 3.301,19.1992 4.199,29.1016 1.804,6.8984 1.497,9.3008 1.8,12 -1.5,4.1992 -0.3,2.4024 0.601,0.5976 1.199,-0.5976 0,0.3008"
         style="fill:#231f20;fill-opacity:1;fill-rule:nonzero;stroke:none"
         id="path25199" /></g></g></svg>