<?xml version="1.0" encoding="UTF-8" standalone="no"?>
<!-- Created with Inkscape (http://www.inkscape.org/) -->

<svg
   xmlns:dc="http://purl.org/dc/elements/1.1/"
   xmlns:cc="http://creativecommons.org/ns#"
   xmlns:rdf="http://www.w3.org/1999/02/22-rdf-syntax-ns#"
   xmlns:svg="http://www.w3.org/2000/svg"
   xmlns="http://www.w3.org/2000/svg"
   xmlns:sodipodi="http://sodipodi.sourceforge.net/DTD/sodipodi-0.dtd"
   xmlns:inkscape="http://www.inkscape.org/namespaces/inkscape"
   width="210mm"
   height="297mm"
   id="svg8234"
   version="1.1"
   inkscape:version="0.48.0 r9654"
   sodipodi:docname="Neues Dokument 4">
  <defs
     id="defs3" />
  <sodipodi:namedview
     inkscape:document-units="mm"
     id="base"
     pagecolor="#ffffff"
     bordercolor="#666666"
     borderopacity="1.0"
     inkscape:pageopacity="0.0"
     inkscape:pageshadow="2"
     inkscape:zoom="0.35"
     inkscape:cx="350"
     inkscape:cy="792.41024"
     inkscape:current-layer="layer1"
     showgrid="false"
     inkscape:window-width="505"
     inkscape:window-height="455"
     inkscape:window-x="50"
     inkscape:window-y="50"
     inkscape:window-maximized="0" />
  <metadata
     id="metadata4">
    <rdf:RDF>
      <cc:Work
         rdf:about="">
        <dc:format>image/svg+xml</dc:format>
        <dc:type
           rdf:resource="http://purl.org/dc/dcmitype/StillImage" />
        <dc:title></dc:title>
      </cc:Work>
    </rdf:RDF>
  </metadata>
  <g
     inkscape:label="Layer 1"
     inkscape:groupmode="layer"
     id="layer1">
    <g
       transform="matrix(5.2176405,0,0,4.8678961,-3227.9929,-1167.6141)"
       style="display:inline"
       id="g7762">
      <g
         id="g6604"
         transform="translate(551.90631,87.972344)">
        <path
           sodipodi:nodetypes="cscscssssssssssssssssssssssscssscsssssssc"
           id="path6606"
           d="m 85.250556,170.6249 c 0,0 6.363961,5.56846 20.417704,10.47402 14.05375,4.90555 14.05375,4.90555 14.05375,4.90555 0,0 -5.83363,-3.97748 -7.68979,-11.66726 -1.85615,-7.68979 -1.85615,-7.68979 -1.85615,-7.68979 0,0 11.40209,9.41336 21.74353,13.12567 10.34144,3.71231 20.41771,7.02687 22.27386,9.28078 1.85616,2.2539 4.90556,6.62912 4.11006,8.88302 -0.79549,2.25391 -5.70105,7.15946 -7.68978,9.1482 -1.98874,1.98874 -4.90556,2.91681 -3.97748,4.64039 0.92808,1.72357 1.06066,2.38648 4.77297,2.78423 3.71231,0.39775 4.37522,0.53033 8.08753,0.66291 3.71231,0.13258 7.95495,-0.26516 10.20886,-1.72357 2.2539,-1.45841 10.34143,-4.90555 13.25825,-4.90555 2.91681,0 4.64039,1.06066 5.70105,2.2539 1.06066,1.19324 1.17882,2.29638 3.05382,3.04638 1.875,0.75 7.78125,1.78125 8.25,2.71875 0.46875,0.9375 2.25,2.4375 -2.0625,2.34375 -4.3125,-0.0937 -22.03125,1.3125 -26.4375,2.4375 -4.40625,1.125 -9.5625,2.625 -17.71875,7.21875 -8.15625,4.59375 -22.5,11.53125 -25.96875,12.1875 -3.46875,0.65625 -6.1875,1.03125 -10.78125,0.9375 -4.59375,-0.0937 -1.6875,1.125 -8.8125,-0.9375 -7.125,-2.0625 -9.281246,-3.375 -10.218746,-4.125 -0.9375,-0.75 -3.362147,-0.64012 -4.03125,-0.9375 -0.84375,-0.375 -4.781249,0.375 -6.187499,0.1875 -1.40625,-0.1875 -8.0625,0.9375 -9.1875,0.0937 -1.125,-0.84375 -2.0625,-4.5 -0.75,-3.65625 1.3125,0.84375 4.125,2.0625 4.125,2.0625 0,0 0.65625,-1.6875 0.1875,-1.96875 -0.46875,-0.28125 -0.9375,-1.875 1.125,-0.46875 2.0625,1.40625 1.721229,2.16074 3.375,2.31824 0.984375,0.0937 7.014358,0.0566 3.160793,-1.6105 1.806546,1.23339 -0.462027,-1.82658 -4.567043,-3.05149 -6.584375,-1.96473 -7.5,-2.25 -8.34375,-2.53125 -0.84375,-0.28125 -7.124999,-1.96875 -4.124999,-3.375 2.999999,-1.40625 13.874999,-6.09375 15.656249,-7.3125 1.78125,-1.21875 10.031249,-5.25 14.249995,-5.25 4.21875,0 8.625,-0.1875 5.625,-4.21875 -3,-4.03125 -6.5625,-7.40625 -13.499996,-17.90625 -6.937499,-10.5 -8.906249,-14.25 -9.530688,-18.37513 z"
           style="fill:#000000;fill-opacity:1;fill-rule:evenodd;stroke:none"
           inkscape:connector-curvature="0" />
        <path
           sodipodi:nodetypes="csccscc"
           id="path6608"
           d="m 134.53124,211.03128 c 0,0 0.70686,-0.32827 6.44129,0.36363 5.79798,0.69956 6.09375,1.62316 6.09375,1.62316 l -0.21025,0.55112 c 0,0 -4.18297,-1.22638 -5.95807,-1.40154 -3.6374,-0.35891 -6.55422,-0.49149 -6.55422,-0.49149 l 0.1875,-0.64488 z"
           style="fill:#ffffff;fill-opacity:1;fill-rule:evenodd;stroke:#000000;stroke-width:0.40000001;stroke-linecap:round;stroke-miterlimit:4;stroke-opacity:1;stroke-dasharray:none;stroke-dashoffset:0"
           inkscape:connector-curvature="0" />
        <path
           sodipodi:nodetypes="ccccsscccc"
           id="path6610"
           d="m 124.48706,186.41467 c 4.24264,1.32581 13.7725,2.66967 16.5473,8.97206 0.97308,5.39257 -2.73091,9.12337 -6.38832,14.39382 -1.42735,4.56269 2.72282,6.1949 4.55767,8.12246 1.32583,1.4584 1.3734,1.13265 3.18198,3.18197 2.42532,2.74817 1.92716,2.80698 -0.59191,0.4205 -2.51906,-2.38649 -12.0117,-7.06457 -7.61097,-13.3134 3.57451,-5.02988 8.40594,-10.58532 4.13637,-14.74722 -6.43879,-5.84238 -15.40092,-5.71929 -18.47251,-7.09649 -1.73114,-0.86292 1.51676,-0.44239 4.64039,0.0663 z"
           style="fill:#ffffff;fill-opacity:1;fill-rule:evenodd;stroke:#000000;stroke-width:0.40000001;stroke-linecap:round;stroke-miterlimit:4;stroke-opacity:1;stroke-dasharray:none;stroke-dashoffset:0"
           inkscape:connector-curvature="0" />
        <path
           id="path6612"
           d="m 155.04808,223.89085 c -0.22689,0.45101 -2.28769,2.64923 -10.83563,5.5789 -8.54795,2.92966 -8.69245,3.12006 -8.69245,3.12006 0,0 8.05361,-1.36599 12.36408,-3.42633 4.31047,-2.06034 7.15589,-5.14029 7.164,-5.27263 z"
           style="opacity:0.9057239;fill:#ffffff;fill-opacity:1;fill-rule:evenodd;stroke:#000000;stroke-width:0.40000001;stroke-linecap:round;stroke-miterlimit:4;stroke-opacity:1;stroke-dasharray:none;stroke-dashoffset:0"
           inkscape:connector-curvature="0" />
        <path
           style="opacity:0.9057239;fill:#ffffff;fill-opacity:1;fill-rule:evenodd;stroke:#000000;stroke-width:0.40000001;stroke-linecap:round;stroke-miterlimit:4;stroke-opacity:1;stroke-dasharray:none;stroke-dashoffset:0"
           d="m 155.75558,223.82189 c 0.28065,-0.41967 2.59621,-2.34769 11.43962,-4.20361 8.84342,-1.85589 9.01024,-2.02707 9.01024,-2.02707 0,0 -8.16047,0.36491 -12.69166,1.87935 -4.53118,1.51446 -7.73387,4.22099 -7.7582,4.35133 z"
           id="path6614"
           inkscape:connector-curvature="0" />
        <path
           sodipodi:nodetypes="cscsc"
           id="path6616"
           d="m 87.703333,174.80125 c 0,0 4.531433,4.76802 11.203222,7.95494 7.059685,3.37221 9.612235,3.31457 9.612235,3.31457 0,0 -2.18761,1.32582 -10.275148,-2.2539 -7.780466,-3.44381 -9.280776,-6.89429 -10.540309,-9.01561 z"
           style="fill:#ffffff;fill-opacity:1;fill-rule:evenodd;stroke:#000000;stroke-width:0.40000001;stroke-linecap:round;stroke-miterlimit:4;stroke-opacity:1;stroke-dasharray:none;stroke-dashoffset:0"
           inkscape:connector-curvature="0" />
        <path
           style="fill:#ffffff;fill-opacity:1;fill-rule:evenodd;stroke:#000000;stroke-width:0.40000001;stroke-linecap:round;stroke-miterlimit:4;stroke-opacity:1;stroke-dasharray:none;stroke-dashoffset:0"
           d="m 92.009175,182.76877 c 0,0 4.934418,4.34965 11.861355,6.93553 7.32967,2.73623 9.86718,2.45361 9.86718,2.45361 0,0 -2.06211,1.51365 -10.43393,-1.33859 -8.053957,-2.74396 -9.852832,-6.04862 -11.294605,-8.05055 z"
           id="path6618"
           sodipodi:nodetypes="cscsc"
           inkscape:connector-curvature="0" />
        <path
           sodipodi:nodetypes="cscsc"
           id="path6620"
           d="m 97.047311,189.3316 c 0,0 4.934419,4.34965 11.861359,6.93553 7.32967,2.73623 9.86718,2.45361 9.86718,2.45361 0,0 -2.06211,1.51365 -10.43393,-1.33859 -8.05396,-2.74396 -9.852836,-6.04862 -11.294609,-8.05055 z"
           style="fill:#ffffff;fill-opacity:1;fill-rule:evenodd;stroke:#000000;stroke-width:0.40000001;stroke-linecap:round;stroke-miterlimit:4;stroke-opacity:1;stroke-dasharray:none;stroke-dashoffset:0"
           inkscape:connector-curvature="0" />
        <path
           style="fill:#ffffff;fill-opacity:1;fill-rule:evenodd;stroke:#000000;stroke-width:0.40000001;stroke-linecap:round;stroke-miterlimit:4;stroke-opacity:1;stroke-dasharray:none;stroke-dashoffset:0"
           d="m 102.08545,195.56298 c 0,0 4.93442,4.34965 11.86136,6.93553 7.32967,2.73623 9.86718,2.45361 9.86718,2.45361 0,0 -2.06211,1.51365 -10.43393,-1.33859 -8.05396,-2.74396 -9.85284,-6.04862 -11.29461,-8.05055 z"
           id="path6622"
           sodipodi:nodetypes="cscsc"
           inkscape:connector-curvature="0" />
        <path
           style="fill:#ffffff;fill-opacity:1;fill-rule:evenodd;stroke:#000000;stroke-width:0.40000001;stroke-linecap:round;stroke-miterlimit:4;stroke-opacity:1;stroke-dasharray:none;stroke-dashoffset:0"
           d="m 107.44974,210.9665 c 0,0 3.32755,5.6741 9.09908,10.29563 6.10709,4.89023 8.60579,5.41496 8.60579,5.41496 0,0 -2.43192,0.79323 -9.49268,-4.53297 -6.79266,-5.12397 -7.46842,-8.82534 -8.21219,-11.17762 z"
           id="path6624"
           sodipodi:nodetypes="cscsc"
           inkscape:connector-curvature="0" />
        <path
           style="opacity:0.9057239;fill:#ffffff;fill-opacity:1;fill-rule:evenodd;stroke:#000000;stroke-width:0.40000001;stroke-linecap:round;stroke-miterlimit:4;stroke-opacity:1;stroke-dasharray:none;stroke-dashoffset:0"
           d="m 120.52236,238.31307 c -0.44181,0.24433 -3.38356,0.89635 -12.09382,-1.50819 -8.710246,-2.40455 -8.936976,-2.32889 -8.936976,-2.32889 0,0 7.419806,3.41658 12.141086,4.14779 4.72127,0.73122 8.80834,-0.20602 8.88971,-0.31071 z"
           id="path6626"
           inkscape:connector-curvature="0" />
        <path
           id="path6628"
           d="m 97.076022,221.5233 c -0.29302,-0.14616 -2.33818,-0.67316 -8.812439,-0.24923 -6.474249,0.42395 -6.629416,0.37169 -6.629416,0.37169 0,0 5.647233,-0.98743 9.101245,-0.95532 3.45401,0.0321 6.29241,0.77862 6.34061,0.83286 z"
           style="opacity:0.9057239;fill:#ffffff;fill-opacity:1;fill-rule:evenodd;stroke:none"
           inkscape:connector-curvature="0" />
        <path
           style="opacity:0.9057239;fill:#ffffff;fill-opacity:1;fill-rule:evenodd;stroke:none"
           d="m 103.7016,219.70532 c -0.28706,-0.15755 -2.30994,-0.76448 -8.795862,-0.59521 -6.4859,0.16929 -6.638895,0.11098 -6.638895,0.11098 0,0 5.681665,-0.76483 9.131751,-0.59706 3.450086,0.16774 6.256966,1.02521 6.303006,1.08129 z"
           id="path6630"
           inkscape:connector-curvature="0" />
        <path
           sodipodi:nodetypes="cscc"
           id="path6632"
           d="m 114.81646,191.30777 c 6.09879,3.97748 6.0988,2.65165 9.01561,4.77297 3.74518,2.72377 4.24264,2.78423 4.24264,2.78423 0,0 -5.03814,-5.56846 -13.25825,-7.5572 z"
           style="fill:#ffffff;fill-opacity:1;fill-rule:evenodd;stroke:none"
           inkscape:connector-curvature="0" />
        <path
           inkscape:transform-center-y="-1.9887377"
           inkscape:transform-center-x="1.3258251"
           style="fill:#ffffff;fill-opacity:1;fill-rule:evenodd;stroke:none"
           d="m 134.80255,224.67831 c -5.37685,-4.90969 -5.59085,-3.60124 -8.12704,-6.16552 -3.25645,-3.29254 -3.73763,-3.4325 -3.73763,-3.4325 0,0 4.07332,6.30862 11.86467,9.59802 z"
           id="path6634"
           sodipodi:nodetypes="cscc"
           inkscape:connector-curvature="0" />
        <path
           style="fill:#ffffff;fill-opacity:1;fill-rule:evenodd;stroke:none"
           d="m 133.51059,183.22023 c 5.73286,4.46594 5.73287,2.97729 8.47467,5.35912 3.52047,3.05827 3.98808,3.12616 3.98808,3.12616 0,0 -4.73585,-6.25231 -12.46275,-8.48528 z"
           id="path6636"
           sodipodi:nodetypes="cscc"
           inkscape:connector-curvature="0" />
        <path
           inkscape:transform-center-y="0.79549508"
           inkscape:transform-center-x="2.2539027"
           sodipodi:nodetypes="cscc"
           id="path6638"
           d="m 127.89719,181.49871 c -5.82508,-4.34497 -5.79393,-2.85665 -8.58498,-5.18057 -3.58371,-2.98391 -4.05264,-3.042 -4.05264,-3.042 0,0 4.86568,6.15181 12.63762,8.22257 z"
           style="fill:#ffffff;fill-opacity:1;fill-rule:evenodd;stroke:none"
           inkscape:connector-curvature="0" />
        <path
           style="fill:#ffffff;fill-opacity:1;fill-rule:evenodd;stroke:none"
           d="m 148.24851,198.61086 c -5.18728,5.08944 -3.7118,5.28702 -6.43644,7.68846 -3.49845,3.08345 -3.6278,3.53791 -3.6278,3.53791 0,0 6.82553,-3.86417 10.06424,-11.22637 z"
           id="path6640"
           sodipodi:nodetypes="cscc"
           inkscape:connector-curvature="0" />
        <path
           style="fill:#ffffff;fill-opacity:1;fill-rule:evenodd;stroke:none"
           d="m 132.84978,186.62225 c -6.53222,-3.18439 -6.2245,-1.7279 -9.39945,-3.4915 -4.07662,-2.26446 -4.54817,-2.23422 -4.54817,-2.23422 0,0 5.92603,5.13827 13.94762,5.72572 z"
           id="path6642"
           sodipodi:nodetypes="cscc"
           inkscape:transform-center-x="2.0663727"
           inkscape:transform-center-y="1.2012398"
           inkscape:connector-curvature="0" />
        <path
           style="fill:#ffffff;fill-opacity:1;fill-rule:evenodd;stroke:none"
           d="m 110.61495,185.83829 c 6.28383,3.65019 6.08265,2.1752 9.12119,4.16464 3.90148,2.55442 4.37398,2.5585 4.37398,2.5585 0,0 -5.53738,-5.55491 -13.49517,-6.72314 z"
           id="path6644"
           sodipodi:nodetypes="cscc"
           inkscape:transform-center-x="-2.1481223"
           inkscape:transform-center-y="-1.0480699"
           inkscape:connector-curvature="0" />
        <path
           inkscape:transform-center-y="-0.44242266"
           inkscape:transform-center-x="1.2211533"
           style="opacity:0.9057239;fill:#ffffff;fill-opacity:1;fill-rule:evenodd;stroke:none"
           d="m 146.10918,188.35667 c 3.74541,3.42404 4.2965,4.58722 4.54147,5.5668 0.24494,0.97955 -0.46654,0.39481 -0.46654,0.39481 0,0 -0.0592,-0.88245 -4.07493,-5.96161 z"
           id="path6646"
           inkscape:connector-curvature="0" />
        <path
           id="path6648"
           d="m 129.13725,212.77984 c -4.50151,-2.34278 -5.33383,-3.32458 -5.82304,-4.2079 -0.48918,-0.8833 0.34899,-0.50173 0.34899,-0.50173 0,0 0.28467,0.83737 5.47405,4.70963 z"
           style="opacity:0.9057239;fill:#ffffff;fill-opacity:1;fill-rule:evenodd;stroke:none"
           inkscape:transform-center-x="-1.3152973"
           inkscape:transform-center-y="0.088585788"
           inkscape:connector-curvature="0" />
        <path
           id="path6650"
           d="m 190.13088,212.91439 c -1.32159,4.08944 -2.03187,4.94264 -2.70944,5.49831 -0.67757,0.55565 -0.47791,-0.19613 -0.47791,-0.19613 0,0 0.66891,-0.38055 3.18735,-5.30218 z"
           style="opacity:0.9057239;fill:#ffffff;fill-opacity:1;fill-rule:evenodd;stroke:none"
           inkscape:transform-center-x="0.13615942"
           inkscape:transform-center-y="-1.1013229"
           inkscape:connector-curvature="0" />
        <g
           transform="translate(73.759479,-30.781776)"
           id="g6652">
          <path
             sodipodi:type="arc"
             style="fill:#ffffff;fill-opacity:0.98846154;fill-rule:nonzero;stroke:#000000;stroke-width:0.49181125;stroke-linecap:round;stroke-linejoin:miter;stroke-miterlimit:4;stroke-opacity:1;stroke-dasharray:none;stroke-dashoffset:0;marker:none;visibility:visible;display:inline;overflow:visible;enable-background:accumulate"
             id="path6654"
             sodipodi:cx="279.1525"
             sodipodi:cy="583.5531"
             sodipodi:rx="3.9111843"
             sodipodi:ry="4.043767"
             d="m 283.06368,583.5531 c 0,2.23331 -1.7511,4.04377 -3.91118,4.04377 -2.16009,0 -3.91119,-1.81046 -3.91119,-4.04377 0,-2.23331 1.7511,-4.04377 3.91119,-4.04377 2.16008,0 3.91118,1.81046 3.91118,4.04377 z"
             transform="matrix(0.4258523,0,0,0.4282833,-7.2080704,-6.3072367)" />
          <path
             sodipodi:type="arc"
             style="fill:#000000;fill-opacity:0.98846154;fill-rule:nonzero;stroke:none;stroke-width:0.49181125;marker:none;visibility:visible;display:inline;overflow:visible;enable-background:accumulate"
             id="path6656"
             sodipodi:cx="111.4356"
             sodipodi:cy="243.4127"
             sodipodi:rx="0.86178631"
             sodipodi:ry="0.79549503"
             d="m 112.29739,243.4127 c 0,0.43934 -0.38584,0.7955 -0.86179,0.7955 -0.47595,0 -0.86179,-0.35616 -0.86179,-0.7955 0,-0.43934 0.38584,-0.79549 0.86179,-0.79549 0.47595,0 0.86179,0.35615 0.86179,0.79549 z"
             transform="translate(0.3977475,0.1325825)" />
        </g>
        <path
           id="path6658"
           d="m 95.546646,221.72824 c 0.291265,0.14963 2.329998,0.70097 8.808864,0.35423 6.47883,-0.34675 6.63337,-0.29265 6.63337,-0.29265 0,0 -5.6586,0.92006 -9.11199,0.84678 -3.453386,-0.0732 -6.282686,-0.85356 -6.330244,-0.90836 z"
           style="opacity:0.9057239;fill:#ffffff;fill-opacity:1;fill-rule:evenodd;stroke:none"
           inkscape:connector-curvature="0" />
        <path
           id="path6660"
           d="m 110.59588,219.70532 c -0.28706,0.2204 -2.30994,1.06946 -8.79585,0.83266 -6.4859,-0.23682 -6.638895,-0.15525 -6.638895,-0.15525 0,0 5.681665,1.06995 9.131755,0.83525 3.45007,-0.23466 6.25695,-1.43421 6.30299,-1.51266 z"
           style="opacity:0.9057239;fill:#ffffff;fill-opacity:1;fill-rule:evenodd;stroke:none"
           inkscape:connector-curvature="0" />
        <path
           id="path6662"
           d="m 98.663461,223.28504 c -0.28706,-0.15755 -2.30994,-0.76448 -8.795858,-0.59521 -6.4859,0.16929 -6.638895,0.11098 -6.638895,0.11098 0,0 5.681665,-0.76483 9.131753,-0.59706 3.45008,0.16774 6.25696,1.02521 6.303,1.08129 z"
           style="opacity:0.9057239;fill:#ffffff;fill-opacity:1;fill-rule:evenodd;stroke:none"
           inkscape:connector-curvature="0" />
        <path
           style="opacity:0.9057239;fill:#ffffff;fill-opacity:1;fill-rule:evenodd;stroke:none"
           d="m 145.10651,208.76673 c 0.31444,-0.0914 2.17456,-1.09159 6.64373,-5.79501 4.46914,-4.70343 4.61859,-4.7703 4.61859,-4.7703 0,0 -3.47927,4.55641 -6.03878,6.87593 -2.55947,2.31953 -5.15133,3.69652 -5.22354,3.68938 z"
           id="path6664"
           inkscape:connector-curvature="0" />
        <path
           id="path6666"
           d="m 145.10651,208.76673 c 0.31444,-0.0914 2.17456,-1.09159 6.64373,-5.79501 4.46914,-4.70343 4.61859,-4.7703 4.61859,-4.7703 0,0 -3.47927,4.55641 -6.03878,6.87593 -2.55947,2.31953 -5.15133,3.69652 -5.22354,3.68938 z"
           style="opacity:0.9057239;fill:#ffffff;fill-opacity:1;fill-rule:evenodd;stroke:none"
           inkscape:connector-curvature="0" />
        <path
           style="opacity:0.9057239;fill:#ffffff;fill-opacity:1;fill-rule:evenodd;stroke:none"
           d="m 97.660552,223.61855 c 0.29684,0.13826 2.355378,0.61029 8.815968,0.0131 6.46055,-0.59717 6.61707,-0.54908 6.61707,-0.54908 0,0 -5.61876,1.1383 -9.0724,1.1987 -3.45363,0.0604 -6.310998,-0.60984 -6.360638,-0.66276 z"
           id="path6668"
           inkscape:connector-curvature="0" />
        <path
           id="path6670"
           d="m 112.7172,227.12994 c -0.28706,0.2204 -2.30994,1.06946 -8.79586,0.83266 -6.485892,-0.23682 -6.638892,-0.15525 -6.638892,-0.15525 0,0 5.681662,1.06995 9.131752,0.83525 3.45008,-0.23466 6.25696,-1.43421 6.303,-1.51266 z"
           style="opacity:0.9057239;fill:#ffffff;fill-opacity:1;fill-rule:evenodd;stroke:none"
           inkscape:connector-curvature="0" />
        <path
           style="opacity:0.9057239;fill:#ffffff;fill-opacity:1;fill-rule:evenodd;stroke:none"
           d="m 100.98009,224.83807 c 0.29243,0.14735 2.33541,0.68273 8.81136,0.28536 6.47592,-0.39738 6.63087,-0.34449 6.63087,-0.34449 0,0 -5.65123,0.96426 -9.10509,0.91798 -3.45384,-0.0462 -6.28915,-0.80442 -6.33714,-0.85885 z"
           id="path6672"
           inkscape:connector-curvature="0" />
        <path
           style="opacity:0.9057239;fill:#ffffff;fill-opacity:1;fill-rule:evenodd;stroke:none"
           d="m 104.62967,227.79285 c -0.28706,-0.15755 -2.30994,-0.76448 -8.795853,-0.59521 -6.4859,0.16929 -6.638895,0.11098 -6.638895,0.11098 0,0 5.681665,-0.76483 9.131753,-0.59706 3.450075,0.16774 6.256955,1.02521 6.302995,1.08129 z"
           id="path6674"
           inkscape:connector-curvature="0" />
        <path
           id="path6676"
           d="m 103.56901,226.20186 c -0.28706,-0.15755 -2.30994,-0.76448 -8.795854,-0.59521 -6.4859,0.16929 -6.638895,0.11098 -6.638895,0.11098 0,0 5.681665,-0.76483 9.131753,-0.59706 3.450076,0.16774 6.256956,1.02521 6.302996,1.08129 z"
           style="opacity:0.9057239;fill:#ffffff;fill-opacity:1;fill-rule:evenodd;stroke:none"
           inkscape:connector-curvature="0" />
        <path
           style="opacity:0.9057239;fill:#ffffff;fill-opacity:1;fill-rule:evenodd;stroke:none"
           d="m 100.91736,225.00863 c -0.28706,-0.15755 -2.309936,-0.76448 -8.795854,-0.59521 -6.4859,0.16929 -6.638895,0.11098 -6.638895,0.11098 0,0 5.681665,-0.76483 9.131753,-0.59706 3.45008,0.16774 6.256956,1.02521 6.302996,1.08129 z"
           id="path6678"
           inkscape:connector-curvature="0" />
        <path
           id="path6680"
           d="m 102.44512,226.28427 c 0.28962,0.1528 2.32221,0.72636 8.80446,0.45036 6.48223,-0.27602 6.63617,-0.22023 6.63617,-0.22023 0,0 -5.66831,0.85824 -9.12069,0.74727 -3.45237,-0.11093 -6.27298,-0.92209 -6.31994,-0.9774 z"
           style="opacity:0.9057239;fill:#ffffff;fill-opacity:1;fill-rule:evenodd;stroke:none"
           inkscape:connector-curvature="0" />
        <path
           inkscape:transform-center-y="-0.57884505"
           inkscape:transform-center-x="1.1392153"
           style="opacity:0.9057239;fill:#ffffff;fill-opacity:1;fill-rule:evenodd;stroke:none"
           d="m 112.18542,227.63489 c 5.01267,0.79078 6.26553,0.49575 7.1839,0.076 0.91834,-0.41972 0.0175,-0.61091 0.0175,-0.61091 0,0 -0.72656,0.50431 -7.20137,0.53489 z"
           id="path6682"
           inkscape:connector-curvature="0" />
        <path
           id="path6684"
           d="m 122.26315,229.64901 c -0.28706,-0.15755 -2.30994,-0.76448 -8.79586,-0.59521 -6.4859,0.16929 -6.6389,0.11098 -6.6389,0.11098 0,0 5.68167,-0.76483 9.13175,-0.59706 3.45009,0.16774 6.25697,1.02521 6.30301,1.08129 z"
           style="opacity:0.9057239;fill:#ffffff;fill-opacity:1;fill-rule:evenodd;stroke:none"
           inkscape:connector-curvature="0" />
        <path
           style="opacity:0.9057239;fill:#ffffff;fill-opacity:1;fill-rule:evenodd;stroke:none"
           d="m 127.83161,228.85351 c -0.28706,0.2204 -2.30994,1.06946 -8.79585,0.83266 -6.4859,-0.23682 -6.63889,-0.15525 -6.63889,-0.15525 0,0 5.68166,1.06995 9.13175,0.83525 3.45007,-0.23466 6.25695,-1.43421 6.30299,-1.51266 z"
           id="path6686"
           inkscape:connector-curvature="0" />
        <path
           style="opacity:0.9057239;fill:#ffffff;fill-opacity:1;fill-rule:evenodd;stroke:none"
           d="m 107.67908,228.94142 c -0.28706,0.15755 -2.30994,0.76448 -8.795868,0.59521 -6.485897,-0.16929 -6.638897,-0.11098 -6.638897,-0.11098 0,0 5.681667,0.76483 9.131755,0.59706 3.45009,-0.16774 6.25697,-1.02521 6.30301,-1.08129 z"
           id="path6688"
           inkscape:connector-curvature="0" />
        <path
           id="path6690"
           d="m 117.22501,230.97484 c -0.28706,-0.15755 -2.30994,-0.76448 -8.79585,-0.59521 -6.4859,0.16929 -6.6389,0.11098 -6.6389,0.11098 0,0 5.68167,-0.76483 9.13175,-0.59706 3.45008,0.16774 6.25696,1.02521 6.303,1.08129 z"
           style="opacity:0.9057239;fill:#ffffff;fill-opacity:1;fill-rule:evenodd;stroke:none"
           inkscape:connector-curvature="0" />
      </g>
    </g>
  </g>
</svg>
